<svg xmlns="http://www.w3.org/2000/svg" xmlns:xlink="http://www.w3.org/1999/xlink" width="443" zoomAndPan="magnify" viewBox="0 0 332.25 132.750001" height="177" preserveAspectRatio="xMidYMid meet" version="1.0"><defs><g/></defs><g fill="#a23418" fill-opacity="1"><g transform="translate(33.38228, 95.907509)"><g><path d="M 14.171875 -8.09375 C 11.847656 -6.695312 9.476562 -5.960938 7.0625 -5.890625 C 4.644531 -5.828125 2.382812 -6.390625 0.28125 -7.578125 C -1.8125 -8.773438 -3.566406 -10.550781 -4.984375 -12.90625 C -6.398438 -15.25 -7.148438 -17.648438 -7.234375 -20.109375 C -7.316406 -22.578125 -6.757812 -24.890625 -5.5625 -27.046875 C -4.363281 -29.210938 -2.617188 -30.984375 -0.328125 -32.359375 C 1.921875 -33.722656 4.203125 -34.410156 6.515625 -34.421875 C 8.835938 -34.429688 11.023438 -33.832031 13.078125 -32.625 C 15.140625 -31.425781 16.878906 -29.65625 18.296875 -27.3125 C 19.378906 -25.519531 20.066406 -23.695312 20.359375 -21.84375 C 20.648438 -20 20.609375 -18.21875 20.234375 -16.5 C 19.859375 -14.789062 19.1875 -13.242188 18.21875 -11.859375 C 17.257812 -10.484375 16.03125 -9.34375 14.53125 -8.4375 Z M 27.3125 -9.09375 C 26.476562 -8.59375 25.644531 -8.191406 24.8125 -7.890625 C 23.988281 -7.585938 23.140625 -7.378906 22.265625 -7.265625 C 21.390625 -7.148438 20.410156 -7.097656 19.328125 -7.109375 C 18.734375 -7.109375 18.0625 -7.117188 17.3125 -7.140625 C 16.570312 -7.171875 15.800781 -7.203125 15 -7.234375 C 14.195312 -7.265625 13.445312 -7.257812 12.75 -7.21875 C 12.050781 -7.175781 11.457031 -7.078125 10.96875 -6.921875 L 15.375 -9.578125 C 16.59375 -10.210938 17.726562 -10.664062 18.78125 -10.9375 C 19.84375 -11.207031 20.96875 -11.351562 22.15625 -11.375 C 23.332031 -11.425781 24.40625 -11.582031 25.375 -11.84375 C 26.34375 -12.101562 27.242188 -12.484375 28.078125 -12.984375 C 28.472656 -13.222656 28.863281 -13.503906 29.25 -13.828125 C 29.644531 -14.160156 30.007812 -14.492188 30.34375 -14.828125 L 31.65625 -13.546875 C 31.226562 -12.710938 30.640625 -11.90625 29.890625 -11.125 C 29.140625 -10.34375 28.28125 -9.664062 27.3125 -9.09375 Z M 13.25 -10.453125 C 14.71875 -11.335938 15.75 -12.46875 16.34375 -13.84375 C 16.945312 -15.226562 17.125 -16.78125 16.875 -18.5 C 16.632812 -20.226562 15.945312 -22.03125 14.8125 -23.90625 C 13.507812 -26.0625 12.03125 -27.753906 10.375 -28.984375 C 8.726562 -30.222656 7.046875 -30.945312 5.328125 -31.15625 C 3.617188 -31.375 1.972656 -31.007812 0.390625 -30.0625 C -1.867188 -28.695312 -3.148438 -26.765625 -3.453125 -24.265625 C -3.765625 -21.773438 -3.039062 -19.070312 -1.28125 -16.15625 C -0.03125 -14.070312 1.421875 -12.441406 3.078125 -11.265625 C 4.742188 -10.097656 6.460938 -9.429688 8.234375 -9.265625 C 10.003906 -9.109375 11.675781 -9.503906 13.25 -10.453125 Z M 13.25 -10.453125 "/></g></g></g><g fill="#a23418" fill-opacity="1"><g transform="translate(59.394382, 80.339028)"><g><path d="M 18.046875 -11.765625 L 21.03125 -12.296875 L 21.671875 -10.875 L 16.765625 -7.015625 L 15.875 -7.265625 L 14.6875 -10 L 14.53125 -9.96875 C 14.238281 -8.425781 13.765625 -7.222656 13.109375 -6.359375 C 12.460938 -5.503906 11.640625 -4.851562 10.640625 -4.40625 C 8.734375 -3.539062 6.875 -3.410156 5.0625 -4.015625 C 3.25 -4.617188 1.8125 -6.097656 0.75 -8.453125 L -0.90625 -12.125 C -1.257812 -12.894531 -1.628906 -13.648438 -2.015625 -14.390625 C -2.398438 -15.140625 -2.789062 -15.882812 -3.1875 -16.625 L -6.375 -15.921875 L -7.015625 -17.328125 L -1.921875 -21.53125 L -0.84375 -21.1875 C -0.507812 -20.269531 -0.132812 -19.304688 0.28125 -18.296875 C 0.707031 -17.296875 1.164062 -16.257812 1.65625 -15.1875 L 3.734375 -10.46875 C 4.535156 -8.707031 5.519531 -7.632812 6.6875 -7.25 C 7.851562 -6.875 9.078125 -6.976562 10.359375 -7.5625 C 11.117188 -7.90625 11.804688 -8.457031 12.421875 -9.21875 C 13.035156 -9.976562 13.425781 -10.972656 13.59375 -12.203125 L 11.34375 -17.15625 C 11.0625 -17.78125 10.773438 -18.394531 10.484375 -19 C 10.191406 -19.601562 9.90625 -20.171875 9.625 -20.703125 C 9.351562 -21.242188 9.097656 -21.703125 8.859375 -22.078125 L 5.484375 -21.28125 L 4.84375 -22.6875 L 10.140625 -26.984375 L 11.046875 -26.6875 C 11.378906 -25.863281 11.675781 -25.144531 11.9375 -24.53125 C 12.207031 -23.914062 12.476562 -23.300781 12.75 -22.6875 C 13.03125 -22.070312 13.347656 -21.367188 13.703125 -20.578125 L 15.078125 -17.546875 C 15.785156 -15.984375 16.382812 -14.742188 16.875 -13.828125 C 17.375 -12.910156 17.765625 -12.222656 18.046875 -11.765625 Z M 18.046875 -11.765625 "/></g></g></g><g fill="#a23418" fill-opacity="1"><g transform="translate(81.197467, 70.480837)"><g><path d="M 8.8125 -2.59375 C 7.625 -2.1875 6.492188 -2.066406 5.421875 -2.234375 C 4.347656 -2.398438 3.425781 -2.765625 2.65625 -3.328125 C 1.894531 -3.890625 1.378906 -4.570312 1.109375 -5.375 C 0.773438 -6.34375 0.816406 -7.257812 1.234375 -8.125 C 1.648438 -8.988281 2.519531 -9.925781 3.84375 -10.9375 L 9.8125 -15.5 L 9.046875 -17.765625 C 8.796875 -18.492188 8.34375 -19.082031 7.6875 -19.53125 C 7.039062 -19.988281 6.285156 -20.269531 5.421875 -20.375 C 4.566406 -20.476562 3.679688 -20.375 2.765625 -20.0625 C 2.023438 -19.8125 1.570312 -19.484375 1.40625 -19.078125 C 1.25 -18.679688 1.296875 -18.015625 1.546875 -17.078125 L 2.109375 -15.203125 C 1.109375 -14.609375 0.191406 -14.335938 -0.640625 -14.390625 C -1.484375 -14.453125 -2.023438 -14.832031 -2.265625 -15.53125 C -2.429688 -16.039062 -2.378906 -16.617188 -2.109375 -17.265625 C -1.835938 -17.921875 -1.425781 -18.597656 -0.875 -19.296875 C -0.320312 -19.992188 0.300781 -20.644531 1 -21.25 C 1.707031 -21.851562 2.441406 -22.347656 3.203125 -22.734375 C 5.359375 -23.460938 7.289062 -23.484375 9 -22.796875 C 10.71875 -22.117188 11.914062 -20.84375 12.59375 -18.96875 L 15.03125 -11.46875 C 15.207031 -10.9375 15.410156 -10.40625 15.640625 -9.875 C 15.878906 -9.351562 16.082031 -8.976562 16.25 -8.75 L 19.28125 -9.1875 L 19.75 -7.796875 L 17.84375 -6.25 C 17.488281 -5.9375 17.148438 -5.675781 16.828125 -5.46875 C 16.503906 -5.257812 16.222656 -5.113281 15.984375 -5.03125 C 15.066406 -4.71875 14.296875 -5.035156 13.671875 -5.984375 L 12.609375 -7.546875 L 13.265625 -7.765625 C 12.671875 -6.347656 12.015625 -5.210938 11.296875 -4.359375 C 10.585938 -3.503906 9.757812 -2.914062 8.8125 -2.59375 Z M 9.109375 -5.625 C 9.796875 -5.851562 10.390625 -6.226562 10.890625 -6.75 C 11.390625 -7.269531 11.789062 -7.941406 12.09375 -8.765625 L 10.515625 -13.40625 L 6 -10.390625 C 5.351562 -9.972656 4.9375 -9.519531 4.75 -9.03125 C 4.570312 -8.539062 4.582031 -8 4.78125 -7.40625 C 5.03125 -6.675781 5.59375 -6.117188 6.46875 -5.734375 C 7.34375 -5.359375 8.222656 -5.320312 9.109375 -5.625 Z M 9.109375 -5.625 "/></g></g></g><g fill="#a23418" fill-opacity="1"><g transform="translate(101.206182, 63.821545)"><g><path d="M 1.265625 -0.328125 L 0.734375 -1.984375 L 3.515625 -3.390625 C 3.492188 -3.742188 3.398438 -4.257812 3.234375 -4.9375 C 3.078125 -5.625 2.863281 -6.539062 2.59375 -7.6875 C 2.320312 -8.84375 1.96875 -10.253906 1.53125 -11.921875 L 0.046875 -17.5625 C -0.242188 -18.6875 -0.554688 -19.847656 -0.890625 -21.046875 C -1.222656 -22.253906 -1.535156 -23.398438 -1.828125 -24.484375 C -2.128906 -25.566406 -2.394531 -26.488281 -2.625 -27.25 C -2.863281 -28.007812 -3.015625 -28.507812 -3.078125 -28.75 L -6.5625 -28.328125 L -7.03125 -29.75 L -1.046875 -33.3125 L -0.015625 -32.890625 C 0.296875 -31.585938 0.597656 -30.304688 0.890625 -29.046875 C 1.191406 -27.785156 1.535156 -26.382812 1.921875 -24.84375 C 2.316406 -23.300781 2.796875 -21.441406 3.359375 -19.265625 L 5.234375 -11.96875 C 5.691406 -10.175781 6.132812 -8.570312 6.5625 -7.15625 C 6.988281 -5.75 7.285156 -4.835938 7.453125 -4.421875 L 10.5625 -4.5625 L 10.90625 -2.859375 Z M 1.265625 -0.328125 "/></g></g></g><g fill="#a23418" fill-opacity="1"><g transform="translate(112.61451, 60.808968)"><g><path d="M 1.234375 -0.265625 L 0.78125 -1.9375 L 3.734375 -3.21875 C 3.734375 -3.351562 3.707031 -3.570312 3.65625 -3.875 C 3.613281 -4.175781 3.535156 -4.664062 3.421875 -5.34375 C 3.316406 -6.03125 3.144531 -6.96875 2.90625 -8.15625 L 2.265625 -11.1875 C 2.003906 -12.46875 1.734375 -13.617188 1.453125 -14.640625 C 1.171875 -15.660156 0.925781 -16.4375 0.71875 -16.96875 L -2.46875 -16.96875 L -2.78125 -18.484375 L 3.359375 -21.546875 L 4.1875 -21.03125 C 4.28125 -20.0625 4.398438 -19.113281 4.546875 -18.1875 C 4.691406 -17.269531 4.890625 -16.207031 5.140625 -15 L 6.34375 -9.21875 C 6.632812 -7.8125 6.898438 -6.648438 7.140625 -5.734375 C 7.378906 -4.828125 7.554688 -4.265625 7.671875 -4.046875 L 10.875 -4.046875 L 11.140625 -2.3125 Z M 0.96875 -26.453125 C 0.164062 -26.285156 -0.5625 -26.398438 -1.21875 -26.796875 C -1.882812 -27.203125 -2.296875 -27.789062 -2.453125 -28.5625 C -2.609375 -29.289062 -2.460938 -29.976562 -2.015625 -30.625 C -1.578125 -31.28125 -0.957031 -31.691406 -0.15625 -31.859375 C 0.625 -32.015625 1.328125 -31.878906 1.953125 -31.453125 C 2.585938 -31.023438 2.984375 -30.445312 3.140625 -29.71875 C 3.296875 -28.945312 3.164062 -28.25 2.75 -27.625 C 2.34375 -27 1.75 -26.609375 0.96875 -26.453125 Z M 0.96875 -26.453125 "/></g></g></g><g fill="#a23418" fill-opacity="1"><g transform="translate(124.007347, 58.362585)"><g><path d="M 15.546875 -5.234375 C 15.097656 -4.128906 14.410156 -3.210938 13.484375 -2.484375 C 12.566406 -1.765625 11.550781 -1.320312 10.4375 -1.15625 C 8.582031 -0.882812 6.957031 -1.226562 5.5625 -2.1875 C 4.175781 -3.15625 3.316406 -4.773438 2.984375 -7.046875 L 1.484375 -18.15625 L -1.765625 -17.671875 L -1.921875 -18.640625 L 3.25 -24.921875 L 4.140625 -25.0625 L 4.84375 -19.734375 L 6.484375 -8.34375 C 6.710938 -6.738281 7.226562 -5.597656 8.03125 -4.921875 C 8.84375 -4.253906 9.882812 -4.015625 11.15625 -4.203125 C 11.863281 -4.304688 12.492188 -4.550781 13.046875 -4.9375 C 13.609375 -5.320312 14.101562 -5.765625 14.53125 -6.265625 Z M 3.328125 -18.421875 L 2.984375 -20.734375 L 11.640625 -22.015625 L 11.984375 -19.703125 Z M 3.328125 -18.421875 "/></g></g></g><g fill="#a23418" fill-opacity="1"><g transform="translate(138.507956, 56.045609)"><g><path d="M 10.234375 -0.53125 L 0.78125 -17.828125 L -1.46875 -18.375 L -1.4375 -20.078125 L 7.625 -20.703125 L 7.828125 -19.03125 L 4.96875 -18.125 L 12.3125 -4.375 Z M 20.796875 -21.625 L 21.046875 -19.9375 L 18.890625 -19.09375 L 12.109375 -1.875 L 8.921875 6.125 C 8.335938 7.613281 7.679688 8.675781 6.953125 9.3125 C 6.222656 9.957031 5.363281 10.316406 4.375 10.390625 C 3.632812 10.441406 3 10.296875 2.46875 9.953125 C 1.945312 9.617188 1.664062 9.15625 1.625 8.5625 C 1.59375 8.09375 1.75 7.640625 2.09375 7.203125 C 2.445312 6.773438 3 6.410156 3.75 6.109375 L 8 4.5 L 6.015625 6.984375 L 10.5 -3.375 L 10.96875 -4.234375 L 16.03125 -18.890625 L 13.09375 -19.390625 L 13.078125 -21.078125 Z M 20.796875 -21.625 "/></g></g></g><g fill="#a23418" fill-opacity="1"><g transform="translate(159.576611, 54.755787)"><g/></g></g><g fill="#a23418" fill-opacity="1"><g transform="translate(167.317165, 54.193293)"><g><path d="M 19.078125 1.46875 L 19.125 -0.328125 L 22.03125 -0.765625 C 22.101562 -0.878906 22.179688 -1.191406 22.265625 -1.703125 C 22.347656 -2.210938 22.4375 -2.945312 22.53125 -3.90625 C 22.625 -4.863281 22.726562 -6.085938 22.84375 -7.578125 L 23.515625 -16.359375 C 23.628906 -17.910156 23.710938 -19.171875 23.765625 -20.140625 C 23.828125 -21.117188 23.851562 -21.859375 23.84375 -22.359375 C 23.84375 -22.867188 23.816406 -23.175781 23.765625 -23.28125 L 20.953125 -24.15625 L 21.1875 -25.921875 L 31.21875 -25.15625 L 31.21875 -23.359375 L 28.28125 -22.9375 C 28.207031 -22.84375 28.132812 -22.539062 28.0625 -22.03125 C 27.988281 -21.53125 27.898438 -20.796875 27.796875 -19.828125 C 27.691406 -18.867188 27.582031 -17.613281 27.46875 -16.0625 L 26.796875 -7.28125 C 26.679688 -5.789062 26.597656 -4.5625 26.546875 -3.59375 C 26.503906 -2.625 26.476562 -1.882812 26.46875 -1.375 C 26.46875 -0.863281 26.492188 -0.546875 26.546875 -0.421875 L 29.390625 0.46875 L 29.109375 2.234375 Z M 2.296875 0.171875 L 2.296875 -1.609375 L 5.21875 -2.046875 C 5.289062 -2.191406 5.351562 -2.546875 5.40625 -3.109375 C 5.46875 -3.671875 5.546875 -4.429688 5.640625 -5.390625 C 5.734375 -6.347656 5.832031 -7.507812 5.9375 -8.875 L 6.609375 -17.65625 C 6.710938 -19.050781 6.789062 -20.242188 6.84375 -21.234375 C 6.90625 -22.222656 6.953125 -23 6.984375 -23.5625 C 7.015625 -24.132812 7.003906 -24.46875 6.953125 -24.5625 L 4.125 -25.4375 L 4.40625 -27.21875 L 14.34375 -26.453125 L 14.296875 -24.65625 L 11.390625 -24.21875 C 11.316406 -24.132812 11.234375 -23.84375 11.140625 -23.34375 C 11.054688 -22.84375 10.96875 -22.109375 10.875 -21.140625 C 10.789062 -20.171875 10.691406 -18.910156 10.578125 -17.359375 L 9.90625 -8.578125 C 9.789062 -7.085938 9.703125 -5.859375 9.640625 -4.890625 C 9.578125 -3.929688 9.550781 -3.191406 9.5625 -2.671875 C 9.570312 -2.160156 9.601562 -1.835938 9.65625 -1.703125 L 12.46875 -0.828125 L 12.234375 0.9375 Z M 9.59375 -12.046875 L 9.8125 -14.78125 C 10.40625 -14.695312 11.304688 -14.59375 12.515625 -14.46875 C 13.734375 -14.34375 15.191406 -14.21875 16.890625 -14.09375 C 18.609375 -13.957031 20.050781 -13.859375 21.21875 -13.796875 C 22.394531 -13.742188 23.265625 -13.710938 23.828125 -13.703125 L 23.609375 -10.96875 C 22.929688 -11.113281 22.046875 -11.234375 20.953125 -11.328125 C 19.867188 -11.429688 18.453125 -11.550781 16.703125 -11.6875 C 14.910156 -11.820312 13.453125 -11.925781 12.328125 -12 C 11.203125 -12.070312 10.289062 -12.085938 9.59375 -12.046875 Z M 9.59375 -12.046875 "/></g></g></g><g fill="#a23418" fill-opacity="1"><g transform="translate(197.258896, 56.855179)"><g><path d="M 1.25 0.203125 L 1.4375 -1.515625 L 4.640625 -1.640625 C 4.691406 -1.765625 4.75 -1.976562 4.8125 -2.28125 C 4.882812 -2.582031 4.992188 -3.066406 5.140625 -3.734375 C 5.285156 -4.398438 5.457031 -5.332031 5.65625 -6.53125 L 6.171875 -9.59375 C 6.390625 -10.882812 6.554688 -12.054688 6.671875 -13.109375 C 6.785156 -14.160156 6.84375 -14.972656 6.84375 -15.546875 L 3.859375 -16.71875 L 4.109375 -18.234375 L 10.9375 -18.859375 L 11.53125 -18.09375 C 11.28125 -17.15625 11.050781 -16.222656 10.84375 -15.296875 C 10.644531 -14.378906 10.445312 -13.3125 10.25 -12.09375 L 9.265625 -6.265625 C 9.023438 -4.847656 8.847656 -3.675781 8.734375 -2.75 C 8.628906 -1.832031 8.585938 -1.242188 8.609375 -0.984375 L 11.59375 0.203125 L 11.21875 1.890625 Z M 10.484375 -24.28125 C 9.679688 -24.414062 9.046875 -24.789062 8.578125 -25.40625 C 8.117188 -26.03125 7.957031 -26.726562 8.09375 -27.5 C 8.21875 -28.238281 8.597656 -28.828125 9.234375 -29.265625 C 9.878906 -29.710938 10.601562 -29.867188 11.40625 -29.734375 C 12.195312 -29.597656 12.8125 -29.21875 13.25 -28.59375 C 13.6875 -27.96875 13.84375 -27.285156 13.71875 -26.546875 C 13.582031 -25.773438 13.207031 -25.171875 12.59375 -24.734375 C 11.976562 -24.296875 11.273438 -24.144531 10.484375 -24.28125 Z M 10.484375 -24.28125 "/></g></g></g><g fill="#a23418" fill-opacity="1"><g transform="translate(208.954848, 58.845072)"><g/></g></g><g fill="#a23418" fill-opacity="1"><g transform="translate(216.753064, 60.157921)"><g><path d="M 30.984375 -19.8125 L 29.859375 -12.25 L 27.828125 -12.59375 L 27.40625 -18.203125 C 27.175781 -18.335938 26.90625 -18.457031 26.59375 -18.5625 C 26.289062 -18.675781 26.019531 -18.765625 25.78125 -18.828125 L 24.15625 -19.296875 C 23.851562 -19.390625 23.445312 -19.507812 22.9375 -19.65625 C 22.425781 -19.800781 21.957031 -19.921875 21.53125 -20.015625 C 21.46875 -19.773438 21.300781 -19.21875 21.03125 -18.34375 C 20.757812 -17.46875 20.453125 -16.441406 20.109375 -15.265625 C 19.773438 -14.097656 19.445312 -12.976562 19.125 -11.90625 L 17.375 -5.84375 C 16.820312 -3.945312 16.359375 -2.296875 15.984375 -0.890625 C 15.617188 0.503906 15.367188 1.425781 15.234375 1.875 L 18.90625 3.53125 L 18.25 5.296875 L 6.78125 1.96875 L 7.203125 0.140625 L 11.140625 0.6875 C 11.273438 0.238281 11.554688 -0.671875 11.984375 -2.046875 C 12.421875 -3.429688 12.914062 -5.070312 13.46875 -6.96875 L 15.21875 -13.03125 C 15.539062 -14.101562 15.867188 -15.222656 16.203125 -16.390625 C 16.546875 -17.566406 16.84375 -18.59375 17.09375 -19.46875 C 17.351562 -20.351562 17.5 -20.921875 17.53125 -21.171875 C 17.15625 -21.316406 16.710938 -21.460938 16.203125 -21.609375 C 15.691406 -21.753906 15.285156 -21.867188 14.984375 -21.953125 L 13.234375 -22.46875 C 12.992188 -22.539062 12.726562 -22.609375 12.4375 -22.671875 C 12.144531 -22.742188 11.863281 -22.785156 11.59375 -22.796875 L 8.265625 -18.21875 L 6.3125 -19.078125 L 9.40625 -26.0625 C 9.726562 -25.9375 10.070312 -25.8125 10.4375 -25.6875 C 10.8125 -25.5625 11.179688 -25.425781 11.546875 -25.28125 C 11.910156 -25.144531 12.269531 -25.023438 12.625 -24.921875 C 12.976562 -24.828125 13.335938 -24.726562 13.703125 -24.625 L 26.5625 -20.890625 C 26.894531 -20.796875 27.25 -20.691406 27.625 -20.578125 C 28 -20.472656 28.367188 -20.382812 28.734375 -20.3125 C 29.109375 -20.238281 29.484375 -20.15625 29.859375 -20.0625 C 30.242188 -19.96875 30.617188 -19.882812 30.984375 -19.8125 Z M 30.984375 -19.8125 "/></g></g></g><g fill="#a23418" fill-opacity="1"><g transform="translate(240.361595, 67.054338)"><g><path d="M 10.640625 4.640625 C 8.960938 3.960938 7.59375 2.972656 6.53125 1.671875 C 5.476562 0.378906 4.835938 -1.117188 4.609375 -2.828125 C 4.378906 -4.535156 4.644531 -6.347656 5.40625 -8.265625 C 6.226562 -10.328125 7.359375 -11.941406 8.796875 -13.109375 C 10.242188 -14.285156 11.8125 -15.015625 13.5 -15.296875 C 15.1875 -15.585938 16.804688 -15.40625 18.359375 -14.75 C 20.609375 -13.820312 22.078125 -12.375 22.765625 -10.40625 C 23.460938 -8.4375 23.269531 -6.09375 22.1875 -3.375 L 21.875 -2.59375 L 8.515625 -7.90625 L 9.28125 -9.8125 L 19.765625 -5.640625 L 19.0625 -5.265625 L 19.4375 -6.171875 C 20.082031 -7.816406 20.21875 -9.242188 19.84375 -10.453125 C 19.46875 -11.660156 18.613281 -12.53125 17.28125 -13.0625 C 16.46875 -13.382812 15.585938 -13.457031 14.640625 -13.28125 C 13.703125 -13.101562 12.804688 -12.617188 11.953125 -11.828125 C 11.109375 -11.046875 10.390625 -9.914062 9.796875 -8.4375 L 9.59375 -7.921875 C 8.644531 -5.535156 8.492188 -3.441406 9.140625 -1.640625 C 9.785156 0.148438 11.035156 1.414062 12.890625 2.15625 C 13.929688 2.570312 14.925781 2.738281 15.875 2.65625 C 16.832031 2.582031 17.867188 2.238281 18.984375 1.625 L 19.6875 3.03125 C 18.28125 4.21875 16.804688 4.929688 15.265625 5.171875 C 13.722656 5.421875 12.179688 5.242188 10.640625 4.640625 Z M 10.640625 4.640625 "/></g></g></g><g fill="#a23418" fill-opacity="1"><g transform="translate(258.753048, 74.335467)"><g><path d="M 10.171875 5.484375 C 8.609375 4.703125 7.347656 3.628906 6.390625 2.265625 C 5.441406 0.910156 4.910156 -0.632812 4.796875 -2.375 C 4.691406 -4.125 5.101562 -5.9375 6.03125 -7.8125 C 6.9375 -9.632812 8.164062 -11.0625 9.71875 -12.09375 C 11.269531 -13.132812 12.972656 -13.734375 14.828125 -13.890625 C 16.679688 -14.046875 18.515625 -13.671875 20.328125 -12.765625 C 21.546875 -12.160156 22.5 -11.492188 23.1875 -10.765625 C 23.875 -10.046875 24.304688 -9.328125 24.484375 -8.609375 C 24.671875 -7.890625 24.628906 -7.25 24.359375 -6.6875 C 24.128906 -6.238281 23.800781 -5.9375 23.375 -5.78125 C 22.945312 -5.632812 22.484375 -5.6875 21.984375 -5.9375 C 21.503906 -6.175781 21.148438 -6.453125 20.921875 -6.765625 C 20.703125 -7.085938 20.46875 -7.625 20.21875 -8.375 L 19.15625 -11.578125 L 20.453125 -10.40625 C 19.460938 -11.207031 18.332031 -11.632812 17.0625 -11.6875 C 15.800781 -11.75 14.550781 -11.382812 13.3125 -10.59375 C 12.082031 -9.800781 11.019531 -8.507812 10.125 -6.71875 C 9.007812 -4.476562 8.722656 -2.472656 9.265625 -0.703125 C 9.804688 1.054688 10.929688 2.359375 12.640625 3.203125 C 13.691406 3.734375 14.695312 3.988281 15.65625 3.96875 C 16.613281 3.957031 17.65625 3.703125 18.78125 3.203125 L 19.453125 4.71875 C 17.953125 5.78125 16.421875 6.367188 14.859375 6.484375 C 13.304688 6.597656 11.742188 6.265625 10.171875 5.484375 Z M 10.171875 5.484375 "/></g></g></g><g fill="#a23418" fill-opacity="1"><g transform="translate(275.381786, 82.38935)"><g><path d="M 1.234375 0.765625 L 2.046875 -0.71875 L 4.890625 0.21875 C 5.117188 -0.0390625 5.425781 -0.460938 5.8125 -1.046875 C 6.195312 -1.628906 6.710938 -2.414062 7.359375 -3.40625 C 8.015625 -4.40625 8.796875 -5.632812 9.703125 -7.09375 L 12.78125 -12.0625 C 13.34375 -12.957031 13.9375 -13.925781 14.5625 -14.96875 C 15.1875 -16.019531 15.789062 -17.03125 16.375 -18 C 16.96875 -18.96875 17.476562 -19.828125 17.90625 -20.578125 C 18.332031 -21.328125 18.613281 -21.804688 18.75 -22.015625 L 16.046875 -24.25 L 16.75 -25.578125 L 23.359375 -23.734375 L 23.78125 -22.703125 C 23.238281 -21.898438 22.695312 -21.09375 22.15625 -20.28125 C 21.625 -19.476562 21.054688 -18.597656 20.453125 -17.640625 C 19.847656 -16.691406 19.171875 -15.632812 18.421875 -14.46875 C 17.679688 -13.300781 16.820312 -11.9375 15.84375 -10.375 L 15.953125 -10.25 C 17.472656 -10.707031 18.828125 -10.878906 20.015625 -10.765625 C 21.203125 -10.660156 22.320312 -10.28125 23.375 -9.625 C 24.351562 -9.019531 25.117188 -8.195312 25.671875 -7.15625 C 26.222656 -6.113281 26.453125 -4.910156 26.359375 -3.546875 C 26.265625 -2.191406 25.722656 -0.722656 24.734375 0.859375 L 22.078125 5.171875 C 21.484375 6.128906 20.976562 7 20.5625 7.78125 C 20.15625 8.5625 19.890625 9.113281 19.765625 9.4375 L 21.84375 11.5625 L 20.875 12.953125 L 12.875 7.984375 L 13.65625 6.484375 L 16.328125 7.3125 C 16.484375 7.125 16.671875 6.875 16.890625 6.5625 C 17.117188 6.257812 17.394531 5.863281 17.71875 5.375 C 18.050781 4.882812 18.441406 4.285156 18.890625 3.578125 L 21.546875 -0.734375 C 22.253906 -1.867188 22.632812 -2.90625 22.6875 -3.84375 C 22.738281 -4.789062 22.554688 -5.617188 22.140625 -6.328125 C 21.734375 -7.035156 21.191406 -7.597656 20.515625 -8.015625 C 19.640625 -8.566406 18.695312 -8.859375 17.6875 -8.890625 C 16.6875 -8.929688 15.660156 -8.722656 14.609375 -8.265625 L 10.90625 -2.3125 C 10.15625 -1.082031 9.550781 -0.0625 9.09375 0.75 C 8.632812 1.5625 8.367188 2.085938 8.296875 2.328125 L 10.359375 4.4375 L 9.390625 5.828125 Z M 1.234375 0.765625 "/></g></g></g><g fill="#a23418" fill-opacity="1"><g transform="translate(38.804898, 115.951968)"><g><path d="M 11.46875 0.28125 C 9.664062 0.28125 8.019531 -0.0664062 6.53125 -0.765625 C 5.039062 -1.460938 3.847656 -2.5 2.953125 -3.875 C 2.066406 -5.257812 1.625 -6.972656 1.625 -9.015625 C 1.625 -10.316406 1.851562 -11.546875 2.3125 -12.703125 C 2.769531 -13.859375 3.4375 -14.875 4.3125 -15.75 C 5.195312 -16.632812 6.273438 -17.328125 7.546875 -17.828125 C 8.816406 -18.328125 10.257812 -18.578125 11.875 -18.578125 C 12.726562 -18.578125 13.628906 -18.492188 14.578125 -18.328125 C 15.535156 -18.160156 16.390625 -17.921875 17.140625 -17.609375 L 17.359375 -13.34375 L 15.96875 -13.21875 L 15.03125 -16.171875 C 14.632812 -16.441406 14.113281 -16.644531 13.46875 -16.78125 C 12.820312 -16.914062 12.195312 -16.984375 11.59375 -16.984375 C 10.039062 -16.984375 8.769531 -16.644531 7.78125 -15.96875 C 6.789062 -15.300781 6.0625 -14.40625 5.59375 -13.28125 C 5.125 -12.15625 4.890625 -10.921875 4.890625 -9.578125 C 4.890625 -7.804688 5.195312 -6.304688 5.8125 -5.078125 C 6.425781 -3.847656 7.253906 -2.921875 8.296875 -2.296875 C 9.347656 -1.679688 10.507812 -1.375 11.78125 -1.375 C 12.425781 -1.375 13.023438 -1.445312 13.578125 -1.59375 C 14.128906 -1.738281 14.65625 -1.957031 15.15625 -2.25 L 16.515625 -5.171875 L 17.953125 -5.015625 L 17.078125 -1.09375 C 16.347656 -0.738281 15.5 -0.421875 14.53125 -0.140625 C 13.570312 0.140625 12.550781 0.28125 11.46875 0.28125 Z M 11.46875 0.28125 "/></g></g></g><g fill="#a23418" fill-opacity="1"><g transform="translate(57.632788, 115.951968)"><g><path d="M 0.09375 0 L 0.03125 -1.1875 L 1.5625 -1.625 L 7.984375 -17.765625 L 9.78125 -18.859375 L 16.578125 -1.625 L 18.140625 -1.1875 L 18.046875 0 L 11.75 0 L 11.6875 -1.1875 L 13.59375 -1.625 L 11.75 -6.234375 L 11.40625 -7.203125 L 8.015625 -15.6875 L 8.734375 -16.078125 L 5.484375 -7.203125 L 5.140625 -6.265625 L 3.484375 -1.625 L 5.390625 -1.1875 L 5.328125 0 Z M 4.453125 -5.765625 L 4.453125 -7.421875 C 4.847656 -7.398438 5.390625 -7.378906 6.078125 -7.359375 C 6.765625 -7.335938 7.609375 -7.328125 8.609375 -7.328125 C 9.578125 -7.328125 10.410156 -7.335938 11.109375 -7.359375 C 11.804688 -7.378906 12.34375 -7.398438 12.71875 -7.421875 L 12.71875 -5.765625 C 12.007812 -5.785156 11.304688 -5.800781 10.609375 -5.8125 C 9.921875 -5.820312 9.253906 -5.828125 8.609375 -5.828125 C 7.984375 -5.828125 7.332031 -5.820312 6.65625 -5.8125 C 5.976562 -5.800781 5.242188 -5.785156 4.453125 -5.765625 Z M 4.453125 -5.765625 "/></g></g></g><g fill="#a23418" fill-opacity="1"><g transform="translate(75.774894, 115.951968)"><g><path d="M 1.625 0 L 1.5625 -1.1875 L 3.453125 -1.65625 C 3.453125 -1.800781 3.457031 -2.023438 3.46875 -2.328125 C 3.476562 -2.628906 3.484375 -2.984375 3.484375 -3.390625 C 3.484375 -3.804688 3.488281 -4.257812 3.5 -4.75 C 3.507812 -5.238281 3.515625 -5.722656 3.515625 -6.203125 L 3.515625 -12.0625 C 3.515625 -13.019531 3.507812 -13.828125 3.5 -14.484375 C 3.488281 -15.140625 3.472656 -15.644531 3.453125 -16 C 3.429688 -16.363281 3.410156 -16.585938 3.390625 -16.671875 L 1.46875 -17.109375 L 1.5625 -18.296875 L 8.390625 -18.296875 C 10.335938 -18.296875 11.828125 -17.914062 12.859375 -17.15625 C 13.890625 -16.394531 14.40625 -15.28125 14.40625 -13.8125 C 14.40625 -12.789062 14.125 -11.878906 13.5625 -11.078125 C 13 -10.273438 12.210938 -9.644531 11.203125 -9.1875 C 10.191406 -8.738281 9.046875 -8.515625 7.765625 -8.515625 L 5.765625 -8.515625 L 5.765625 -9.90625 L 7.546875 -9.90625 C 8.835938 -9.90625 9.835938 -10.226562 10.546875 -10.875 C 11.265625 -11.519531 11.625 -12.414062 11.625 -13.5625 C 11.625 -14.664062 11.3125 -15.5 10.6875 -16.0625 C 10.0625 -16.632812 9.171875 -16.921875 8.015625 -16.921875 L 6.203125 -16.921875 C 6.179688 -16.878906 6.164062 -16.796875 6.15625 -16.671875 C 6.144531 -16.546875 6.140625 -16.335938 6.140625 -16.046875 C 6.140625 -15.765625 6.140625 -15.34375 6.140625 -14.78125 C 6.140625 -14.21875 6.140625 -13.46875 6.140625 -12.53125 L 6.140625 -6.203125 C 6.140625 -5.304688 6.144531 -4.554688 6.15625 -3.953125 C 6.164062 -3.359375 6.1875 -2.878906 6.21875 -2.515625 C 6.25 -2.148438 6.273438 -1.863281 6.296875 -1.65625 L 8.140625 -1.1875 L 8.046875 0 Z M 16.390625 0.3125 C 15.484375 0.3125 14.675781 0.140625 13.96875 -0.203125 C 13.257812 -0.546875 12.578125 -1.125 11.921875 -1.9375 C 11.265625 -2.75 10.539062 -3.828125 9.75 -5.171875 L 7.640625 -9.046875 L 9.96875 -9.578125 L 13.34375 -4.609375 C 13.925781 -3.753906 14.453125 -3.070312 14.921875 -2.5625 C 15.390625 -2.0625 15.847656 -1.6875 16.296875 -1.4375 C 16.753906 -1.1875 17.253906 -1.007812 17.796875 -0.90625 L 17.765625 0.1875 C 17.554688 0.226562 17.332031 0.257812 17.09375 0.28125 C 16.851562 0.300781 16.617188 0.3125 16.390625 0.3125 Z M 16.390625 0.3125 "/></g></g></g><g fill="#a23418" fill-opacity="1"><g transform="translate(93.44942, 115.951968)"><g><path d="M 1.65625 0 L 1.5625 -1.1875 L 3.359375 -1.625 C 3.398438 -1.707031 3.425781 -1.890625 3.4375 -2.171875 C 3.445312 -2.453125 3.457031 -2.898438 3.46875 -3.515625 C 3.476562 -4.140625 3.484375 -4.984375 3.484375 -6.046875 L 3.515625 -12.375 C 3.515625 -13.394531 3.503906 -14.207031 3.484375 -14.8125 C 3.460938 -15.414062 3.445312 -15.859375 3.4375 -16.140625 C 3.425781 -16.429688 3.410156 -16.597656 3.390625 -16.640625 L 1.46875 -17.109375 L 1.5625 -18.296875 L 8.203125 -18.296875 C 10.253906 -18.296875 11.851562 -17.84375 13 -16.9375 C 14.144531 -16.039062 14.71875 -14.738281 14.71875 -13.03125 C 14.71875 -11.863281 14.421875 -10.851562 13.828125 -10 C 13.234375 -9.15625 12.4375 -8.5 11.4375 -8.03125 C 10.4375 -7.5625 9.328125 -7.328125 8.109375 -7.328125 C 7.628906 -7.328125 7.191406 -7.351562 6.796875 -7.40625 C 6.398438 -7.457031 6.023438 -7.515625 5.671875 -7.578125 L 5.671875 -9.265625 C 6.128906 -9.117188 6.539062 -9.015625 6.90625 -8.953125 C 7.269531 -8.890625 7.640625 -8.859375 8.015625 -8.859375 C 9.234375 -8.859375 10.1875 -9.160156 10.875 -9.765625 C 11.5625 -10.378906 11.90625 -11.332031 11.90625 -12.625 C 11.90625 -14.101562 11.519531 -15.1875 10.75 -15.875 C 9.976562 -16.570312 9.015625 -16.921875 7.859375 -16.921875 L 6.203125 -16.921875 C 6.203125 -16.796875 6.195312 -16.507812 6.1875 -16.0625 C 6.175781 -15.625 6.164062 -15.082031 6.15625 -14.4375 C 6.144531 -13.789062 6.140625 -13.101562 6.140625 -12.375 L 6.171875 -6.046875 C 6.171875 -4.984375 6.175781 -4.144531 6.1875 -3.53125 C 6.195312 -2.925781 6.21875 -2.488281 6.25 -2.21875 C 6.28125 -1.945312 6.296875 -1.757812 6.296875 -1.65625 L 8.890625 -1.25 L 8.796875 0 Z M 1.65625 0 "/></g></g></g><g fill="#a23418" fill-opacity="1"><g transform="translate(109.47183, 115.951968)"><g><path d="M 15.15625 0.15625 C 14.550781 0.09375 14.015625 0.0507812 13.546875 0.03125 C 13.078125 0.0078125 12.632812 0 12.21875 0 L 1.53125 0 L 1.4375 -1.1875 L 3.359375 -1.625 C 3.378906 -1.726562 3.398438 -1.96875 3.421875 -2.34375 C 3.441406 -2.71875 3.457031 -3.222656 3.46875 -3.859375 C 3.476562 -4.503906 3.484375 -5.285156 3.484375 -6.203125 L 3.484375 -12.0625 C 3.484375 -13 3.476562 -13.796875 3.46875 -14.453125 C 3.457031 -15.109375 3.441406 -15.617188 3.421875 -15.984375 C 3.398438 -16.359375 3.378906 -16.585938 3.359375 -16.671875 L 1.4375 -17.109375 L 1.53125 -18.296875 L 11.53125 -18.296875 C 11.820312 -18.296875 12.132812 -18.296875 12.46875 -18.296875 C 12.800781 -18.296875 13.148438 -18.3125 13.515625 -18.34375 C 13.878906 -18.375 14.257812 -18.398438 14.65625 -18.421875 L 15.28125 -14.3125 L 13.875 -14.09375 L 12.84375 -16.703125 C 12.675781 -16.742188 12.488281 -16.769531 12.28125 -16.78125 C 12.070312 -16.789062 11.851562 -16.796875 11.625 -16.796875 L 8.109375 -16.796875 C 7.710938 -16.796875 7.363281 -16.789062 7.0625 -16.78125 C 6.757812 -16.769531 6.460938 -16.742188 6.171875 -16.703125 C 6.171875 -16.617188 6.164062 -16.382812 6.15625 -16 C 6.144531 -15.625 6.132812 -15.1875 6.125 -14.6875 C 6.113281 -14.1875 6.109375 -13.6875 6.109375 -13.1875 L 6.109375 -4.765625 C 6.109375 -4.347656 6.113281 -3.925781 6.125 -3.5 C 6.132812 -3.082031 6.144531 -2.710938 6.15625 -2.390625 C 6.164062 -2.066406 6.171875 -1.832031 6.171875 -1.6875 C 6.484375 -1.664062 6.796875 -1.644531 7.109375 -1.625 C 7.421875 -1.601562 7.773438 -1.59375 8.171875 -1.59375 L 11.1875 -1.59375 C 11.644531 -1.59375 12.019531 -1.597656 12.3125 -1.609375 C 12.601562 -1.617188 12.832031 -1.632812 13 -1.65625 C 13.164062 -1.675781 13.300781 -1.695312 13.40625 -1.71875 L 15.03125 -4.671875 L 16.421875 -4.390625 Z M 11.6875 -6.390625 L 11.3125 -8.515625 C 11.207031 -8.554688 11.03125 -8.585938 10.78125 -8.609375 C 10.53125 -8.628906 10.226562 -8.640625 9.875 -8.640625 L 7.515625 -8.640625 C 7.242188 -8.640625 6.945312 -8.628906 6.625 -8.609375 C 6.300781 -8.585938 5.972656 -8.566406 5.640625 -8.546875 L 5.640625 -10.25 C 5.972656 -10.226562 6.300781 -10.210938 6.625 -10.203125 C 6.945312 -10.191406 7.242188 -10.1875 7.515625 -10.1875 L 9.875 -10.1875 C 10.226562 -10.1875 10.53125 -10.191406 10.78125 -10.203125 C 11.03125 -10.210938 11.207031 -10.238281 11.3125 -10.28125 L 11.6875 -12.4375 L 13.03125 -12.4375 L 13.03125 -6.390625 Z M 11.6875 -6.390625 "/></g></g></g><g fill="#a23418" fill-opacity="1"><g transform="translate(126.803464, 115.951968)"><g><path d="M 16.140625 -18.421875 L 16.828125 -13.375 L 15.46875 -13.21875 L 14.15625 -16.734375 C 13.988281 -16.773438 13.796875 -16.800781 13.578125 -16.8125 C 13.359375 -16.820312 13.164062 -16.828125 13 -16.828125 L 11.875 -16.828125 C 11.664062 -16.828125 11.382812 -16.828125 11.03125 -16.828125 C 10.675781 -16.828125 10.351562 -16.816406 10.0625 -16.796875 C 10.0625 -16.628906 10.054688 -16.238281 10.046875 -15.625 C 10.035156 -15.019531 10.03125 -14.3125 10.03125 -13.5 C 10.03125 -12.6875 10.03125 -11.90625 10.03125 -11.15625 L 10.03125 -6.953125 C 10.03125 -5.640625 10.039062 -4.5 10.0625 -3.53125 C 10.082031 -2.570312 10.09375 -1.9375 10.09375 -1.625 L 12.75 -1.25 L 12.65625 0 L 4.703125 0 L 4.640625 -1.25 L 7.265625 -1.625 C 7.265625 -1.9375 7.273438 -2.570312 7.296875 -3.53125 C 7.316406 -4.5 7.328125 -5.640625 7.328125 -6.953125 L 7.328125 -11.15625 C 7.328125 -11.90625 7.328125 -12.6875 7.328125 -13.5 C 7.328125 -14.3125 7.328125 -15.019531 7.328125 -15.625 C 7.328125 -16.238281 7.316406 -16.628906 7.296875 -16.796875 C 7.023438 -16.816406 6.710938 -16.828125 6.359375 -16.828125 C 6.003906 -16.828125 5.722656 -16.828125 5.515625 -16.828125 L 4.296875 -16.828125 C 4.128906 -16.828125 3.945312 -16.820312 3.75 -16.8125 C 3.550781 -16.800781 3.363281 -16.773438 3.1875 -16.734375 L 1.90625 -13.1875 L 0.5 -13.375 L 1.1875 -18.421875 C 1.414062 -18.398438 1.660156 -18.382812 1.921875 -18.375 C 2.179688 -18.363281 2.441406 -18.347656 2.703125 -18.328125 C 2.960938 -18.304688 3.210938 -18.296875 3.453125 -18.296875 C 3.703125 -18.296875 3.953125 -18.296875 4.203125 -18.296875 L 13.125 -18.296875 C 13.351562 -18.296875 13.597656 -18.296875 13.859375 -18.296875 C 14.117188 -18.296875 14.375 -18.304688 14.625 -18.328125 C 14.875 -18.347656 15.128906 -18.363281 15.390625 -18.375 C 15.648438 -18.382812 15.898438 -18.398438 16.140625 -18.421875 Z M 16.140625 -18.421875 "/></g></g></g><g fill="#a23418" fill-opacity="1"><g transform="translate(144.16627, 115.951968)"><g/></g></g><g fill="#a23418" fill-opacity="1"><g transform="translate(150.151295, 115.951968)"><g><path d="M 11.46875 0.28125 C 9.664062 0.28125 8.019531 -0.0664062 6.53125 -0.765625 C 5.039062 -1.460938 3.847656 -2.5 2.953125 -3.875 C 2.066406 -5.257812 1.625 -6.972656 1.625 -9.015625 C 1.625 -10.316406 1.851562 -11.546875 2.3125 -12.703125 C 2.769531 -13.859375 3.4375 -14.875 4.3125 -15.75 C 5.195312 -16.632812 6.273438 -17.328125 7.546875 -17.828125 C 8.816406 -18.328125 10.257812 -18.578125 11.875 -18.578125 C 12.726562 -18.578125 13.628906 -18.492188 14.578125 -18.328125 C 15.535156 -18.160156 16.390625 -17.921875 17.140625 -17.609375 L 17.359375 -13.34375 L 15.96875 -13.21875 L 15.03125 -16.171875 C 14.632812 -16.441406 14.113281 -16.644531 13.46875 -16.78125 C 12.820312 -16.914062 12.195312 -16.984375 11.59375 -16.984375 C 10.039062 -16.984375 8.769531 -16.644531 7.78125 -15.96875 C 6.789062 -15.300781 6.0625 -14.40625 5.59375 -13.28125 C 5.125 -12.15625 4.890625 -10.921875 4.890625 -9.578125 C 4.890625 -7.804688 5.195312 -6.304688 5.8125 -5.078125 C 6.425781 -3.847656 7.253906 -2.921875 8.296875 -2.296875 C 9.347656 -1.679688 10.507812 -1.375 11.78125 -1.375 C 12.425781 -1.375 13.023438 -1.445312 13.578125 -1.59375 C 14.128906 -1.738281 14.65625 -1.957031 15.15625 -2.25 L 16.515625 -5.171875 L 17.953125 -5.015625 L 17.078125 -1.09375 C 16.347656 -0.738281 15.5 -0.421875 14.53125 -0.140625 C 13.570312 0.140625 12.550781 0.28125 11.46875 0.28125 Z M 11.46875 0.28125 "/></g></g></g><g fill="#a23418" fill-opacity="1"><g transform="translate(168.979184, 115.951968)"><g><path d="M 14.5625 0.15625 C 14.269531 0.113281 13.941406 0.0820312 13.578125 0.0625 C 13.210938 0.0390625 12.851562 0.0234375 12.5 0.015625 C 12.144531 0.00390625 11.820312 0 11.53125 0 L 1.5625 0 L 1.5 -1.1875 L 3.390625 -1.625 C 3.410156 -1.726562 3.429688 -1.960938 3.453125 -2.328125 C 3.472656 -2.691406 3.488281 -3.203125 3.5 -3.859375 C 3.507812 -4.523438 3.515625 -5.304688 3.515625 -6.203125 L 3.515625 -12.0625 C 3.515625 -13 3.515625 -13.789062 3.515625 -14.4375 C 3.515625 -15.082031 3.503906 -15.585938 3.484375 -15.953125 C 3.460938 -16.328125 3.429688 -16.554688 3.390625 -16.640625 L 1.5 -17.109375 L 1.5625 -18.296875 L 8.890625 -18.296875 L 8.984375 -17.046875 L 6.390625 -16.640625 C 6.347656 -16.578125 6.316406 -16.375 6.296875 -16.03125 C 6.273438 -15.695312 6.253906 -15.203125 6.234375 -14.546875 C 6.210938 -13.890625 6.203125 -13.0625 6.203125 -12.0625 L 6.203125 -6.203125 C 6.203125 -5.117188 6.210938 -4.175781 6.234375 -3.375 C 6.253906 -2.582031 6.273438 -2.070312 6.296875 -1.84375 C 6.585938 -1.800781 6.882812 -1.773438 7.1875 -1.765625 C 7.488281 -1.753906 7.847656 -1.75 8.265625 -1.75 L 10.59375 -1.75 C 11.070312 -1.75 11.476562 -1.757812 11.8125 -1.78125 C 12.144531 -1.800781 12.476562 -1.832031 12.8125 -1.875 L 14.4375 -4.921875 L 15.84375 -4.609375 Z M 14.5625 0.15625 "/></g></g></g><g fill="#a23418" fill-opacity="1"><g transform="translate(184.908079, 115.951968)"><g><path d="M 15.15625 0.15625 C 14.550781 0.09375 14.015625 0.0507812 13.546875 0.03125 C 13.078125 0.0078125 12.632812 0 12.21875 0 L 1.53125 0 L 1.4375 -1.1875 L 3.359375 -1.625 C 3.378906 -1.726562 3.398438 -1.96875 3.421875 -2.34375 C 3.441406 -2.71875 3.457031 -3.222656 3.46875 -3.859375 C 3.476562 -4.503906 3.484375 -5.285156 3.484375 -6.203125 L 3.484375 -12.0625 C 3.484375 -13 3.476562 -13.796875 3.46875 -14.453125 C 3.457031 -15.109375 3.441406 -15.617188 3.421875 -15.984375 C 3.398438 -16.359375 3.378906 -16.585938 3.359375 -16.671875 L 1.4375 -17.109375 L 1.53125 -18.296875 L 11.53125 -18.296875 C 11.820312 -18.296875 12.132812 -18.296875 12.46875 -18.296875 C 12.800781 -18.296875 13.148438 -18.3125 13.515625 -18.34375 C 13.878906 -18.375 14.257812 -18.398438 14.65625 -18.421875 L 15.28125 -14.3125 L 13.875 -14.09375 L 12.84375 -16.703125 C 12.675781 -16.742188 12.488281 -16.769531 12.28125 -16.78125 C 12.070312 -16.789062 11.851562 -16.796875 11.625 -16.796875 L 8.109375 -16.796875 C 7.710938 -16.796875 7.363281 -16.789062 7.0625 -16.78125 C 6.757812 -16.769531 6.460938 -16.742188 6.171875 -16.703125 C 6.171875 -16.617188 6.164062 -16.382812 6.15625 -16 C 6.144531 -15.625 6.132812 -15.1875 6.125 -14.6875 C 6.113281 -14.1875 6.109375 -13.6875 6.109375 -13.1875 L 6.109375 -4.765625 C 6.109375 -4.347656 6.113281 -3.925781 6.125 -3.5 C 6.132812 -3.082031 6.144531 -2.710938 6.15625 -2.390625 C 6.164062 -2.066406 6.171875 -1.832031 6.171875 -1.6875 C 6.484375 -1.664062 6.796875 -1.644531 7.109375 -1.625 C 7.421875 -1.601562 7.773438 -1.59375 8.171875 -1.59375 L 11.1875 -1.59375 C 11.644531 -1.59375 12.019531 -1.597656 12.3125 -1.609375 C 12.601562 -1.617188 12.832031 -1.632812 13 -1.65625 C 13.164062 -1.675781 13.300781 -1.695312 13.40625 -1.71875 L 15.03125 -4.671875 L 16.421875 -4.390625 Z M 11.6875 -6.390625 L 11.3125 -8.515625 C 11.207031 -8.554688 11.03125 -8.585938 10.78125 -8.609375 C 10.53125 -8.628906 10.226562 -8.640625 9.875 -8.640625 L 7.515625 -8.640625 C 7.242188 -8.640625 6.945312 -8.628906 6.625 -8.609375 C 6.300781 -8.585938 5.972656 -8.566406 5.640625 -8.546875 L 5.640625 -10.25 C 5.972656 -10.226562 6.300781 -10.210938 6.625 -10.203125 C 6.945312 -10.191406 7.242188 -10.1875 7.515625 -10.1875 L 9.875 -10.1875 C 10.226562 -10.1875 10.53125 -10.191406 10.78125 -10.203125 C 11.03125 -10.210938 11.207031 -10.238281 11.3125 -10.28125 L 11.6875 -12.4375 L 13.03125 -12.4375 L 13.03125 -6.390625 Z M 11.6875 -6.390625 "/></g></g></g><g fill="#a23418" fill-opacity="1"><g transform="translate(202.239713, 115.951968)"><g><path d="M 0.09375 0 L 0.03125 -1.1875 L 1.5625 -1.625 L 7.984375 -17.765625 L 9.78125 -18.859375 L 16.578125 -1.625 L 18.140625 -1.1875 L 18.046875 0 L 11.75 0 L 11.6875 -1.1875 L 13.59375 -1.625 L 11.75 -6.234375 L 11.40625 -7.203125 L 8.015625 -15.6875 L 8.734375 -16.078125 L 5.484375 -7.203125 L 5.140625 -6.265625 L 3.484375 -1.625 L 5.390625 -1.1875 L 5.328125 0 Z M 4.453125 -5.765625 L 4.453125 -7.421875 C 4.847656 -7.398438 5.390625 -7.378906 6.078125 -7.359375 C 6.765625 -7.335938 7.609375 -7.328125 8.609375 -7.328125 C 9.578125 -7.328125 10.410156 -7.335938 11.109375 -7.359375 C 11.804688 -7.378906 12.34375 -7.398438 12.71875 -7.421875 L 12.71875 -5.765625 C 12.007812 -5.785156 11.304688 -5.800781 10.609375 -5.8125 C 9.921875 -5.820312 9.253906 -5.828125 8.609375 -5.828125 C 7.984375 -5.828125 7.332031 -5.820312 6.65625 -5.8125 C 5.976562 -5.800781 5.242188 -5.785156 4.453125 -5.765625 Z M 4.453125 -5.765625 "/></g></g></g><g fill="#a23418" fill-opacity="1"><g transform="translate(220.381819, 115.951968)"><g><path d="M 15.75 -4.453125 L 15.75 -11.4375 C 15.75 -12.664062 15.742188 -13.648438 15.734375 -14.390625 C 15.722656 -15.128906 15.703125 -15.675781 15.671875 -16.03125 C 15.640625 -16.394531 15.613281 -16.609375 15.59375 -16.671875 L 13.46875 -17.109375 L 13.5625 -18.296875 L 19.484375 -18.296875 L 19.578125 -17.109375 L 17.640625 -16.671875 C 17.640625 -16.609375 17.625 -16.394531 17.59375 -16.03125 C 17.5625 -15.675781 17.535156 -15.125 17.515625 -14.375 C 17.492188 -13.625 17.484375 -12.644531 17.484375 -11.4375 L 17.484375 -4.015625 C 17.484375 -3.359375 17.484375 -2.6875 17.484375 -2 C 17.484375 -1.3125 17.492188 -0.601562 17.515625 0.125 L 16.109375 0.125 L 4.640625 -15.3125 L 5.328125 -15.3125 L 5.328125 -6.953125 C 5.328125 -5.703125 5.335938 -4.703125 5.359375 -3.953125 C 5.378906 -3.210938 5.40625 -2.660156 5.4375 -2.296875 C 5.46875 -1.929688 5.492188 -1.707031 5.515625 -1.625 L 7.640625 -1.1875 L 7.546875 0 L 1.5625 0 L 1.46875 -1.1875 L 3.359375 -1.625 C 3.398438 -1.707031 3.429688 -1.925781 3.453125 -2.28125 C 3.472656 -2.632812 3.492188 -3.1875 3.515625 -3.9375 C 3.535156 -4.695312 3.546875 -5.703125 3.546875 -6.953125 L 3.546875 -12.28125 C 3.546875 -13.21875 3.535156 -13.988281 3.515625 -14.59375 C 3.492188 -15.195312 3.472656 -15.660156 3.453125 -15.984375 C 3.429688 -16.316406 3.398438 -16.546875 3.359375 -16.671875 L 1.46875 -17.109375 L 1.5625 -18.296875 L 5.828125 -18.296875 L 16.296875 -4.453125 Z M 15.75 -4.453125 "/></g></g></g><g fill="#a23418" fill-opacity="1"><g transform="translate(241.39175, 115.951968)"><g><path d="M 1.53125 0 L 1.46875 -1.1875 L 3.359375 -1.625 C 3.398438 -1.726562 3.425781 -1.96875 3.4375 -2.34375 C 3.445312 -2.71875 3.457031 -3.222656 3.46875 -3.859375 C 3.476562 -4.503906 3.484375 -5.285156 3.484375 -6.203125 L 3.484375 -12.0625 C 3.484375 -13 3.476562 -13.796875 3.46875 -14.453125 C 3.457031 -15.109375 3.445312 -15.625 3.4375 -16 C 3.425781 -16.382812 3.398438 -16.609375 3.359375 -16.671875 L 1.46875 -17.109375 L 1.53125 -18.296875 L 8.171875 -18.296875 L 8.234375 -17.109375 L 6.328125 -16.671875 C 6.285156 -16.609375 6.25 -16.40625 6.21875 -16.0625 C 6.1875 -15.726562 6.164062 -15.238281 6.15625 -14.59375 C 6.144531 -13.945312 6.140625 -13.101562 6.140625 -12.0625 L 6.140625 -6.203125 C 6.140625 -5.203125 6.144531 -4.378906 6.15625 -3.734375 C 6.164062 -3.097656 6.1875 -2.609375 6.21875 -2.265625 C 6.25 -1.921875 6.285156 -1.707031 6.328125 -1.625 L 8.234375 -1.1875 L 8.171875 0 Z M 1.53125 0 "/></g></g></g><g fill="#a23418" fill-opacity="1"><g transform="translate(251.055071, 115.951968)"><g><path d="M 15.75 -4.453125 L 15.75 -11.4375 C 15.75 -12.664062 15.742188 -13.648438 15.734375 -14.390625 C 15.722656 -15.128906 15.703125 -15.675781 15.671875 -16.03125 C 15.640625 -16.394531 15.613281 -16.609375 15.59375 -16.671875 L 13.46875 -17.109375 L 13.5625 -18.296875 L 19.484375 -18.296875 L 19.578125 -17.109375 L 17.640625 -16.671875 C 17.640625 -16.609375 17.625 -16.394531 17.59375 -16.03125 C 17.5625 -15.675781 17.535156 -15.125 17.515625 -14.375 C 17.492188 -13.625 17.484375 -12.644531 17.484375 -11.4375 L 17.484375 -4.015625 C 17.484375 -3.359375 17.484375 -2.6875 17.484375 -2 C 17.484375 -1.3125 17.492188 -0.601562 17.515625 0.125 L 16.109375 0.125 L 4.640625 -15.3125 L 5.328125 -15.3125 L 5.328125 -6.953125 C 5.328125 -5.703125 5.335938 -4.703125 5.359375 -3.953125 C 5.378906 -3.210938 5.40625 -2.660156 5.4375 -2.296875 C 5.46875 -1.929688 5.492188 -1.707031 5.515625 -1.625 L 7.640625 -1.1875 L 7.546875 0 L 1.5625 0 L 1.46875 -1.1875 L 3.359375 -1.625 C 3.398438 -1.707031 3.429688 -1.925781 3.453125 -2.28125 C 3.472656 -2.632812 3.492188 -3.1875 3.515625 -3.9375 C 3.535156 -4.695312 3.546875 -5.703125 3.546875 -6.953125 L 3.546875 -12.28125 C 3.546875 -13.21875 3.535156 -13.988281 3.515625 -14.59375 C 3.492188 -15.195312 3.472656 -15.660156 3.453125 -15.984375 C 3.429688 -16.316406 3.398438 -16.546875 3.359375 -16.671875 L 1.46875 -17.109375 L 1.5625 -18.296875 L 5.828125 -18.296875 L 16.296875 -4.453125 Z M 15.75 -4.453125 "/></g></g></g><g fill="#a23418" fill-opacity="1"><g transform="translate(272.065001, 115.951968)"><g><path d="M 11.65625 0.28125 C 9.789062 0.28125 8.09375 -0.0664062 6.5625 -0.765625 C 5.03125 -1.460938 3.816406 -2.492188 2.921875 -3.859375 C 2.035156 -5.234375 1.59375 -6.941406 1.59375 -8.984375 C 1.59375 -10.285156 1.828125 -11.515625 2.296875 -12.671875 C 2.765625 -13.828125 3.4375 -14.847656 4.3125 -15.734375 C 5.195312 -16.628906 6.28125 -17.328125 7.5625 -17.828125 C 8.84375 -18.328125 10.300781 -18.578125 11.9375 -18.578125 C 12.8125 -18.578125 13.726562 -18.492188 14.6875 -18.328125 C 15.65625 -18.160156 16.492188 -17.921875 17.203125 -17.609375 L 17.390625 -13.53125 L 16.015625 -13.40625 L 15.125 -16.171875 C 14.726562 -16.460938 14.195312 -16.671875 13.53125 -16.796875 C 12.863281 -16.921875 12.25 -16.984375 11.6875 -16.984375 C 10.09375 -16.984375 8.789062 -16.644531 7.78125 -15.96875 C 6.769531 -15.300781 6.023438 -14.40625 5.546875 -13.28125 C 5.066406 -12.15625 4.828125 -10.921875 4.828125 -9.578125 C 4.828125 -7.804688 5.144531 -6.300781 5.78125 -5.0625 C 6.414062 -3.820312 7.269531 -2.890625 8.34375 -2.265625 C 9.425781 -1.648438 10.644531 -1.34375 12 -1.34375 C 12.582031 -1.34375 13.234375 -1.425781 13.953125 -1.59375 C 14.671875 -1.757812 15.3125 -2.050781 15.875 -2.46875 L 15.125 -0.71875 L 15.125 -3.984375 C 15.125 -4.671875 15.113281 -5.273438 15.09375 -5.796875 C 15.070312 -6.316406 15.039062 -6.710938 15 -6.984375 L 12.875 -7.328125 L 12.9375 -8.578125 L 19.015625 -8.578125 L 19.078125 -7.390625 L 17.703125 -7.015625 C 17.703125 -6.910156 17.703125 -6.660156 17.703125 -6.265625 C 17.703125 -5.867188 17.703125 -5.390625 17.703125 -4.828125 C 17.703125 -4.097656 17.710938 -3.484375 17.734375 -2.984375 C 17.753906 -2.492188 17.773438 -1.976562 17.796875 -1.4375 C 16.984375 -0.894531 16.007812 -0.472656 14.875 -0.171875 C 13.75 0.128906 12.675781 0.28125 11.65625 0.28125 Z M 11.65625 0.28125 "/></g></g></g></svg>