<svg xmlns="http://www.w3.org/2000/svg" xmlns:xlink="http://www.w3.org/1999/xlink" width="443" zoomAndPan="magnify" viewBox="0 0 332.25 163.5" height="218" preserveAspectRatio="xMidYMid meet" version="1.0"><defs><g/><clipPath id="43c6881697"><path d="M 167 127.035156 L 171 127.035156 L 171 131 L 167 131 Z M 167 127.035156 " clip-rule="nonzero"/></clipPath></defs><g fill="#a23418" fill-opacity="1"><g transform="translate(33.488252, 95.806183)"><g><path d="M 14.171875 -8.09375 C 11.835938 -6.695312 9.460938 -5.960938 7.046875 -5.890625 C 4.640625 -5.828125 2.382812 -6.390625 0.28125 -7.578125 C -1.8125 -8.773438 -3.566406 -10.546875 -4.984375 -12.890625 C -6.390625 -15.234375 -7.132812 -17.632812 -7.21875 -20.09375 C -7.300781 -22.5625 -6.75 -24.875 -5.5625 -27.03125 C -4.375 -29.1875 -2.628906 -30.957031 -0.328125 -32.34375 C 1.910156 -33.695312 4.191406 -34.378906 6.515625 -34.390625 C 8.835938 -34.410156 11.023438 -33.816406 13.078125 -32.609375 C 15.140625 -31.410156 16.878906 -29.640625 18.296875 -27.296875 C 19.367188 -25.503906 20.050781 -23.679688 20.34375 -21.828125 C 20.632812 -19.984375 20.59375 -18.207031 20.21875 -16.5 C 19.84375 -14.789062 19.171875 -13.242188 18.203125 -11.859375 C 17.242188 -10.472656 16.019531 -9.332031 14.53125 -8.4375 Z M 27.296875 -9.078125 C 26.472656 -8.578125 25.644531 -8.175781 24.8125 -7.875 C 23.976562 -7.582031 23.125 -7.378906 22.25 -7.265625 C 21.382812 -7.160156 20.398438 -7.109375 19.296875 -7.109375 C 18.710938 -7.109375 18.050781 -7.117188 17.3125 -7.140625 C 16.570312 -7.171875 15.800781 -7.203125 15 -7.234375 C 14.195312 -7.265625 13.441406 -7.257812 12.734375 -7.21875 C 12.035156 -7.175781 11.441406 -7.078125 10.953125 -6.921875 L 15.359375 -9.578125 C 16.578125 -10.210938 17.710938 -10.664062 18.765625 -10.9375 C 19.828125 -11.207031 20.953125 -11.347656 22.140625 -11.359375 C 23.316406 -11.410156 24.390625 -11.566406 25.359375 -11.828125 C 26.328125 -12.085938 27.226562 -12.46875 28.0625 -12.96875 C 28.445312 -13.207031 28.835938 -13.488281 29.234375 -13.8125 C 29.628906 -14.144531 29.992188 -14.484375 30.328125 -14.828125 L 31.640625 -13.546875 C 31.203125 -12.703125 30.609375 -11.890625 29.859375 -11.109375 C 29.117188 -10.335938 28.265625 -9.660156 27.296875 -9.078125 Z M 13.25 -10.453125 C 14.71875 -11.335938 15.75 -12.46875 16.34375 -13.84375 C 16.9375 -15.21875 17.109375 -16.765625 16.859375 -18.484375 C 16.617188 -20.210938 15.9375 -22.007812 14.8125 -23.875 C 13.5 -26.039062 12.019531 -27.738281 10.375 -28.96875 C 8.738281 -30.195312 7.0625 -30.921875 5.34375 -31.140625 C 3.625 -31.367188 1.976562 -31.007812 0.40625 -30.0625 C -1.863281 -28.6875 -3.148438 -26.75 -3.453125 -24.25 C -3.753906 -21.757812 -3.03125 -19.0625 -1.28125 -16.15625 C -0.0195312 -14.0625 1.4375 -12.429688 3.09375 -11.265625 C 4.75 -10.097656 6.460938 -9.429688 8.234375 -9.265625 C 10.003906 -9.109375 11.675781 -9.503906 13.25 -10.453125 Z M 13.25 -10.453125 "/></g></g></g><g fill="#a23418" fill-opacity="1"><g transform="translate(59.479587, 80.25013)"><g><path d="M 18.03125 -11.75 L 21.015625 -12.296875 L 21.65625 -10.875 L 16.75 -7.015625 L 15.859375 -7.265625 L 14.6875 -9.984375 L 14.515625 -9.953125 C 14.234375 -8.421875 13.765625 -7.222656 13.109375 -6.359375 C 12.453125 -5.503906 11.628906 -4.847656 10.640625 -4.390625 C 8.734375 -3.535156 6.875 -3.40625 5.0625 -4 C 3.25 -4.601562 1.804688 -6.085938 0.734375 -8.453125 L -0.921875 -12.109375 C -1.265625 -12.878906 -1.628906 -13.640625 -2.015625 -14.390625 C -2.410156 -15.140625 -2.804688 -15.878906 -3.203125 -16.609375 L -6.359375 -15.90625 L -7 -17.3125 L -1.921875 -21.515625 L -0.84375 -21.171875 C -0.507812 -20.265625 -0.132812 -19.304688 0.28125 -18.296875 C 0.707031 -17.296875 1.164062 -16.253906 1.65625 -15.171875 L 3.734375 -10.46875 C 4.535156 -8.707031 5.515625 -7.632812 6.671875 -7.25 C 7.835938 -6.875 9.0625 -6.976562 10.34375 -7.5625 C 11.113281 -7.90625 11.804688 -8.453125 12.421875 -9.203125 C 13.046875 -9.960938 13.429688 -10.960938 13.578125 -12.203125 L 11.328125 -17.140625 C 11.046875 -17.765625 10.757812 -18.375 10.46875 -18.96875 C 10.175781 -19.570312 9.890625 -20.144531 9.609375 -20.6875 C 9.335938 -21.238281 9.082031 -21.703125 8.84375 -22.078125 L 5.484375 -21.265625 L 4.84375 -22.671875 L 10.125 -26.96875 L 11.03125 -26.65625 C 11.375 -25.84375 11.675781 -25.128906 11.9375 -24.515625 C 12.195312 -23.910156 12.460938 -23.300781 12.734375 -22.6875 C 13.015625 -22.070312 13.335938 -21.367188 13.703125 -20.578125 L 15.0625 -17.546875 C 15.769531 -15.984375 16.375 -14.738281 16.875 -13.8125 C 17.375 -12.894531 17.757812 -12.207031 18.03125 -11.75 Z M 18.03125 -11.75 "/></g></g></g><g fill="#a23418" fill-opacity="1"><g transform="translate(81.265267, 70.39981)"><g><path d="M 8.8125 -2.59375 C 7.625 -2.1875 6.488281 -2.0625 5.40625 -2.21875 C 4.332031 -2.382812 3.414062 -2.75 2.65625 -3.3125 C 1.894531 -3.875 1.378906 -4.554688 1.109375 -5.359375 C 0.773438 -6.335938 0.8125 -7.257812 1.21875 -8.125 C 1.632812 -8.988281 2.507812 -9.925781 3.84375 -10.9375 L 9.796875 -15.484375 L 9.03125 -17.75 C 8.78125 -18.488281 8.328125 -19.082031 7.671875 -19.53125 C 7.023438 -19.988281 6.269531 -20.265625 5.40625 -20.359375 C 4.550781 -20.460938 3.671875 -20.359375 2.765625 -20.046875 C 2.023438 -19.796875 1.578125 -19.46875 1.421875 -19.0625 C 1.265625 -18.664062 1.304688 -18.003906 1.546875 -17.078125 L 2.109375 -15.1875 C 1.117188 -14.59375 0.203125 -14.320312 -0.640625 -14.375 C -1.484375 -14.4375 -2.023438 -14.820312 -2.265625 -15.53125 C -2.429688 -16.039062 -2.378906 -16.617188 -2.109375 -17.265625 C -1.835938 -17.910156 -1.425781 -18.582031 -0.875 -19.28125 C -0.320312 -19.976562 0.300781 -20.628906 1 -21.234375 C 1.707031 -21.835938 2.4375 -22.332031 3.1875 -22.71875 C 5.34375 -23.445312 7.273438 -23.472656 8.984375 -22.796875 C 10.703125 -22.117188 11.898438 -20.835938 12.578125 -18.953125 L 15.015625 -11.46875 C 15.191406 -10.9375 15.394531 -10.40625 15.625 -9.875 C 15.863281 -9.34375 16.066406 -8.960938 16.234375 -8.734375 L 19.265625 -9.171875 L 19.734375 -7.78125 L 17.828125 -6.25 C 17.472656 -5.925781 17.132812 -5.660156 16.8125 -5.453125 C 16.488281 -5.242188 16.210938 -5.101562 15.984375 -5.03125 C 15.066406 -4.71875 14.296875 -5.035156 13.671875 -5.984375 L 12.59375 -7.546875 L 13.265625 -7.765625 C 12.660156 -6.335938 12 -5.195312 11.28125 -4.34375 C 10.570312 -3.488281 9.75 -2.90625 8.8125 -2.59375 Z M 9.109375 -5.625 C 9.785156 -5.851562 10.375 -6.222656 10.875 -6.734375 C 11.375 -7.253906 11.78125 -7.925781 12.09375 -8.75 L 10.5 -13.40625 L 6 -10.390625 C 5.351562 -9.972656 4.9375 -9.519531 4.75 -9.03125 C 4.570312 -8.539062 4.582031 -8 4.78125 -7.40625 C 5.039062 -6.664062 5.601562 -6.109375 6.46875 -5.734375 C 7.34375 -5.359375 8.222656 -5.320312 9.109375 -5.625 Z M 9.109375 -5.625 "/></g></g></g><g fill="#a23418" fill-opacity="1"><g transform="translate(101.258008, 63.745834)"><g><path d="M 1.265625 -0.328125 L 0.734375 -1.984375 L 3.5 -3.390625 C 3.476562 -3.742188 3.382812 -4.257812 3.21875 -4.9375 C 3.0625 -5.613281 2.847656 -6.53125 2.578125 -7.6875 C 2.304688 -8.84375 1.953125 -10.25 1.515625 -11.90625 L 0.03125 -17.5625 C -0.257812 -18.675781 -0.570312 -19.832031 -0.90625 -21.03125 C -1.238281 -22.238281 -1.550781 -23.378906 -1.84375 -24.453125 C -2.144531 -25.535156 -2.410156 -26.457031 -2.640625 -27.21875 C -2.878906 -27.988281 -3.03125 -28.492188 -3.09375 -28.734375 L -6.5625 -28.3125 L -7.03125 -29.734375 L -1.046875 -33.28125 L 0 -32.859375 C 0.300781 -31.566406 0.597656 -30.289062 0.890625 -29.03125 C 1.191406 -27.769531 1.535156 -26.367188 1.921875 -24.828125 C 2.316406 -23.285156 2.800781 -21.425781 3.375 -19.25 L 5.234375 -11.96875 C 5.691406 -10.175781 6.132812 -8.570312 6.5625 -7.15625 C 6.988281 -5.75 7.285156 -4.835938 7.453125 -4.421875 L 10.546875 -4.546875 L 10.890625 -2.859375 Z M 1.265625 -0.328125 "/></g></g></g><g fill="#a23418" fill-opacity="1"><g transform="translate(112.657229, 60.735662)"><g><path d="M 1.234375 -0.265625 L 0.78125 -1.9375 L 3.71875 -3.21875 C 3.71875 -3.351562 3.691406 -3.566406 3.640625 -3.859375 C 3.597656 -4.160156 3.519531 -4.648438 3.40625 -5.328125 C 3.300781 -6.015625 3.128906 -6.953125 2.890625 -8.140625 L 2.265625 -11.15625 C 1.992188 -12.4375 1.71875 -13.59375 1.4375 -14.625 C 1.15625 -15.65625 0.910156 -16.4375 0.703125 -16.96875 L -2.46875 -16.953125 L -2.78125 -18.46875 L 3.359375 -21.53125 L 4.1875 -21.03125 C 4.289062 -20.050781 4.410156 -19.101562 4.546875 -18.1875 C 4.691406 -17.269531 4.894531 -16.203125 5.15625 -14.984375 L 6.34375 -9.21875 C 6.632812 -7.8125 6.898438 -6.648438 7.140625 -5.734375 C 7.378906 -4.828125 7.554688 -4.265625 7.671875 -4.046875 L 10.859375 -4.03125 L 11.125 -2.3125 Z M 0.953125 -26.421875 C 0.148438 -26.253906 -0.578125 -26.367188 -1.234375 -26.765625 C -1.890625 -27.171875 -2.300781 -27.757812 -2.46875 -28.53125 C -2.613281 -29.257812 -2.46875 -29.945312 -2.03125 -30.59375 C -1.59375 -31.238281 -0.972656 -31.644531 -0.171875 -31.8125 C 0.617188 -31.976562 1.332031 -31.847656 1.96875 -31.421875 C 2.601562 -31.003906 2.992188 -30.429688 3.140625 -29.703125 C 3.304688 -28.929688 3.179688 -28.234375 2.765625 -27.609375 C 2.347656 -26.984375 1.742188 -26.585938 0.953125 -26.421875 Z M 0.953125 -26.421875 "/></g></g></g><g fill="#a23418" fill-opacity="1"><g transform="translate(124.04097, 58.291232)"><g><path d="M 15.546875 -5.234375 C 15.097656 -4.128906 14.410156 -3.210938 13.484375 -2.484375 C 12.554688 -1.765625 11.535156 -1.320312 10.421875 -1.15625 C 8.578125 -0.882812 6.957031 -1.226562 5.5625 -2.1875 C 4.164062 -3.15625 3.300781 -4.773438 2.96875 -7.046875 L 1.46875 -18.140625 L -1.765625 -17.65625 L -1.90625 -18.625 L 3.25 -24.90625 L 4.140625 -25.046875 L 4.84375 -19.71875 L 6.484375 -8.34375 C 6.710938 -6.738281 7.226562 -5.597656 8.03125 -4.921875 C 8.84375 -4.253906 9.878906 -4.015625 11.140625 -4.203125 C 11.847656 -4.304688 12.484375 -4.550781 13.046875 -4.9375 C 13.609375 -5.320312 14.101562 -5.757812 14.53125 -6.25 Z M 3.328125 -18.40625 L 2.984375 -20.71875 L 11.640625 -22 L 11.984375 -19.6875 Z M 3.328125 -18.40625 "/></g></g></g><g fill="#a23418" fill-opacity="1"><g transform="translate(138.530004, 55.976106)"><g><path d="M 10.234375 -0.53125 L 0.78125 -17.8125 L -1.46875 -18.359375 L -1.4375 -20.0625 L 7.625 -20.6875 L 7.828125 -19.015625 L 4.96875 -18.109375 L 12.296875 -4.359375 Z M 20.78125 -21.609375 L 21.03125 -19.921875 L 18.875 -19.078125 L 12.09375 -1.875 L 8.921875 6.125 C 8.335938 7.613281 7.679688 8.675781 6.953125 9.3125 C 6.222656 9.945312 5.359375 10.300781 4.359375 10.375 C 3.628906 10.425781 3 10.285156 2.46875 9.953125 C 1.945312 9.617188 1.664062 9.15625 1.625 8.5625 C 1.59375 8.09375 1.75 7.640625 2.09375 7.203125 C 2.445312 6.773438 3 6.410156 3.75 6.109375 L 8 4.5 L 6.015625 6.984375 L 10.484375 -3.375 L 10.953125 -4.21875 L 16.015625 -18.875 L 13.09375 -19.375 L 13.078125 -21.0625 Z M 20.78125 -21.609375 "/></g></g></g><g fill="#a23418" fill-opacity="1"><g transform="translate(159.581838, 54.687313)"><g/></g></g><g fill="#a23418" fill-opacity="1"><g transform="translate(167.316214, 54.125268)"><g><path d="M 19.0625 1.46875 L 19.109375 -0.328125 L 22.015625 -0.765625 C 22.085938 -0.878906 22.164062 -1.1875 22.25 -1.6875 C 22.332031 -2.195312 22.421875 -2.929688 22.515625 -3.890625 C 22.609375 -4.859375 22.710938 -6.085938 22.828125 -7.578125 L 23.5 -16.34375 C 23.613281 -17.894531 23.695312 -19.15625 23.75 -20.125 C 23.8125 -21.101562 23.835938 -21.84375 23.828125 -22.34375 C 23.828125 -22.851562 23.800781 -23.160156 23.75 -23.265625 L 20.9375 -24.140625 L 21.15625 -25.90625 L 31.1875 -25.140625 L 31.203125 -23.34375 L 28.265625 -22.921875 C 28.191406 -22.828125 28.117188 -22.53125 28.046875 -22.03125 C 27.972656 -21.53125 27.882812 -20.796875 27.78125 -19.828125 C 27.675781 -18.859375 27.566406 -17.597656 27.453125 -16.046875 L 26.78125 -7.28125 C 26.664062 -5.789062 26.582031 -4.5625 26.53125 -3.59375 C 26.488281 -2.625 26.460938 -1.882812 26.453125 -1.375 C 26.453125 -0.863281 26.476562 -0.546875 26.53125 -0.421875 L 29.375 0.46875 L 29.09375 2.234375 Z M 2.296875 0.171875 L 2.296875 -1.609375 L 5.21875 -2.046875 C 5.289062 -2.191406 5.351562 -2.539062 5.40625 -3.09375 C 5.46875 -3.65625 5.546875 -4.414062 5.640625 -5.375 C 5.734375 -6.34375 5.832031 -7.507812 5.9375 -8.875 L 6.609375 -17.640625 C 6.710938 -19.035156 6.789062 -20.226562 6.84375 -21.21875 C 6.90625 -22.207031 6.953125 -22.984375 6.984375 -23.546875 C 7.015625 -24.117188 7.003906 -24.453125 6.953125 -24.546875 L 4.125 -25.421875 L 4.390625 -27.203125 L 14.3125 -26.4375 L 14.28125 -24.65625 L 11.390625 -24.203125 C 11.316406 -24.117188 11.234375 -23.828125 11.140625 -23.328125 C 11.054688 -22.828125 10.96875 -22.09375 10.875 -21.125 C 10.789062 -20.15625 10.691406 -18.894531 10.578125 -17.34375 L 9.90625 -8.578125 C 9.789062 -7.085938 9.703125 -5.859375 9.640625 -4.890625 C 9.578125 -3.921875 9.550781 -3.179688 9.5625 -2.671875 C 9.570312 -2.160156 9.601562 -1.835938 9.65625 -1.703125 L 12.453125 -0.84375 L 12.21875 0.9375 Z M 9.59375 -12.03125 L 9.8125 -14.78125 C 10.40625 -14.695312 11.304688 -14.59375 12.515625 -14.46875 C 13.722656 -14.34375 15.179688 -14.21875 16.890625 -14.09375 C 18.597656 -13.957031 20.035156 -13.859375 21.203125 -13.796875 C 22.378906 -13.742188 23.25 -13.710938 23.8125 -13.703125 L 23.59375 -10.953125 C 22.914062 -11.097656 22.03125 -11.21875 20.9375 -11.3125 C 19.851562 -11.414062 18.441406 -11.535156 16.703125 -11.671875 C 14.898438 -11.804688 13.4375 -11.910156 12.3125 -11.984375 C 11.195312 -12.054688 10.289062 -12.070312 9.59375 -12.03125 Z M 9.59375 -12.03125 "/></g></g></g><g fill="#a23418" fill-opacity="1"><g transform="translate(197.234041, 56.78503)"><g><path d="M 1.25 0.203125 L 1.4375 -1.515625 L 4.625 -1.640625 C 4.675781 -1.765625 4.734375 -1.972656 4.796875 -2.265625 C 4.867188 -2.566406 4.976562 -3.050781 5.125 -3.71875 C 5.269531 -4.394531 5.441406 -5.332031 5.640625 -6.53125 L 6.15625 -9.578125 C 6.375 -10.867188 6.539062 -12.039062 6.65625 -13.09375 C 6.769531 -14.15625 6.828125 -14.972656 6.828125 -15.546875 L 3.84375 -16.703125 L 4.109375 -18.21875 L 10.9375 -18.84375 L 11.53125 -18.078125 C 11.28125 -17.140625 11.050781 -16.210938 10.84375 -15.296875 C 10.644531 -14.378906 10.441406 -13.304688 10.234375 -12.078125 L 9.265625 -6.265625 C 9.023438 -4.847656 8.847656 -3.675781 8.734375 -2.75 C 8.628906 -1.832031 8.585938 -1.242188 8.609375 -0.984375 L 11.578125 0.1875 L 11.203125 1.875 Z M 10.46875 -24.265625 C 9.664062 -24.398438 9.03125 -24.773438 8.5625 -25.390625 C 8.101562 -26.015625 7.941406 -26.710938 8.078125 -27.484375 C 8.203125 -28.222656 8.582031 -28.8125 9.21875 -29.25 C 9.863281 -29.6875 10.585938 -29.835938 11.390625 -29.703125 C 12.191406 -29.566406 12.8125 -29.1875 13.25 -28.5625 C 13.6875 -27.945312 13.84375 -27.269531 13.71875 -26.53125 C 13.582031 -25.757812 13.207031 -25.15625 12.59375 -24.71875 C 11.976562 -24.28125 11.269531 -24.128906 10.46875 -24.265625 Z M 10.46875 -24.265625 "/></g></g></g><g fill="#a23418" fill-opacity="1"><g transform="translate(208.920656, 58.773334)"><g/></g></g><g fill="#a23418" fill-opacity="1"><g transform="translate(216.712646, 60.085135)"><g><path d="M 30.953125 -19.796875 L 29.828125 -12.234375 L 27.796875 -12.59375 L 27.375 -18.203125 C 27.15625 -18.328125 26.890625 -18.441406 26.578125 -18.546875 C 26.273438 -18.660156 26.003906 -18.753906 25.765625 -18.828125 L 24.140625 -19.296875 C 23.835938 -19.378906 23.429688 -19.492188 22.921875 -19.640625 C 22.421875 -19.785156 21.957031 -19.90625 21.53125 -20 C 21.457031 -19.757812 21.285156 -19.203125 21.015625 -18.328125 C 20.742188 -17.453125 20.4375 -16.425781 20.09375 -15.25 C 19.757812 -14.082031 19.4375 -12.96875 19.125 -11.90625 L 17.375 -5.828125 C 16.820312 -3.941406 16.359375 -2.296875 15.984375 -0.890625 C 15.617188 0.503906 15.367188 1.425781 15.234375 1.875 L 18.890625 3.53125 L 18.234375 5.28125 L 6.78125 1.96875 L 7.203125 0.140625 L 11.125 0.6875 C 11.257812 0.238281 11.539062 -0.671875 11.96875 -2.046875 C 12.40625 -3.429688 12.898438 -5.066406 13.453125 -6.953125 L 15.203125 -13.03125 C 15.515625 -14.09375 15.835938 -15.207031 16.171875 -16.375 C 16.515625 -17.550781 16.8125 -18.578125 17.0625 -19.453125 C 17.320312 -20.335938 17.472656 -20.90625 17.515625 -21.15625 C 17.140625 -21.300781 16.695312 -21.445312 16.1875 -21.59375 C 15.6875 -21.738281 15.285156 -21.851562 14.984375 -21.9375 L 13.234375 -22.453125 C 12.992188 -22.523438 12.726562 -22.59375 12.4375 -22.65625 C 12.144531 -22.726562 11.851562 -22.769531 11.5625 -22.78125 L 8.25 -18.203125 L 6.296875 -19.0625 L 9.390625 -26.046875 C 9.722656 -25.921875 10.070312 -25.796875 10.4375 -25.671875 C 10.800781 -25.546875 11.164062 -25.414062 11.53125 -25.28125 C 11.894531 -25.15625 12.253906 -25.039062 12.609375 -24.9375 C 12.972656 -24.832031 13.335938 -24.726562 13.703125 -24.625 L 26.546875 -20.890625 C 26.878906 -20.796875 27.234375 -20.691406 27.609375 -20.578125 C 27.984375 -20.472656 28.351562 -20.378906 28.71875 -20.296875 C 29.09375 -20.222656 29.46875 -20.140625 29.84375 -20.046875 C 30.226562 -19.953125 30.597656 -19.867188 30.953125 -19.796875 Z M 30.953125 -19.796875 "/></g></g></g><g fill="#a23418" fill-opacity="1"><g transform="translate(240.30233, 66.976046)"><g><path d="M 10.625 4.625 C 8.957031 3.957031 7.59375 2.972656 6.53125 1.671875 C 5.46875 0.378906 4.820312 -1.117188 4.59375 -2.828125 C 4.375 -4.535156 4.644531 -6.347656 5.40625 -8.265625 C 6.21875 -10.316406 7.34375 -11.929688 8.78125 -13.109375 C 10.21875 -14.285156 11.78125 -15.015625 13.46875 -15.296875 C 15.164062 -15.578125 16.785156 -15.394531 18.328125 -14.75 C 20.585938 -13.8125 22.0625 -12.359375 22.75 -10.390625 C 23.445312 -8.429688 23.25 -6.085938 22.15625 -3.359375 L 21.859375 -2.578125 L 8.515625 -7.890625 L 9.265625 -9.796875 L 19.75 -5.625 L 19.0625 -5.25 L 19.421875 -6.171875 C 20.078125 -7.816406 20.210938 -9.242188 19.828125 -10.453125 C 19.453125 -11.660156 18.597656 -12.53125 17.265625 -13.0625 C 16.460938 -13.375 15.585938 -13.441406 14.640625 -13.265625 C 13.703125 -13.097656 12.804688 -12.617188 11.953125 -11.828125 C 11.097656 -11.035156 10.378906 -9.898438 9.796875 -8.421875 L 9.59375 -7.90625 C 8.644531 -5.53125 8.492188 -3.441406 9.140625 -1.640625 C 9.785156 0.148438 11.03125 1.414062 12.875 2.15625 C 13.925781 2.570312 14.925781 2.742188 15.875 2.671875 C 16.832031 2.597656 17.863281 2.242188 18.96875 1.609375 L 19.671875 3.046875 C 18.265625 4.222656 16.789062 4.929688 15.25 5.171875 C 13.707031 5.421875 12.164062 5.238281 10.625 4.625 Z M 10.625 4.625 "/></g></g></g><g fill="#a23418" fill-opacity="1"><g transform="translate(258.679101, 74.251363)"><g><path d="M 10.15625 5.46875 C 8.601562 4.695312 7.347656 3.628906 6.390625 2.265625 C 5.441406 0.898438 4.910156 -0.648438 4.796875 -2.390625 C 4.691406 -4.128906 5.101562 -5.9375 6.03125 -7.8125 C 6.9375 -9.625 8.160156 -11.050781 9.703125 -12.09375 C 11.253906 -13.132812 12.957031 -13.726562 14.8125 -13.875 C 16.664062 -14.03125 18.492188 -13.660156 20.296875 -12.765625 C 21.523438 -12.148438 22.484375 -11.476562 23.171875 -10.75 C 23.859375 -10.03125 24.289062 -9.3125 24.46875 -8.59375 C 24.65625 -7.882812 24.613281 -7.253906 24.34375 -6.703125 C 24.113281 -6.253906 23.785156 -5.953125 23.359375 -5.796875 C 22.929688 -5.640625 22.472656 -5.6875 21.984375 -5.9375 C 21.503906 -6.175781 21.148438 -6.453125 20.921875 -6.765625 C 20.703125 -7.085938 20.46875 -7.625 20.21875 -8.375 L 19.140625 -11.5625 L 20.4375 -10.390625 C 19.445312 -11.203125 18.320312 -11.632812 17.0625 -11.6875 C 15.800781 -11.738281 14.550781 -11.367188 13.3125 -10.578125 C 12.082031 -9.785156 11.019531 -8.492188 10.125 -6.703125 C 9.007812 -4.472656 8.722656 -2.472656 9.265625 -0.703125 C 9.804688 1.054688 10.925781 2.359375 12.625 3.203125 C 13.6875 3.734375 14.695312 3.992188 15.65625 3.984375 C 16.613281 3.972656 17.65625 3.707031 18.78125 3.1875 L 19.4375 4.71875 C 17.9375 5.78125 16.40625 6.363281 14.84375 6.46875 C 13.289062 6.582031 11.726562 6.25 10.15625 5.46875 Z M 10.15625 5.46875 "/></g></g></g><g fill="#a23418" fill-opacity="1"><g transform="translate(275.294563, 82.298816)"><g><path d="M 1.234375 0.765625 L 2.046875 -0.71875 L 4.875 0.203125 C 5.101562 -0.046875 5.410156 -0.460938 5.796875 -1.046875 C 6.179688 -1.640625 6.695312 -2.429688 7.34375 -3.421875 C 8 -4.421875 8.773438 -5.644531 9.671875 -7.09375 L 12.765625 -12.078125 C 13.316406 -12.960938 13.90625 -13.925781 14.53125 -14.96875 C 15.164062 -16.007812 15.773438 -17.019531 16.359375 -18 C 16.953125 -18.976562 17.460938 -19.835938 17.890625 -20.578125 C 18.316406 -21.328125 18.59375 -21.804688 18.71875 -22.015625 L 16.03125 -24.25 L 16.75 -25.5625 L 23.34375 -23.703125 L 23.765625 -22.671875 C 23.222656 -21.878906 22.679688 -21.078125 22.140625 -20.265625 C 21.609375 -19.460938 21.039062 -18.582031 20.4375 -17.625 C 19.832031 -16.675781 19.15625 -15.617188 18.40625 -14.453125 C 17.664062 -13.285156 16.8125 -11.921875 15.84375 -10.359375 L 15.9375 -10.234375 C 17.457031 -10.691406 18.804688 -10.863281 19.984375 -10.75 C 21.171875 -10.644531 22.296875 -10.265625 23.359375 -9.609375 C 24.335938 -9.003906 25.097656 -8.179688 25.640625 -7.140625 C 26.191406 -6.097656 26.421875 -4.898438 26.328125 -3.546875 C 26.242188 -2.203125 25.707031 -0.734375 24.71875 0.859375 L 22.0625 5.15625 C 21.46875 6.113281 20.960938 6.984375 20.546875 7.765625 C 20.140625 8.554688 19.875 9.113281 19.75 9.4375 L 21.828125 11.546875 L 20.859375 12.9375 L 12.875 7.984375 L 13.65625 6.484375 L 16.328125 7.3125 C 16.472656 7.113281 16.65625 6.863281 16.875 6.5625 C 17.101562 6.269531 17.378906 5.875 17.703125 5.375 C 18.035156 4.875 18.425781 4.269531 18.875 3.5625 L 21.53125 -0.734375 C 22.238281 -1.867188 22.617188 -2.90625 22.671875 -3.84375 C 22.734375 -4.789062 22.554688 -5.613281 22.140625 -6.3125 C 21.734375 -7.019531 21.1875 -7.585938 20.5 -8.015625 C 19.625 -8.554688 18.6875 -8.847656 17.6875 -8.890625 C 16.6875 -8.929688 15.660156 -8.722656 14.609375 -8.265625 L 10.90625 -2.3125 C 10.15625 -1.082031 9.550781 -0.0625 9.09375 0.75 C 8.632812 1.5625 8.367188 2.085938 8.296875 2.328125 L 10.34375 4.421875 L 9.375 5.8125 Z M 1.234375 0.765625 "/></g></g></g><g fill="#a23418" fill-opacity="1"><g transform="translate(38.908063, 115.83464)"><g><path d="M 11.453125 0.28125 C 9.648438 0.28125 8.003906 -0.0664062 6.515625 -0.765625 C 5.035156 -1.460938 3.847656 -2.5 2.953125 -3.875 C 2.066406 -5.257812 1.625 -6.96875 1.625 -9 C 1.625 -10.3125 1.847656 -11.539062 2.296875 -12.6875 C 2.753906 -13.84375 3.425781 -14.859375 4.3125 -15.734375 C 5.195312 -16.617188 6.269531 -17.3125 7.53125 -17.8125 C 8.800781 -18.3125 10.242188 -18.5625 11.859375 -18.5625 C 12.710938 -18.5625 13.613281 -18.476562 14.5625 -18.3125 C 15.519531 -18.144531 16.375 -17.90625 17.125 -17.59375 L 17.34375 -13.328125 L 15.953125 -13.203125 L 15.015625 -16.15625 C 14.617188 -16.425781 14.097656 -16.628906 13.453125 -16.765625 C 12.804688 -16.898438 12.179688 -16.96875 11.578125 -16.96875 C 10.023438 -16.96875 8.753906 -16.628906 7.765625 -15.953125 C 6.785156 -15.285156 6.0625 -14.390625 5.59375 -13.265625 C 5.125 -12.140625 4.890625 -10.90625 4.890625 -9.5625 C 4.890625 -7.789062 5.195312 -6.289062 5.8125 -5.0625 C 6.425781 -3.84375 7.253906 -2.921875 8.296875 -2.296875 C 9.347656 -1.679688 10.503906 -1.375 11.765625 -1.375 C 12.410156 -1.375 13.007812 -1.445312 13.5625 -1.59375 C 14.113281 -1.738281 14.640625 -1.957031 15.140625 -2.25 L 16.5 -5.171875 L 17.9375 -5.015625 L 17.0625 -1.09375 C 16.332031 -0.738281 15.484375 -0.421875 14.515625 -0.140625 C 13.554688 0.140625 12.535156 0.28125 11.453125 0.28125 Z M 11.453125 0.28125 "/></g></g></g><g fill="#a23418" fill-opacity="1"><g transform="translate(57.720922, 115.83464)"><g><path d="M 0.09375 0 L 0.03125 -1.1875 L 1.5625 -1.625 L 7.96875 -17.75 L 9.78125 -18.84375 L 16.5625 -1.625 L 18.125 -1.1875 L 18.03125 0 L 11.734375 0 L 11.671875 -1.1875 L 13.578125 -1.625 L 11.734375 -6.234375 L 11.390625 -7.1875 L 8 -15.671875 L 8.71875 -16.0625 L 5.484375 -7.1875 L 5.140625 -6.265625 L 3.484375 -1.625 L 5.390625 -1.1875 L 5.328125 0 Z M 4.453125 -5.765625 L 4.453125 -7.40625 C 4.847656 -7.382812 5.382812 -7.363281 6.0625 -7.34375 C 6.75 -7.320312 7.59375 -7.3125 8.59375 -7.3125 C 9.570312 -7.3125 10.40625 -7.320312 11.09375 -7.34375 C 11.789062 -7.363281 12.328125 -7.382812 12.703125 -7.40625 L 12.703125 -5.765625 C 11.992188 -5.785156 11.289062 -5.800781 10.59375 -5.8125 C 9.90625 -5.820312 9.238281 -5.828125 8.59375 -5.828125 C 7.96875 -5.828125 7.316406 -5.820312 6.640625 -5.8125 C 5.972656 -5.800781 5.242188 -5.785156 4.453125 -5.765625 Z M 4.453125 -5.765625 "/></g></g></g><g fill="#a23418" fill-opacity="1"><g transform="translate(75.848545, 115.83464)"><g><path d="M 1.625 0 L 1.5625 -1.1875 L 3.453125 -1.65625 C 3.453125 -1.800781 3.457031 -2.019531 3.46875 -2.3125 C 3.476562 -2.613281 3.484375 -2.972656 3.484375 -3.390625 C 3.484375 -3.804688 3.488281 -4.257812 3.5 -4.75 C 3.507812 -5.238281 3.515625 -5.722656 3.515625 -6.203125 L 3.515625 -12.046875 C 3.515625 -13.003906 3.507812 -13.8125 3.5 -14.46875 C 3.488281 -15.125 3.472656 -15.628906 3.453125 -15.984375 C 3.429688 -16.347656 3.410156 -16.570312 3.390625 -16.65625 L 1.46875 -17.09375 L 1.5625 -18.28125 L 8.375 -18.28125 C 10.332031 -18.28125 11.820312 -17.898438 12.84375 -17.140625 C 13.875 -16.378906 14.390625 -15.265625 14.390625 -13.796875 C 14.390625 -12.773438 14.109375 -11.863281 13.546875 -11.0625 C 12.984375 -10.269531 12.195312 -9.644531 11.1875 -9.1875 C 10.1875 -8.726562 9.039062 -8.5 7.75 -8.5 L 5.765625 -8.5 L 5.765625 -9.90625 L 7.53125 -9.90625 C 8.820312 -9.90625 9.820312 -10.222656 10.53125 -10.859375 C 11.25 -11.503906 11.609375 -12.398438 11.609375 -13.546875 C 11.609375 -14.648438 11.296875 -15.484375 10.671875 -16.046875 C 10.054688 -16.617188 9.164062 -16.90625 8 -16.90625 L 6.203125 -16.90625 C 6.179688 -16.863281 6.164062 -16.78125 6.15625 -16.65625 C 6.144531 -16.53125 6.140625 -16.320312 6.140625 -16.03125 C 6.140625 -15.75 6.140625 -15.328125 6.140625 -14.765625 C 6.140625 -14.203125 6.140625 -13.453125 6.140625 -12.515625 L 6.140625 -6.203125 C 6.140625 -5.304688 6.144531 -4.554688 6.15625 -3.953125 C 6.164062 -3.347656 6.1875 -2.863281 6.21875 -2.5 C 6.25 -2.144531 6.273438 -1.863281 6.296875 -1.65625 L 8.125 -1.1875 L 8.03125 0 Z M 16.375 0.3125 C 15.46875 0.3125 14.660156 0.140625 13.953125 -0.203125 C 13.242188 -0.546875 12.5625 -1.117188 11.90625 -1.921875 C 11.257812 -2.734375 10.539062 -3.816406 9.75 -5.171875 L 7.625 -9.03125 L 9.96875 -9.5625 L 13.328125 -4.609375 C 13.910156 -3.753906 14.4375 -3.070312 14.90625 -2.5625 C 15.375 -2.0625 15.832031 -1.6875 16.28125 -1.4375 C 16.738281 -1.1875 17.238281 -1.007812 17.78125 -0.90625 L 17.75 0.1875 C 17.539062 0.226562 17.316406 0.257812 17.078125 0.28125 C 16.835938 0.300781 16.601562 0.3125 16.375 0.3125 Z M 16.375 0.3125 "/></g></g></g><g fill="#a23418" fill-opacity="1"><g transform="translate(93.508961, 115.83464)"><g><path d="M 1.65625 0 L 1.5625 -1.1875 L 3.359375 -1.625 C 3.398438 -1.707031 3.425781 -1.882812 3.4375 -2.15625 C 3.445312 -2.4375 3.457031 -2.890625 3.46875 -3.515625 C 3.476562 -4.140625 3.484375 -4.984375 3.484375 -6.046875 L 3.515625 -12.359375 C 3.515625 -13.378906 3.503906 -14.191406 3.484375 -14.796875 C 3.460938 -15.398438 3.445312 -15.84375 3.4375 -16.125 C 3.425781 -16.414062 3.410156 -16.582031 3.390625 -16.625 L 1.46875 -17.09375 L 1.5625 -18.28125 L 8.1875 -18.28125 C 10.25 -18.28125 11.847656 -17.828125 12.984375 -16.921875 C 14.128906 -16.023438 14.703125 -14.722656 14.703125 -13.015625 C 14.703125 -11.859375 14.40625 -10.851562 13.8125 -10 C 13.21875 -9.144531 12.421875 -8.484375 11.421875 -8.015625 C 10.429688 -7.546875 9.320312 -7.3125 8.09375 -7.3125 C 7.613281 -7.3125 7.175781 -7.335938 6.78125 -7.390625 C 6.394531 -7.441406 6.023438 -7.5 5.671875 -7.5625 L 5.671875 -9.25 C 6.128906 -9.101562 6.535156 -9 6.890625 -8.9375 C 7.253906 -8.875 7.625 -8.84375 8 -8.84375 C 9.226562 -8.84375 10.179688 -9.148438 10.859375 -9.765625 C 11.546875 -10.378906 11.890625 -11.328125 11.890625 -12.609375 C 11.890625 -14.085938 11.503906 -15.171875 10.734375 -15.859375 C 9.972656 -16.554688 9.007812 -16.90625 7.84375 -16.90625 L 6.203125 -16.90625 C 6.203125 -16.78125 6.195312 -16.492188 6.1875 -16.046875 C 6.175781 -15.609375 6.164062 -15.066406 6.15625 -14.421875 C 6.144531 -13.773438 6.140625 -13.085938 6.140625 -12.359375 L 6.171875 -6.046875 C 6.171875 -4.984375 6.175781 -4.144531 6.1875 -3.53125 C 6.195312 -2.914062 6.21875 -2.472656 6.25 -2.203125 C 6.28125 -1.941406 6.296875 -1.757812 6.296875 -1.65625 L 8.875 -1.25 L 8.78125 0 Z M 1.65625 0 "/></g></g></g><g fill="#a23418" fill-opacity="1"><g transform="translate(109.51858, 115.83464)"><g><path d="M 15.140625 0.15625 C 14.535156 0.09375 14 0.0507812 13.53125 0.03125 C 13.0625 0.0078125 12.617188 0 12.203125 0 L 1.53125 0 L 1.4375 -1.1875 L 3.359375 -1.625 C 3.378906 -1.726562 3.398438 -1.960938 3.421875 -2.328125 C 3.441406 -2.703125 3.457031 -3.210938 3.46875 -3.859375 C 3.476562 -4.503906 3.484375 -5.285156 3.484375 -6.203125 L 3.484375 -12.046875 C 3.484375 -12.984375 3.476562 -13.78125 3.46875 -14.4375 C 3.457031 -15.09375 3.441406 -15.601562 3.421875 -15.96875 C 3.398438 -16.34375 3.378906 -16.570312 3.359375 -16.65625 L 1.4375 -17.09375 L 1.53125 -18.28125 L 11.515625 -18.28125 C 11.804688 -18.28125 12.117188 -18.28125 12.453125 -18.28125 C 12.785156 -18.28125 13.132812 -18.296875 13.5 -18.328125 C 13.863281 -18.359375 14.242188 -18.382812 14.640625 -18.40625 L 15.265625 -14.296875 L 13.859375 -14.078125 L 12.828125 -16.6875 C 12.660156 -16.726562 12.472656 -16.753906 12.265625 -16.765625 C 12.054688 -16.773438 11.835938 -16.78125 11.609375 -16.78125 L 8.09375 -16.78125 C 7.695312 -16.78125 7.347656 -16.773438 7.046875 -16.765625 C 6.753906 -16.753906 6.460938 -16.726562 6.171875 -16.6875 C 6.171875 -16.601562 6.164062 -16.367188 6.15625 -15.984375 C 6.144531 -15.609375 6.132812 -15.171875 6.125 -14.671875 C 6.113281 -14.171875 6.109375 -13.671875 6.109375 -13.171875 L 6.109375 -4.765625 C 6.109375 -4.347656 6.113281 -3.925781 6.125 -3.5 C 6.132812 -3.070312 6.144531 -2.695312 6.15625 -2.375 C 6.164062 -2.0625 6.171875 -1.832031 6.171875 -1.6875 C 6.484375 -1.664062 6.789062 -1.644531 7.09375 -1.625 C 7.40625 -1.601562 7.757812 -1.59375 8.15625 -1.59375 L 11.1875 -1.59375 C 11.632812 -1.59375 12.003906 -1.597656 12.296875 -1.609375 C 12.585938 -1.617188 12.816406 -1.632812 12.984375 -1.65625 C 13.148438 -1.675781 13.285156 -1.695312 13.390625 -1.71875 L 15.015625 -4.671875 L 16.40625 -4.390625 Z M 11.671875 -6.390625 L 11.3125 -8.5 C 11.207031 -8.539062 11.03125 -8.570312 10.78125 -8.59375 C 10.53125 -8.613281 10.226562 -8.625 9.875 -8.625 L 7.5 -8.625 C 7.226562 -8.625 6.929688 -8.613281 6.609375 -8.59375 C 6.296875 -8.570312 5.972656 -8.550781 5.640625 -8.53125 L 5.640625 -10.25 C 5.972656 -10.226562 6.296875 -10.210938 6.609375 -10.203125 C 6.929688 -10.191406 7.226562 -10.1875 7.5 -10.1875 L 9.875 -10.1875 C 10.226562 -10.1875 10.53125 -10.191406 10.78125 -10.203125 C 11.03125 -10.210938 11.207031 -10.238281 11.3125 -10.28125 L 11.671875 -12.421875 L 13.015625 -12.421875 L 13.015625 -6.390625 Z M 11.671875 -6.390625 "/></g></g></g><g fill="#a23418" fill-opacity="1"><g transform="translate(126.836378, 115.83464)"><g><path d="M 16.125 -18.40625 L 16.8125 -13.359375 L 15.453125 -13.203125 L 14.140625 -16.71875 C 13.972656 -16.757812 13.78125 -16.785156 13.5625 -16.796875 C 13.34375 -16.804688 13.148438 -16.8125 12.984375 -16.8125 L 11.859375 -16.8125 C 11.648438 -16.8125 11.367188 -16.8125 11.015625 -16.8125 C 10.671875 -16.8125 10.351562 -16.800781 10.0625 -16.78125 C 10.0625 -16.613281 10.054688 -16.222656 10.046875 -15.609375 C 10.035156 -15.003906 10.03125 -14.296875 10.03125 -13.484375 C 10.03125 -12.671875 10.03125 -11.894531 10.03125 -11.15625 L 10.03125 -6.9375 C 10.03125 -5.632812 10.039062 -4.5 10.0625 -3.53125 C 10.082031 -2.570312 10.09375 -1.9375 10.09375 -1.625 L 12.734375 -1.25 L 12.640625 0 L 4.703125 0 L 4.640625 -1.25 L 7.25 -1.625 C 7.25 -1.9375 7.257812 -2.570312 7.28125 -3.53125 C 7.300781 -4.5 7.3125 -5.632812 7.3125 -6.9375 L 7.3125 -11.15625 C 7.3125 -11.894531 7.3125 -12.671875 7.3125 -13.484375 C 7.3125 -14.296875 7.3125 -15.003906 7.3125 -15.609375 C 7.3125 -16.222656 7.300781 -16.613281 7.28125 -16.78125 C 7.007812 -16.800781 6.695312 -16.8125 6.34375 -16.8125 C 6 -16.8125 5.722656 -16.8125 5.515625 -16.8125 L 4.296875 -16.8125 C 4.128906 -16.8125 3.945312 -16.804688 3.75 -16.796875 C 3.550781 -16.785156 3.359375 -16.757812 3.171875 -16.71875 L 1.90625 -13.171875 L 0.5 -13.359375 L 1.1875 -18.40625 C 1.414062 -18.382812 1.65625 -18.367188 1.90625 -18.359375 C 2.164062 -18.347656 2.425781 -18.332031 2.6875 -18.3125 C 2.945312 -18.289062 3.203125 -18.28125 3.453125 -18.28125 C 3.703125 -18.28125 3.953125 -18.28125 4.203125 -18.28125 L 13.109375 -18.28125 C 13.335938 -18.28125 13.582031 -18.28125 13.84375 -18.28125 C 14.101562 -18.28125 14.359375 -18.289062 14.609375 -18.3125 C 14.859375 -18.332031 15.113281 -18.347656 15.375 -18.359375 C 15.632812 -18.367188 15.882812 -18.382812 16.125 -18.40625 Z M 16.125 -18.40625 "/></g></g></g><g fill="#a23418" fill-opacity="1"><g transform="translate(144.185323, 115.83464)"><g/></g></g><g fill="#a23418" fill-opacity="1"><g transform="translate(150.165569, 115.83464)"><g><path d="M 11.453125 0.28125 C 9.648438 0.28125 8.003906 -0.0664062 6.515625 -0.765625 C 5.035156 -1.460938 3.847656 -2.5 2.953125 -3.875 C 2.066406 -5.257812 1.625 -6.96875 1.625 -9 C 1.625 -10.3125 1.847656 -11.539062 2.296875 -12.6875 C 2.753906 -13.84375 3.425781 -14.859375 4.3125 -15.734375 C 5.195312 -16.617188 6.269531 -17.3125 7.53125 -17.8125 C 8.800781 -18.3125 10.242188 -18.5625 11.859375 -18.5625 C 12.710938 -18.5625 13.613281 -18.476562 14.5625 -18.3125 C 15.519531 -18.144531 16.375 -17.90625 17.125 -17.59375 L 17.34375 -13.328125 L 15.953125 -13.203125 L 15.015625 -16.15625 C 14.617188 -16.425781 14.097656 -16.628906 13.453125 -16.765625 C 12.804688 -16.898438 12.179688 -16.96875 11.578125 -16.96875 C 10.023438 -16.96875 8.753906 -16.628906 7.765625 -15.953125 C 6.785156 -15.285156 6.0625 -14.390625 5.59375 -13.265625 C 5.125 -12.140625 4.890625 -10.90625 4.890625 -9.5625 C 4.890625 -7.789062 5.195312 -6.289062 5.8125 -5.0625 C 6.425781 -3.84375 7.253906 -2.921875 8.296875 -2.296875 C 9.347656 -1.679688 10.503906 -1.375 11.765625 -1.375 C 12.410156 -1.375 13.007812 -1.445312 13.5625 -1.59375 C 14.113281 -1.738281 14.640625 -1.957031 15.140625 -2.25 L 16.5 -5.171875 L 17.9375 -5.015625 L 17.0625 -1.09375 C 16.332031 -0.738281 15.484375 -0.421875 14.515625 -0.140625 C 13.554688 0.140625 12.535156 0.28125 11.453125 0.28125 Z M 11.453125 0.28125 "/></g></g></g><g fill="#a23418" fill-opacity="1"><g transform="translate(168.978428, 115.83464)"><g><path d="M 14.546875 0.15625 C 14.253906 0.113281 13.925781 0.0820312 13.5625 0.0625 C 13.195312 0.0390625 12.835938 0.0234375 12.484375 0.015625 C 12.128906 0.00390625 11.804688 0 11.515625 0 L 1.5625 0 L 1.5 -1.1875 L 3.390625 -1.625 C 3.410156 -1.726562 3.429688 -1.957031 3.453125 -2.3125 C 3.472656 -2.675781 3.488281 -3.191406 3.5 -3.859375 C 3.507812 -4.523438 3.515625 -5.304688 3.515625 -6.203125 L 3.515625 -12.046875 C 3.515625 -12.984375 3.515625 -13.773438 3.515625 -14.421875 C 3.515625 -15.066406 3.503906 -15.570312 3.484375 -15.9375 C 3.460938 -16.3125 3.429688 -16.539062 3.390625 -16.625 L 1.5 -17.09375 L 1.5625 -18.28125 L 8.875 -18.28125 L 8.96875 -17.03125 L 6.390625 -16.625 C 6.347656 -16.5625 6.316406 -16.359375 6.296875 -16.015625 C 6.273438 -15.679688 6.253906 -15.1875 6.234375 -14.53125 C 6.210938 -13.875 6.203125 -13.046875 6.203125 -12.046875 L 6.203125 -6.203125 C 6.203125 -5.117188 6.210938 -4.175781 6.234375 -3.375 C 6.253906 -2.582031 6.273438 -2.070312 6.296875 -1.84375 C 6.585938 -1.800781 6.878906 -1.773438 7.171875 -1.765625 C 7.472656 -1.753906 7.832031 -1.75 8.25 -1.75 L 10.59375 -1.75 C 11.070312 -1.75 11.472656 -1.757812 11.796875 -1.78125 C 12.128906 -1.800781 12.460938 -1.832031 12.796875 -1.875 L 14.421875 -4.921875 L 15.828125 -4.609375 Z M 14.546875 0.15625 "/></g></g></g><g fill="#a23418" fill-opacity="1"><g transform="translate(184.894606, 115.83464)"><g><path d="M 15.140625 0.15625 C 14.535156 0.09375 14 0.0507812 13.53125 0.03125 C 13.0625 0.0078125 12.617188 0 12.203125 0 L 1.53125 0 L 1.4375 -1.1875 L 3.359375 -1.625 C 3.378906 -1.726562 3.398438 -1.960938 3.421875 -2.328125 C 3.441406 -2.703125 3.457031 -3.210938 3.46875 -3.859375 C 3.476562 -4.503906 3.484375 -5.285156 3.484375 -6.203125 L 3.484375 -12.046875 C 3.484375 -12.984375 3.476562 -13.78125 3.46875 -14.4375 C 3.457031 -15.09375 3.441406 -15.601562 3.421875 -15.96875 C 3.398438 -16.34375 3.378906 -16.570312 3.359375 -16.65625 L 1.4375 -17.09375 L 1.53125 -18.28125 L 11.515625 -18.28125 C 11.804688 -18.28125 12.117188 -18.28125 12.453125 -18.28125 C 12.785156 -18.28125 13.132812 -18.296875 13.5 -18.328125 C 13.863281 -18.359375 14.242188 -18.382812 14.640625 -18.40625 L 15.265625 -14.296875 L 13.859375 -14.078125 L 12.828125 -16.6875 C 12.660156 -16.726562 12.472656 -16.753906 12.265625 -16.765625 C 12.054688 -16.773438 11.835938 -16.78125 11.609375 -16.78125 L 8.09375 -16.78125 C 7.695312 -16.78125 7.347656 -16.773438 7.046875 -16.765625 C 6.753906 -16.753906 6.460938 -16.726562 6.171875 -16.6875 C 6.171875 -16.601562 6.164062 -16.367188 6.15625 -15.984375 C 6.144531 -15.609375 6.132812 -15.171875 6.125 -14.671875 C 6.113281 -14.171875 6.109375 -13.671875 6.109375 -13.171875 L 6.109375 -4.765625 C 6.109375 -4.347656 6.113281 -3.925781 6.125 -3.5 C 6.132812 -3.070312 6.144531 -2.695312 6.15625 -2.375 C 6.164062 -2.0625 6.171875 -1.832031 6.171875 -1.6875 C 6.484375 -1.664062 6.789062 -1.644531 7.09375 -1.625 C 7.40625 -1.601562 7.757812 -1.59375 8.15625 -1.59375 L 11.1875 -1.59375 C 11.632812 -1.59375 12.003906 -1.597656 12.296875 -1.609375 C 12.585938 -1.617188 12.816406 -1.632812 12.984375 -1.65625 C 13.148438 -1.675781 13.285156 -1.695312 13.390625 -1.71875 L 15.015625 -4.671875 L 16.40625 -4.390625 Z M 11.671875 -6.390625 L 11.3125 -8.5 C 11.207031 -8.539062 11.03125 -8.570312 10.78125 -8.59375 C 10.53125 -8.613281 10.226562 -8.625 9.875 -8.625 L 7.5 -8.625 C 7.226562 -8.625 6.929688 -8.613281 6.609375 -8.59375 C 6.296875 -8.570312 5.972656 -8.550781 5.640625 -8.53125 L 5.640625 -10.25 C 5.972656 -10.226562 6.296875 -10.210938 6.609375 -10.203125 C 6.929688 -10.191406 7.226562 -10.1875 7.5 -10.1875 L 9.875 -10.1875 C 10.226562 -10.1875 10.53125 -10.191406 10.78125 -10.203125 C 11.03125 -10.210938 11.207031 -10.238281 11.3125 -10.28125 L 11.671875 -12.421875 L 13.015625 -12.421875 L 13.015625 -6.390625 Z M 11.671875 -6.390625 "/></g></g></g><g fill="#a23418" fill-opacity="1"><g transform="translate(202.212404, 115.83464)"><g><path d="M 0.09375 0 L 0.03125 -1.1875 L 1.5625 -1.625 L 7.96875 -17.75 L 9.78125 -18.84375 L 16.5625 -1.625 L 18.125 -1.1875 L 18.03125 0 L 11.734375 0 L 11.671875 -1.1875 L 13.578125 -1.625 L 11.734375 -6.234375 L 11.390625 -7.1875 L 8 -15.671875 L 8.71875 -16.0625 L 5.484375 -7.1875 L 5.140625 -6.265625 L 3.484375 -1.625 L 5.390625 -1.1875 L 5.328125 0 Z M 4.453125 -5.765625 L 4.453125 -7.40625 C 4.847656 -7.382812 5.382812 -7.363281 6.0625 -7.34375 C 6.75 -7.320312 7.59375 -7.3125 8.59375 -7.3125 C 9.570312 -7.3125 10.40625 -7.320312 11.09375 -7.34375 C 11.789062 -7.363281 12.328125 -7.382812 12.703125 -7.40625 L 12.703125 -5.765625 C 11.992188 -5.785156 11.289062 -5.800781 10.59375 -5.8125 C 9.90625 -5.820312 9.238281 -5.828125 8.59375 -5.828125 C 7.96875 -5.828125 7.316406 -5.820312 6.640625 -5.8125 C 5.972656 -5.800781 5.242188 -5.785156 4.453125 -5.765625 Z M 4.453125 -5.765625 "/></g></g></g><g fill="#a23418" fill-opacity="1"><g transform="translate(220.340027, 115.83464)"><g><path d="M 15.734375 -4.453125 L 15.734375 -11.421875 C 15.734375 -12.648438 15.726562 -13.632812 15.71875 -14.375 C 15.707031 -15.113281 15.6875 -15.660156 15.65625 -16.015625 C 15.625 -16.378906 15.597656 -16.59375 15.578125 -16.65625 L 13.453125 -17.09375 L 13.546875 -18.28125 L 19.46875 -18.28125 L 19.5625 -17.09375 L 17.625 -16.65625 C 17.625 -16.59375 17.609375 -16.378906 17.578125 -16.015625 C 17.546875 -15.660156 17.519531 -15.109375 17.5 -14.359375 C 17.476562 -13.609375 17.46875 -12.628906 17.46875 -11.421875 L 17.46875 -4.015625 C 17.46875 -3.347656 17.46875 -2.671875 17.46875 -1.984375 C 17.46875 -1.304688 17.476562 -0.601562 17.5 0.125 L 16.09375 0.125 L 4.640625 -15.296875 L 5.328125 -15.296875 L 5.328125 -6.9375 C 5.328125 -5.695312 5.335938 -4.703125 5.359375 -3.953125 C 5.378906 -3.203125 5.40625 -2.644531 5.4375 -2.28125 C 5.46875 -1.925781 5.492188 -1.707031 5.515625 -1.625 L 7.625 -1.1875 L 7.53125 0 L 1.5625 0 L 1.46875 -1.1875 L 3.359375 -1.625 C 3.398438 -1.707031 3.429688 -1.921875 3.453125 -2.265625 C 3.472656 -2.617188 3.492188 -3.175781 3.515625 -3.9375 C 3.535156 -4.695312 3.546875 -5.695312 3.546875 -6.9375 L 3.546875 -12.265625 C 3.546875 -13.203125 3.535156 -13.972656 3.515625 -14.578125 C 3.492188 -15.179688 3.472656 -15.644531 3.453125 -15.96875 C 3.429688 -16.300781 3.398438 -16.53125 3.359375 -16.65625 L 1.46875 -17.09375 L 1.5625 -18.28125 L 5.828125 -18.28125 L 16.28125 -4.453125 Z M 15.734375 -4.453125 "/></g></g></g><g fill="#a23418" fill-opacity="1"><g transform="translate(241.333185, 115.83464)"><g><path d="M 1.53125 0 L 1.46875 -1.1875 L 3.359375 -1.625 C 3.398438 -1.726562 3.425781 -1.960938 3.4375 -2.328125 C 3.445312 -2.703125 3.457031 -3.210938 3.46875 -3.859375 C 3.476562 -4.503906 3.484375 -5.285156 3.484375 -6.203125 L 3.484375 -12.046875 C 3.484375 -12.984375 3.476562 -13.78125 3.46875 -14.4375 C 3.457031 -15.09375 3.445312 -15.609375 3.4375 -15.984375 C 3.425781 -16.367188 3.398438 -16.59375 3.359375 -16.65625 L 1.46875 -17.09375 L 1.53125 -18.28125 L 8.15625 -18.28125 L 8.21875 -17.09375 L 6.328125 -16.65625 C 6.285156 -16.59375 6.25 -16.390625 6.21875 -16.046875 C 6.1875 -15.710938 6.164062 -15.222656 6.15625 -14.578125 C 6.144531 -13.929688 6.140625 -13.085938 6.140625 -12.046875 L 6.140625 -6.203125 C 6.140625 -5.203125 6.144531 -4.378906 6.15625 -3.734375 C 6.164062 -3.085938 6.1875 -2.59375 6.21875 -2.25 C 6.25 -1.914062 6.285156 -1.707031 6.328125 -1.625 L 8.21875 -1.1875 L 8.15625 0 Z M 1.53125 0 "/></g></g></g><g fill="#a23418" fill-opacity="1"><g transform="translate(250.988791, 115.83464)"><g><path d="M 15.734375 -4.453125 L 15.734375 -11.421875 C 15.734375 -12.648438 15.726562 -13.632812 15.71875 -14.375 C 15.707031 -15.113281 15.6875 -15.660156 15.65625 -16.015625 C 15.625 -16.378906 15.597656 -16.59375 15.578125 -16.65625 L 13.453125 -17.09375 L 13.546875 -18.28125 L 19.46875 -18.28125 L 19.5625 -17.09375 L 17.625 -16.65625 C 17.625 -16.59375 17.609375 -16.378906 17.578125 -16.015625 C 17.546875 -15.660156 17.519531 -15.109375 17.5 -14.359375 C 17.476562 -13.609375 17.46875 -12.628906 17.46875 -11.421875 L 17.46875 -4.015625 C 17.46875 -3.347656 17.46875 -2.671875 17.46875 -1.984375 C 17.46875 -1.304688 17.476562 -0.601562 17.5 0.125 L 16.09375 0.125 L 4.640625 -15.296875 L 5.328125 -15.296875 L 5.328125 -6.9375 C 5.328125 -5.695312 5.335938 -4.703125 5.359375 -3.953125 C 5.378906 -3.203125 5.40625 -2.644531 5.4375 -2.28125 C 5.46875 -1.925781 5.492188 -1.707031 5.515625 -1.625 L 7.625 -1.1875 L 7.53125 0 L 1.5625 0 L 1.46875 -1.1875 L 3.359375 -1.625 C 3.398438 -1.707031 3.429688 -1.921875 3.453125 -2.265625 C 3.472656 -2.617188 3.492188 -3.175781 3.515625 -3.9375 C 3.535156 -4.695312 3.546875 -5.695312 3.546875 -6.9375 L 3.546875 -12.265625 C 3.546875 -13.203125 3.535156 -13.972656 3.515625 -14.578125 C 3.492188 -15.179688 3.472656 -15.644531 3.453125 -15.96875 C 3.429688 -16.300781 3.398438 -16.53125 3.359375 -16.65625 L 1.46875 -17.09375 L 1.5625 -18.28125 L 5.828125 -18.28125 L 16.28125 -4.453125 Z M 15.734375 -4.453125 "/></g></g></g><g fill="#a23418" fill-opacity="1"><g transform="translate(271.981949, 115.83464)"><g><path d="M 11.640625 0.28125 C 9.773438 0.28125 8.078125 -0.0664062 6.546875 -0.765625 C 5.023438 -1.460938 3.816406 -2.492188 2.921875 -3.859375 C 2.035156 -5.234375 1.59375 -6.9375 1.59375 -8.96875 C 1.59375 -10.28125 1.820312 -11.507812 2.28125 -12.65625 C 2.75 -13.8125 3.425781 -14.832031 4.3125 -15.71875 C 5.195312 -16.613281 6.273438 -17.3125 7.546875 -17.8125 C 8.828125 -18.3125 10.285156 -18.5625 11.921875 -18.5625 C 12.796875 -18.5625 13.710938 -18.476562 14.671875 -18.3125 C 15.640625 -18.144531 16.476562 -17.90625 17.1875 -17.59375 L 17.375 -13.515625 L 16 -13.390625 L 15.109375 -16.15625 C 14.710938 -16.445312 14.179688 -16.65625 13.515625 -16.78125 C 12.847656 -16.90625 12.234375 -16.96875 11.671875 -16.96875 C 10.078125 -16.96875 8.773438 -16.628906 7.765625 -15.953125 C 6.765625 -15.285156 6.023438 -14.390625 5.546875 -13.265625 C 5.066406 -12.140625 4.828125 -10.90625 4.828125 -9.5625 C 4.828125 -7.789062 5.144531 -6.285156 5.78125 -5.046875 C 6.414062 -3.816406 7.269531 -2.890625 8.34375 -2.265625 C 9.425781 -1.648438 10.640625 -1.34375 11.984375 -1.34375 C 12.566406 -1.34375 13.21875 -1.425781 13.9375 -1.59375 C 14.65625 -1.757812 15.296875 -2.046875 15.859375 -2.453125 L 15.109375 -0.71875 L 15.109375 -3.984375 C 15.109375 -4.671875 15.097656 -5.273438 15.078125 -5.796875 C 15.054688 -6.316406 15.023438 -6.707031 14.984375 -6.96875 L 12.859375 -7.3125 L 12.921875 -8.5625 L 19 -8.5625 L 19.0625 -7.375 L 17.6875 -7 C 17.6875 -6.894531 17.6875 -6.644531 17.6875 -6.25 C 17.6875 -5.863281 17.6875 -5.390625 17.6875 -4.828125 C 17.6875 -4.097656 17.695312 -3.484375 17.71875 -2.984375 C 17.738281 -2.492188 17.757812 -1.976562 17.78125 -1.4375 C 16.96875 -0.894531 15.992188 -0.472656 14.859375 -0.171875 C 13.734375 0.128906 12.660156 0.28125 11.640625 0.28125 Z M 11.640625 0.28125 "/></g></g></g><g clip-path="url(#43c6881697)"><path fill="#000000" d="M 169.859375 128.140625 C 170.003906 128.285156 170.117188 128.453125 170.195312 128.644531 C 170.273438 128.835938 170.316406 129.035156 170.316406 129.242188 C 170.316406 129.449219 170.273438 129.648438 170.195312 129.839844 C 170.117188 130.03125 170.003906 130.199219 169.859375 130.347656 C 169.710938 130.492188 169.542969 130.605469 169.351562 130.6875 C 169.160156 130.765625 168.960938 130.804688 168.753906 130.804688 C 168.546875 130.804688 168.347656 130.765625 168.15625 130.6875 C 167.964844 130.605469 167.796875 130.492188 167.648438 130.347656 C 167.503906 130.203125 167.390625 130.03125 167.3125 129.839844 C 167.230469 129.648438 167.191406 129.449219 167.191406 129.242188 C 167.191406 129.035156 167.230469 128.835938 167.3125 128.644531 C 167.390625 128.453125 167.503906 128.285156 167.648438 128.140625 C 167.796875 127.992188 167.964844 127.878906 168.15625 127.800781 C 168.347656 127.722656 168.546875 127.683594 168.753906 127.683594 C 168.960938 127.683594 169.160156 127.722656 169.351562 127.800781 C 169.542969 127.878906 169.710938 127.992188 169.859375 128.140625 Z M 169.859375 128.140625 " fill-opacity="1" fill-rule="nonzero"/></g><g fill="#000000" fill-opacity="1"><g transform="translate(27.248408, 135.602847)"><g><path d="M 7.171875 0.171875 C 6.035156 0.171875 5.003906 -0.0390625 4.078125 -0.46875 C 3.148438 -0.90625 2.40625 -1.554688 1.84375 -2.421875 C 1.289062 -3.285156 1.015625 -4.351562 1.015625 -5.625 C 1.015625 -6.445312 1.15625 -7.21875 1.4375 -7.9375 C 1.726562 -8.65625 2.148438 -9.289062 2.703125 -9.84375 C 3.253906 -10.394531 3.925781 -10.828125 4.71875 -11.140625 C 5.507812 -11.453125 6.410156 -11.609375 7.421875 -11.609375 C 7.953125 -11.609375 8.515625 -11.554688 9.109375 -11.453125 C 9.703125 -11.347656 10.234375 -11.195312 10.703125 -11 L 10.84375 -8.328125 L 9.96875 -8.25 L 9.390625 -10.109375 C 9.140625 -10.273438 8.8125 -10.398438 8.40625 -10.484375 C 8.007812 -10.566406 7.625 -10.609375 7.25 -10.609375 C 6.269531 -10.609375 5.472656 -10.394531 4.859375 -9.96875 C 4.242188 -9.550781 3.789062 -8.992188 3.5 -8.296875 C 3.207031 -7.597656 3.0625 -6.828125 3.0625 -5.984375 C 3.0625 -4.878906 3.25 -3.941406 3.625 -3.171875 C 4.007812 -2.410156 4.53125 -1.832031 5.1875 -1.4375 C 5.84375 -1.050781 6.566406 -0.859375 7.359375 -0.859375 C 7.765625 -0.859375 8.140625 -0.898438 8.484375 -0.984375 C 8.828125 -1.078125 9.15625 -1.21875 9.46875 -1.40625 L 10.3125 -3.234375 L 11.21875 -3.140625 L 10.671875 -0.6875 C 10.210938 -0.457031 9.679688 -0.253906 9.078125 -0.078125 C 8.472656 0.0859375 7.835938 0.171875 7.171875 0.171875 Z M 7.171875 0.171875 "/></g></g></g><g fill="#000000" fill-opacity="1"><g transform="translate(39.004722, 135.602847)"><g><path d="M 6.796875 0.171875 C 5.660156 0.171875 4.65625 -0.0703125 3.78125 -0.5625 C 2.90625 -1.050781 2.222656 -1.738281 1.734375 -2.625 C 1.242188 -3.507812 1 -4.523438 1 -5.671875 C 1 -6.804688 1.25 -7.820312 1.75 -8.71875 C 2.25 -9.613281 2.941406 -10.316406 3.828125 -10.828125 C 4.710938 -11.347656 5.710938 -11.609375 6.828125 -11.609375 C 7.921875 -11.609375 8.882812 -11.359375 9.71875 -10.859375 C 10.550781 -10.367188 11.203125 -9.6875 11.671875 -8.8125 C 12.148438 -7.945312 12.390625 -6.941406 12.390625 -5.796875 C 12.390625 -4.929688 12.238281 -4.132812 11.9375 -3.40625 C 11.632812 -2.675781 11.222656 -2.039062 10.703125 -1.5 C 10.191406 -0.96875 9.597656 -0.554688 8.921875 -0.265625 C 8.253906 0.0234375 7.546875 0.171875 6.796875 0.171875 Z M 6.96875 -0.875 C 7.6875 -0.875 8.300781 -1.054688 8.8125 -1.421875 C 9.320312 -1.785156 9.71875 -2.300781 10 -2.96875 C 10.28125 -3.632812 10.421875 -4.421875 10.421875 -5.328125 C 10.421875 -6.378906 10.253906 -7.300781 9.921875 -8.09375 C 9.597656 -8.882812 9.15625 -9.503906 8.59375 -9.953125 C 8.03125 -10.398438 7.363281 -10.625 6.59375 -10.625 C 5.5 -10.625 4.628906 -10.210938 3.984375 -9.390625 C 3.335938 -8.566406 3.015625 -7.445312 3.015625 -6.03125 C 3.015625 -5.019531 3.179688 -4.128906 3.515625 -3.359375 C 3.859375 -2.585938 4.328125 -1.976562 4.921875 -1.53125 C 5.523438 -1.09375 6.207031 -0.875 6.96875 -0.875 Z M 6.96875 -0.875 "/></g></g></g><g fill="#000000" fill-opacity="1"><g transform="translate(52.357092, 135.602847)"><g><path d="M 1.09375 -11.421875 L 4.453125 -11.421875 L 8.546875 -2.109375 L 8.203125 -2.109375 L 12.203125 -11.421875 L 15.359375 -11.421875 L 15.421875 -10.6875 L 14.21875 -10.4375 C 14.195312 -10.25 14.191406 -9.90625 14.203125 -9.40625 C 14.210938 -8.914062 14.222656 -8.382812 14.234375 -7.8125 L 14.3125 -4.25 C 14.320312 -3.59375 14.332031 -3.046875 14.34375 -2.609375 C 14.363281 -2.179688 14.378906 -1.835938 14.390625 -1.578125 C 14.398438 -1.328125 14.410156 -1.132812 14.421875 -1 L 15.609375 -0.734375 L 15.578125 0 L 11.453125 0 L 11.390625 -0.734375 L 12.578125 -1 C 12.585938 -1.15625 12.59375 -1.332031 12.59375 -1.53125 C 12.59375 -1.738281 12.59375 -2.03125 12.59375 -2.40625 C 12.59375 -2.789062 12.585938 -3.304688 12.578125 -3.953125 L 12.53125 -10.859375 L 13.046875 -10.859375 L 8.328125 0.0625 L 7.65625 0.0625 L 2.828125 -10.890625 L 3.328125 -10.890625 L 3.34375 -4.265625 C 3.34375 -3.179688 3.347656 -2.394531 3.359375 -1.90625 C 3.367188 -1.425781 3.378906 -1.128906 3.390625 -1.015625 L 4.71875 -0.734375 L 4.65625 0 L 0.84375 0 L 0.78125 -0.734375 L 2.109375 -1.015625 C 2.117188 -1.109375 2.125 -1.273438 2.125 -1.515625 C 2.132812 -1.765625 2.144531 -2.09375 2.15625 -2.5 C 2.175781 -2.90625 2.1875 -3.390625 2.1875 -3.953125 L 2.234375 -7.8125 C 2.253906 -8.382812 2.257812 -8.90625 2.25 -9.375 C 2.238281 -9.84375 2.234375 -10.191406 2.234375 -10.421875 L 1.046875 -10.6875 Z M 1.09375 -11.421875 "/></g></g></g><g fill="#000000" fill-opacity="1"><g transform="translate(68.901574, 135.602847)"><g><path d="M 1.09375 -11.421875 L 4.453125 -11.421875 L 8.546875 -2.109375 L 8.203125 -2.109375 L 12.203125 -11.421875 L 15.359375 -11.421875 L 15.421875 -10.6875 L 14.21875 -10.4375 C 14.195312 -10.25 14.191406 -9.90625 14.203125 -9.40625 C 14.210938 -8.914062 14.222656 -8.382812 14.234375 -7.8125 L 14.3125 -4.25 C 14.320312 -3.59375 14.332031 -3.046875 14.34375 -2.609375 C 14.363281 -2.179688 14.378906 -1.835938 14.390625 -1.578125 C 14.398438 -1.328125 14.410156 -1.132812 14.421875 -1 L 15.609375 -0.734375 L 15.578125 0 L 11.453125 0 L 11.390625 -0.734375 L 12.578125 -1 C 12.585938 -1.15625 12.59375 -1.332031 12.59375 -1.53125 C 12.59375 -1.738281 12.59375 -2.03125 12.59375 -2.40625 C 12.59375 -2.789062 12.585938 -3.304688 12.578125 -3.953125 L 12.53125 -10.859375 L 13.046875 -10.859375 L 8.328125 0.0625 L 7.65625 0.0625 L 2.828125 -10.890625 L 3.328125 -10.890625 L 3.34375 -4.265625 C 3.34375 -3.179688 3.347656 -2.394531 3.359375 -1.90625 C 3.367188 -1.425781 3.378906 -1.128906 3.390625 -1.015625 L 4.71875 -0.734375 L 4.65625 0 L 0.84375 0 L 0.78125 -0.734375 L 2.109375 -1.015625 C 2.117188 -1.109375 2.125 -1.273438 2.125 -1.515625 C 2.132812 -1.765625 2.144531 -2.09375 2.15625 -2.5 C 2.175781 -2.90625 2.1875 -3.390625 2.1875 -3.953125 L 2.234375 -7.8125 C 2.253906 -8.382812 2.257812 -8.90625 2.25 -9.375 C 2.238281 -9.84375 2.234375 -10.191406 2.234375 -10.421875 L 1.046875 -10.6875 Z M 1.09375 -11.421875 "/></g></g></g><g fill="#000000" fill-opacity="1"><g transform="translate(85.446056, 135.602847)"><g><path d="M 9.46875 0.09375 C 9.082031 0.0507812 8.742188 0.0234375 8.453125 0.015625 C 8.160156 0.00390625 7.882812 0 7.625 0 L 0.953125 0 L 0.890625 -0.734375 L 2.109375 -1.015625 C 2.117188 -1.078125 2.128906 -1.222656 2.140625 -1.453125 C 2.148438 -1.691406 2.160156 -2.007812 2.171875 -2.40625 C 2.179688 -2.8125 2.1875 -3.300781 2.1875 -3.875 L 2.1875 -7.53125 C 2.1875 -8.113281 2.179688 -8.609375 2.171875 -9.015625 C 2.160156 -9.429688 2.148438 -9.753906 2.140625 -9.984375 C 2.128906 -10.222656 2.117188 -10.367188 2.109375 -10.421875 L 0.890625 -10.6875 L 0.953125 -11.421875 L 7.203125 -11.421875 C 7.390625 -11.421875 7.582031 -11.421875 7.78125 -11.421875 C 7.988281 -11.421875 8.207031 -11.429688 8.4375 -11.453125 C 8.664062 -11.472656 8.90625 -11.488281 9.15625 -11.5 L 9.546875 -8.9375 L 8.671875 -8.796875 L 8.015625 -10.4375 C 7.910156 -10.457031 7.796875 -10.472656 7.671875 -10.484375 C 7.546875 -10.492188 7.410156 -10.5 7.265625 -10.5 L 5.0625 -10.5 C 4.8125 -10.5 4.59375 -10.492188 4.40625 -10.484375 C 4.21875 -10.472656 4.035156 -10.457031 3.859375 -10.4375 C 3.859375 -10.382812 3.851562 -10.238281 3.84375 -10 C 3.832031 -9.757812 3.820312 -9.484375 3.8125 -9.171875 C 3.8125 -8.859375 3.8125 -8.546875 3.8125 -8.234375 L 3.8125 -2.984375 C 3.8125 -2.722656 3.8125 -2.457031 3.8125 -2.1875 C 3.820312 -1.925781 3.832031 -1.691406 3.84375 -1.484375 C 3.851562 -1.285156 3.859375 -1.140625 3.859375 -1.046875 C 4.046875 -1.035156 4.238281 -1.023438 4.4375 -1.015625 C 4.632812 -1.003906 4.851562 -1 5.09375 -1 L 6.984375 -1 C 7.273438 -1 7.507812 -1 7.6875 -1 C 7.875 -1.007812 8.019531 -1.019531 8.125 -1.03125 C 8.226562 -1.039062 8.3125 -1.054688 8.375 -1.078125 L 9.390625 -2.921875 L 10.265625 -2.75 Z M 7.296875 -3.984375 L 7.0625 -5.3125 C 7 -5.34375 6.890625 -5.363281 6.734375 -5.375 C 6.578125 -5.382812 6.390625 -5.390625 6.171875 -5.390625 L 4.6875 -5.390625 C 4.519531 -5.390625 4.332031 -5.382812 4.125 -5.375 C 3.925781 -5.363281 3.726562 -5.347656 3.53125 -5.328125 L 3.53125 -6.40625 C 3.726562 -6.394531 3.925781 -6.382812 4.125 -6.375 C 4.332031 -6.363281 4.519531 -6.359375 4.6875 -6.359375 L 6.171875 -6.359375 C 6.390625 -6.359375 6.578125 -6.363281 6.734375 -6.375 C 6.890625 -6.382812 7 -6.398438 7.0625 -6.421875 L 7.296875 -7.765625 L 8.140625 -7.765625 L 8.140625 -3.984375 Z M 7.296875 -3.984375 "/></g></g></g><g fill="#000000" fill-opacity="1"><g transform="translate(96.268094, 135.602847)"><g><path d="M 1.015625 0 L 0.96875 -0.734375 L 2.15625 -1.03125 C 2.15625 -1.125 2.160156 -1.265625 2.171875 -1.453125 C 2.179688 -1.640625 2.1875 -1.863281 2.1875 -2.125 C 2.1875 -2.382812 2.1875 -2.664062 2.1875 -2.96875 C 2.195312 -3.269531 2.203125 -3.570312 2.203125 -3.875 L 2.203125 -7.53125 C 2.203125 -8.132812 2.195312 -8.640625 2.1875 -9.046875 C 2.1875 -9.453125 2.175781 -9.769531 2.15625 -10 C 2.144531 -10.226562 2.132812 -10.367188 2.125 -10.421875 L 0.921875 -10.6875 L 0.96875 -11.421875 L 5.234375 -11.421875 C 6.453125 -11.421875 7.382812 -11.179688 8.03125 -10.703125 C 8.675781 -10.234375 9 -9.539062 9 -8.625 C 9 -7.988281 8.820312 -7.421875 8.46875 -6.921875 C 8.113281 -6.421875 7.625 -6.023438 7 -5.734375 C 6.375 -5.453125 5.65625 -5.3125 4.84375 -5.3125 L 3.609375 -5.3125 L 3.609375 -6.1875 L 4.71875 -6.1875 C 5.519531 -6.1875 6.144531 -6.390625 6.59375 -6.796875 C 7.039062 -7.203125 7.265625 -7.757812 7.265625 -8.46875 C 7.265625 -9.15625 7.066406 -9.675781 6.671875 -10.03125 C 6.285156 -10.394531 5.726562 -10.578125 5 -10.578125 L 3.875 -10.578125 C 3.863281 -10.546875 3.851562 -10.488281 3.84375 -10.40625 C 3.832031 -10.332031 3.828125 -10.203125 3.828125 -10.015625 C 3.828125 -9.835938 3.828125 -9.570312 3.828125 -9.21875 C 3.828125 -8.875 3.828125 -8.410156 3.828125 -7.828125 L 3.828125 -3.875 C 3.828125 -3.3125 3.832031 -2.84375 3.84375 -2.46875 C 3.851562 -2.09375 3.863281 -1.789062 3.875 -1.5625 C 3.894531 -1.34375 3.914062 -1.164062 3.9375 -1.03125 L 5.078125 -0.734375 L 5.015625 0 Z M 10.234375 0.1875 C 9.671875 0.1875 9.164062 0.0820312 8.71875 -0.125 C 8.28125 -0.34375 7.851562 -0.703125 7.4375 -1.203125 C 7.03125 -1.710938 6.582031 -2.390625 6.09375 -3.234375 L 4.765625 -5.640625 L 6.234375 -5.984375 L 8.328125 -2.875 C 8.691406 -2.34375 9.019531 -1.914062 9.3125 -1.59375 C 9.601562 -1.28125 9.890625 -1.046875 10.171875 -0.890625 C 10.460938 -0.734375 10.78125 -0.625 11.125 -0.5625 L 11.09375 0.109375 C 10.96875 0.140625 10.828125 0.160156 10.671875 0.171875 C 10.523438 0.179688 10.378906 0.1875 10.234375 0.1875 Z M 10.234375 0.1875 "/></g></g></g><g fill="#000000" fill-opacity="1"><g transform="translate(107.304237, 135.602847)"><g><path d="M 7.171875 0.171875 C 6.035156 0.171875 5.003906 -0.0390625 4.078125 -0.46875 C 3.148438 -0.90625 2.40625 -1.554688 1.84375 -2.421875 C 1.289062 -3.285156 1.015625 -4.351562 1.015625 -5.625 C 1.015625 -6.445312 1.15625 -7.21875 1.4375 -7.9375 C 1.726562 -8.65625 2.148438 -9.289062 2.703125 -9.84375 C 3.253906 -10.394531 3.925781 -10.828125 4.71875 -11.140625 C 5.507812 -11.453125 6.410156 -11.609375 7.421875 -11.609375 C 7.953125 -11.609375 8.515625 -11.554688 9.109375 -11.453125 C 9.703125 -11.347656 10.234375 -11.195312 10.703125 -11 L 10.84375 -8.328125 L 9.96875 -8.25 L 9.390625 -10.109375 C 9.140625 -10.273438 8.8125 -10.398438 8.40625 -10.484375 C 8.007812 -10.566406 7.625 -10.609375 7.25 -10.609375 C 6.269531 -10.609375 5.472656 -10.394531 4.859375 -9.96875 C 4.242188 -9.550781 3.789062 -8.992188 3.5 -8.296875 C 3.207031 -7.597656 3.0625 -6.828125 3.0625 -5.984375 C 3.0625 -4.878906 3.25 -3.941406 3.625 -3.171875 C 4.007812 -2.410156 4.53125 -1.832031 5.1875 -1.4375 C 5.84375 -1.050781 6.566406 -0.859375 7.359375 -0.859375 C 7.765625 -0.859375 8.140625 -0.898438 8.484375 -0.984375 C 8.828125 -1.078125 9.15625 -1.21875 9.46875 -1.40625 L 10.3125 -3.234375 L 11.21875 -3.140625 L 10.671875 -0.6875 C 10.210938 -0.457031 9.679688 -0.253906 9.078125 -0.078125 C 8.472656 0.0859375 7.835938 0.171875 7.171875 0.171875 Z M 7.171875 0.171875 "/></g></g></g><g fill="#000000" fill-opacity="1"><g transform="translate(119.060551, 135.602847)"><g><path d="M 0.953125 0 L 0.921875 -0.734375 L 2.109375 -1.015625 C 2.128906 -1.078125 2.140625 -1.222656 2.140625 -1.453125 C 2.148438 -1.691406 2.160156 -2.007812 2.171875 -2.40625 C 2.179688 -2.8125 2.1875 -3.300781 2.1875 -3.875 L 2.1875 -7.53125 C 2.1875 -8.113281 2.179688 -8.609375 2.171875 -9.015625 C 2.160156 -9.429688 2.148438 -9.757812 2.140625 -10 C 2.140625 -10.238281 2.128906 -10.378906 2.109375 -10.421875 L 0.921875 -10.6875 L 0.953125 -11.421875 L 5.09375 -11.421875 L 5.140625 -10.6875 L 3.953125 -10.421875 C 3.921875 -10.378906 3.894531 -10.25 3.875 -10.03125 C 3.863281 -9.820312 3.851562 -9.515625 3.84375 -9.109375 C 3.832031 -8.710938 3.828125 -8.1875 3.828125 -7.53125 L 3.828125 -3.875 C 3.828125 -3.25 3.832031 -2.734375 3.84375 -2.328125 C 3.851562 -1.929688 3.863281 -1.625 3.875 -1.40625 C 3.894531 -1.195312 3.921875 -1.066406 3.953125 -1.015625 L 5.140625 -0.734375 L 5.09375 0 Z M 0.953125 0 "/></g></g></g><g fill="#000000" fill-opacity="1"><g transform="translate(125.094421, 135.602847)"><g><path d="M 0.0625 0 L 0.015625 -0.734375 L 0.96875 -1.015625 L 4.984375 -11.09375 L 6.109375 -11.78125 L 10.359375 -1.015625 L 11.328125 -0.734375 L 11.265625 0 L 7.34375 0 L 7.296875 -0.734375 L 8.484375 -1.015625 L 7.34375 -3.890625 L 7.125 -4.5 L 5 -9.796875 L 5.453125 -10.046875 L 3.421875 -4.5 L 3.21875 -3.90625 L 2.1875 -1.015625 L 3.375 -0.734375 L 3.328125 0 Z M 2.78125 -3.609375 L 2.78125 -4.640625 C 3.03125 -4.617188 3.367188 -4.601562 3.796875 -4.59375 C 4.222656 -4.582031 4.75 -4.578125 5.375 -4.578125 C 5.976562 -4.578125 6.5 -4.582031 6.9375 -4.59375 C 7.375 -4.601562 7.707031 -4.617188 7.9375 -4.640625 L 7.9375 -3.609375 C 7.5 -3.617188 7.0625 -3.625 6.625 -3.625 C 6.195312 -3.632812 5.78125 -3.640625 5.375 -3.640625 C 4.988281 -3.640625 4.582031 -3.632812 4.15625 -3.625 C 3.738281 -3.625 3.28125 -3.617188 2.78125 -3.609375 Z M 2.78125 -3.609375 "/></g></g></g><g fill="#000000" fill-opacity="1"><g transform="translate(136.422525, 135.602847)"><g><path d="M 9.09375 0.09375 C 8.90625 0.0703125 8.695312 0.0507812 8.46875 0.03125 C 8.25 0.0195312 8.03125 0.0078125 7.8125 0 C 7.59375 0 7.390625 0 7.203125 0 L 0.96875 0 L 0.9375 -0.734375 L 2.125 -1.015625 C 2.132812 -1.078125 2.144531 -1.222656 2.15625 -1.453125 C 2.175781 -1.679688 2.1875 -2 2.1875 -2.40625 C 2.195312 -2.820312 2.203125 -3.3125 2.203125 -3.875 L 2.203125 -7.53125 C 2.203125 -8.113281 2.203125 -8.609375 2.203125 -9.015625 C 2.203125 -9.421875 2.191406 -9.738281 2.171875 -9.96875 C 2.160156 -10.195312 2.144531 -10.335938 2.125 -10.390625 L 0.9375 -10.6875 L 0.96875 -11.421875 L 5.546875 -11.421875 L 5.609375 -10.65625 L 3.984375 -10.390625 C 3.960938 -10.359375 3.941406 -10.234375 3.921875 -10.015625 C 3.910156 -9.804688 3.898438 -9.492188 3.890625 -9.078125 C 3.878906 -8.671875 3.875 -8.15625 3.875 -7.53125 L 3.875 -3.875 C 3.875 -3.195312 3.878906 -2.609375 3.890625 -2.109375 C 3.898438 -1.609375 3.914062 -1.289062 3.9375 -1.15625 C 4.113281 -1.125 4.296875 -1.101562 4.484375 -1.09375 C 4.671875 -1.09375 4.894531 -1.09375 5.15625 -1.09375 L 6.625 -1.09375 C 6.914062 -1.09375 7.164062 -1.097656 7.375 -1.109375 C 7.582031 -1.117188 7.789062 -1.140625 8 -1.171875 L 9.015625 -3.078125 L 9.890625 -2.875 Z M 9.09375 0.09375 "/></g></g></g><g fill="#000000" fill-opacity="1"><g transform="translate(146.380179, 135.602847)"><g/></g></g><g fill="#000000" fill-opacity="1"><g transform="translate(150.117286, 135.602847)"><g/></g></g><g fill="#000000" fill-opacity="1"><g transform="translate(153.854392, 135.602847)"><g/></g></g><g fill="#000000" fill-opacity="1"><g transform="translate(157.591499, 135.602847)"><g/></g></g><g fill="#000000" fill-opacity="1"><g transform="translate(161.328605, 135.602847)"><g/></g></g><g fill="#000000" fill-opacity="1"><g transform="translate(165.065712, 135.602847)"><g/></g></g><g fill="#000000" fill-opacity="1"><g transform="translate(168.802818, 135.602847)"><g/></g></g><g fill="#000000" fill-opacity="1"><g transform="translate(172.539925, 135.602847)"><g/></g></g><g fill="#000000" fill-opacity="1"><g transform="translate(176.277032, 135.602847)"><g/></g></g><g fill="#000000" fill-opacity="1"><g transform="translate(180.014138, 135.602847)"><g/></g></g><g fill="#000000" fill-opacity="1"><g transform="translate(183.751245, 135.602847)"><g/></g></g><g fill="#000000" fill-opacity="1"><g transform="translate(187.488351, 135.602847)"><g/></g></g><g fill="#000000" fill-opacity="1"><g transform="translate(191.231303, 135.602847)"><g><path d="M 1.015625 0 L 0.96875 -0.734375 L 2.15625 -1.03125 C 2.15625 -1.125 2.160156 -1.265625 2.171875 -1.453125 C 2.179688 -1.640625 2.1875 -1.863281 2.1875 -2.125 C 2.1875 -2.382812 2.1875 -2.664062 2.1875 -2.96875 C 2.195312 -3.269531 2.203125 -3.570312 2.203125 -3.875 L 2.203125 -7.53125 C 2.203125 -8.132812 2.195312 -8.640625 2.1875 -9.046875 C 2.1875 -9.453125 2.175781 -9.769531 2.15625 -10 C 2.144531 -10.226562 2.132812 -10.367188 2.125 -10.421875 L 0.921875 -10.6875 L 0.96875 -11.421875 L 5.234375 -11.421875 C 6.453125 -11.421875 7.382812 -11.179688 8.03125 -10.703125 C 8.675781 -10.234375 9 -9.539062 9 -8.625 C 9 -7.988281 8.820312 -7.421875 8.46875 -6.921875 C 8.113281 -6.421875 7.625 -6.023438 7 -5.734375 C 6.375 -5.453125 5.65625 -5.3125 4.84375 -5.3125 L 3.609375 -5.3125 L 3.609375 -6.1875 L 4.71875 -6.1875 C 5.519531 -6.1875 6.144531 -6.390625 6.59375 -6.796875 C 7.039062 -7.203125 7.265625 -7.757812 7.265625 -8.46875 C 7.265625 -9.15625 7.066406 -9.675781 6.671875 -10.03125 C 6.285156 -10.394531 5.726562 -10.578125 5 -10.578125 L 3.875 -10.578125 C 3.863281 -10.546875 3.851562 -10.488281 3.84375 -10.40625 C 3.832031 -10.332031 3.828125 -10.203125 3.828125 -10.015625 C 3.828125 -9.835938 3.828125 -9.570312 3.828125 -9.21875 C 3.828125 -8.875 3.828125 -8.410156 3.828125 -7.828125 L 3.828125 -3.875 C 3.828125 -3.3125 3.832031 -2.84375 3.84375 -2.46875 C 3.851562 -2.09375 3.863281 -1.789062 3.875 -1.5625 C 3.894531 -1.34375 3.914062 -1.164062 3.9375 -1.03125 L 5.078125 -0.734375 L 5.015625 0 Z M 10.234375 0.1875 C 9.671875 0.1875 9.164062 0.0820312 8.71875 -0.125 C 8.28125 -0.34375 7.851562 -0.703125 7.4375 -1.203125 C 7.03125 -1.710938 6.582031 -2.390625 6.09375 -3.234375 L 4.765625 -5.640625 L 6.234375 -5.984375 L 8.328125 -2.875 C 8.691406 -2.34375 9.019531 -1.914062 9.3125 -1.59375 C 9.601562 -1.28125 9.890625 -1.046875 10.171875 -0.890625 C 10.460938 -0.734375 10.78125 -0.625 11.125 -0.5625 L 11.09375 0.109375 C 10.96875 0.140625 10.828125 0.160156 10.671875 0.171875 C 10.523438 0.179688 10.378906 0.1875 10.234375 0.1875 Z M 10.234375 0.1875 "/></g></g></g><g fill="#000000" fill-opacity="1"><g transform="translate(202.267446, 135.602847)"><g><path d="M 9.46875 0.09375 C 9.082031 0.0507812 8.742188 0.0234375 8.453125 0.015625 C 8.160156 0.00390625 7.882812 0 7.625 0 L 0.953125 0 L 0.890625 -0.734375 L 2.109375 -1.015625 C 2.117188 -1.078125 2.128906 -1.222656 2.140625 -1.453125 C 2.148438 -1.691406 2.160156 -2.007812 2.171875 -2.40625 C 2.179688 -2.8125 2.1875 -3.300781 2.1875 -3.875 L 2.1875 -7.53125 C 2.1875 -8.113281 2.179688 -8.609375 2.171875 -9.015625 C 2.160156 -9.429688 2.148438 -9.753906 2.140625 -9.984375 C 2.128906 -10.222656 2.117188 -10.367188 2.109375 -10.421875 L 0.890625 -10.6875 L 0.953125 -11.421875 L 7.203125 -11.421875 C 7.390625 -11.421875 7.582031 -11.421875 7.78125 -11.421875 C 7.988281 -11.421875 8.207031 -11.429688 8.4375 -11.453125 C 8.664062 -11.472656 8.90625 -11.488281 9.15625 -11.5 L 9.546875 -8.9375 L 8.671875 -8.796875 L 8.015625 -10.4375 C 7.910156 -10.457031 7.796875 -10.472656 7.671875 -10.484375 C 7.546875 -10.492188 7.410156 -10.5 7.265625 -10.5 L 5.0625 -10.5 C 4.8125 -10.5 4.59375 -10.492188 4.40625 -10.484375 C 4.21875 -10.472656 4.035156 -10.457031 3.859375 -10.4375 C 3.859375 -10.382812 3.851562 -10.238281 3.84375 -10 C 3.832031 -9.757812 3.820312 -9.484375 3.8125 -9.171875 C 3.8125 -8.859375 3.8125 -8.546875 3.8125 -8.234375 L 3.8125 -2.984375 C 3.8125 -2.722656 3.8125 -2.457031 3.8125 -2.1875 C 3.820312 -1.925781 3.832031 -1.691406 3.84375 -1.484375 C 3.851562 -1.285156 3.859375 -1.140625 3.859375 -1.046875 C 4.046875 -1.035156 4.238281 -1.023438 4.4375 -1.015625 C 4.632812 -1.003906 4.851562 -1 5.09375 -1 L 6.984375 -1 C 7.273438 -1 7.507812 -1 7.6875 -1 C 7.875 -1.007812 8.019531 -1.019531 8.125 -1.03125 C 8.226562 -1.039062 8.3125 -1.054688 8.375 -1.078125 L 9.390625 -2.921875 L 10.265625 -2.75 Z M 7.296875 -3.984375 L 7.0625 -5.3125 C 7 -5.34375 6.890625 -5.363281 6.734375 -5.375 C 6.578125 -5.382812 6.390625 -5.390625 6.171875 -5.390625 L 4.6875 -5.390625 C 4.519531 -5.390625 4.332031 -5.382812 4.125 -5.375 C 3.925781 -5.363281 3.726562 -5.347656 3.53125 -5.328125 L 3.53125 -6.40625 C 3.726562 -6.394531 3.925781 -6.382812 4.125 -6.375 C 4.332031 -6.363281 4.519531 -6.359375 4.6875 -6.359375 L 6.171875 -6.359375 C 6.390625 -6.359375 6.578125 -6.363281 6.734375 -6.375 C 6.890625 -6.382812 7 -6.398438 7.0625 -6.421875 L 7.296875 -7.765625 L 8.140625 -7.765625 L 8.140625 -3.984375 Z M 7.296875 -3.984375 "/></g></g></g><g fill="#000000" fill-opacity="1"><g transform="translate(213.089483, 135.602847)"><g><path d="M 4.375 0.171875 C 3.8125 0.171875 3.226562 0.101562 2.625 -0.03125 C 2.03125 -0.175781 1.539062 -0.359375 1.15625 -0.578125 L 1.046875 -3.09375 L 1.890625 -3.171875 L 2.4375 -1.4375 C 2.75 -1.226562 3.09375 -1.066406 3.46875 -0.953125 C 3.851562 -0.847656 4.253906 -0.796875 4.671875 -0.796875 C 5.304688 -0.796875 5.816406 -0.953125 6.203125 -1.265625 C 6.597656 -1.578125 6.796875 -2 6.796875 -2.53125 C 6.796875 -2.988281 6.660156 -3.367188 6.390625 -3.671875 C 6.117188 -3.972656 5.765625 -4.238281 5.328125 -4.46875 C 4.890625 -4.695312 4.425781 -4.914062 3.9375 -5.125 C 3.457031 -5.34375 3 -5.585938 2.5625 -5.859375 C 2.132812 -6.140625 1.78125 -6.484375 1.5 -6.890625 C 1.226562 -7.304688 1.09375 -7.820312 1.09375 -8.4375 C 1.09375 -9.050781 1.269531 -9.601562 1.625 -10.09375 C 1.976562 -10.582031 2.46875 -10.957031 3.09375 -11.21875 C 3.71875 -11.488281 4.429688 -11.625 5.234375 -11.625 C 5.578125 -11.625 5.90625 -11.609375 6.21875 -11.578125 C 6.539062 -11.546875 6.835938 -11.492188 7.109375 -11.421875 C 7.378906 -11.347656 7.625 -11.265625 7.84375 -11.171875 L 8 -8.734375 L 7.171875 -8.671875 L 6.625 -10.296875 C 6.207031 -10.554688 5.671875 -10.6875 5.015625 -10.6875 C 4.359375 -10.6875 3.832031 -10.523438 3.4375 -10.203125 C 3.039062 -9.878906 2.84375 -9.457031 2.84375 -8.9375 C 2.84375 -8.46875 2.984375 -8.070312 3.265625 -7.75 C 3.546875 -7.4375 3.898438 -7.160156 4.328125 -6.921875 C 4.765625 -6.691406 5.222656 -6.46875 5.703125 -6.25 C 6.191406 -6.039062 6.65625 -5.800781 7.09375 -5.53125 C 7.53125 -5.257812 7.890625 -4.925781 8.171875 -4.53125 C 8.453125 -4.132812 8.59375 -3.644531 8.59375 -3.0625 C 8.59375 -2.4375 8.410156 -1.878906 8.046875 -1.390625 C 7.679688 -0.898438 7.179688 -0.515625 6.546875 -0.234375 C 5.921875 0.0351562 5.195312 0.171875 4.375 0.171875 Z M 4.375 0.171875 "/></g></g></g><g fill="#000000" fill-opacity="1"><g transform="translate(222.412786, 135.602847)"><g><path d="M 0.953125 0 L 0.921875 -0.734375 L 2.109375 -1.015625 C 2.128906 -1.078125 2.140625 -1.222656 2.140625 -1.453125 C 2.148438 -1.691406 2.160156 -2.007812 2.171875 -2.40625 C 2.179688 -2.8125 2.1875 -3.300781 2.1875 -3.875 L 2.1875 -7.53125 C 2.1875 -8.113281 2.179688 -8.609375 2.171875 -9.015625 C 2.160156 -9.429688 2.148438 -9.757812 2.140625 -10 C 2.140625 -10.238281 2.128906 -10.378906 2.109375 -10.421875 L 0.921875 -10.6875 L 0.953125 -11.421875 L 5.09375 -11.421875 L 5.140625 -10.6875 L 3.953125 -10.421875 C 3.921875 -10.378906 3.894531 -10.25 3.875 -10.03125 C 3.863281 -9.820312 3.851562 -9.515625 3.84375 -9.109375 C 3.832031 -8.710938 3.828125 -8.1875 3.828125 -7.53125 L 3.828125 -3.875 C 3.828125 -3.25 3.832031 -2.734375 3.84375 -2.328125 C 3.851562 -1.929688 3.863281 -1.625 3.875 -1.40625 C 3.894531 -1.195312 3.921875 -1.066406 3.953125 -1.015625 L 5.140625 -0.734375 L 5.09375 0 Z M 0.953125 0 "/></g></g></g><g fill="#000000" fill-opacity="1"><g transform="translate(228.446655, 135.602847)"><g><path d="M 0.953125 -11.421875 L 5.671875 -11.421875 C 7.710938 -11.421875 9.304688 -10.929688 10.453125 -9.953125 C 11.609375 -8.972656 12.1875 -7.601562 12.1875 -5.84375 C 12.1875 -4.695312 11.921875 -3.679688 11.390625 -2.796875 C 10.859375 -1.921875 10.117188 -1.234375 9.171875 -0.734375 C 8.222656 -0.242188 7.132812 0 5.90625 0 L 0.953125 0 L 0.921875 -0.734375 L 2.109375 -1.015625 C 2.128906 -1.128906 2.148438 -1.457031 2.171875 -2 C 2.191406 -2.550781 2.203125 -3.175781 2.203125 -3.875 L 2.203125 -7.53125 C 2.203125 -8.3125 2.191406 -8.96875 2.171875 -9.5 C 2.148438 -10.03125 2.128906 -10.335938 2.109375 -10.421875 L 0.921875 -10.6875 Z M 3.890625 -10.375 C 3.890625 -10.25 3.882812 -10.082031 3.875 -9.875 C 3.875 -9.675781 3.867188 -9.394531 3.859375 -9.03125 C 3.859375 -8.664062 3.859375 -8.164062 3.859375 -7.53125 L 3.859375 -3.875 C 3.859375 -3.488281 3.859375 -3.125 3.859375 -2.78125 C 3.867188 -2.4375 3.882812 -2.125 3.90625 -1.84375 C 3.925781 -1.570312 3.941406 -1.347656 3.953125 -1.171875 C 4.367188 -1.117188 4.738281 -1.078125 5.0625 -1.046875 C 5.394531 -1.015625 5.71875 -1 6.03125 -1 C 7.40625 -1 8.445312 -1.363281 9.15625 -2.09375 C 9.875 -2.820312 10.234375 -3.882812 10.234375 -5.28125 C 10.234375 -6.125 10.128906 -6.867188 9.921875 -7.515625 C 9.722656 -8.160156 9.414062 -8.707031 9 -9.15625 C 8.59375 -9.601562 8.09375 -9.941406 7.5 -10.171875 C 6.914062 -10.398438 6.234375 -10.515625 5.453125 -10.515625 C 5.210938 -10.515625 4.960938 -10.503906 4.703125 -10.484375 C 4.453125 -10.460938 4.179688 -10.425781 3.890625 -10.375 Z M 3.890625 -10.375 "/></g></g></g><g fill="#000000" fill-opacity="1"><g transform="translate(241.721169, 135.602847)"><g><path d="M 9.46875 0.09375 C 9.082031 0.0507812 8.742188 0.0234375 8.453125 0.015625 C 8.160156 0.00390625 7.882812 0 7.625 0 L 0.953125 0 L 0.890625 -0.734375 L 2.109375 -1.015625 C 2.117188 -1.078125 2.128906 -1.222656 2.140625 -1.453125 C 2.148438 -1.691406 2.160156 -2.007812 2.171875 -2.40625 C 2.179688 -2.8125 2.1875 -3.300781 2.1875 -3.875 L 2.1875 -7.53125 C 2.1875 -8.113281 2.179688 -8.609375 2.171875 -9.015625 C 2.160156 -9.429688 2.148438 -9.753906 2.140625 -9.984375 C 2.128906 -10.222656 2.117188 -10.367188 2.109375 -10.421875 L 0.890625 -10.6875 L 0.953125 -11.421875 L 7.203125 -11.421875 C 7.390625 -11.421875 7.582031 -11.421875 7.78125 -11.421875 C 7.988281 -11.421875 8.207031 -11.429688 8.4375 -11.453125 C 8.664062 -11.472656 8.90625 -11.488281 9.15625 -11.5 L 9.546875 -8.9375 L 8.671875 -8.796875 L 8.015625 -10.4375 C 7.910156 -10.457031 7.796875 -10.472656 7.671875 -10.484375 C 7.546875 -10.492188 7.410156 -10.5 7.265625 -10.5 L 5.0625 -10.5 C 4.8125 -10.5 4.59375 -10.492188 4.40625 -10.484375 C 4.21875 -10.472656 4.035156 -10.457031 3.859375 -10.4375 C 3.859375 -10.382812 3.851562 -10.238281 3.84375 -10 C 3.832031 -9.757812 3.820312 -9.484375 3.8125 -9.171875 C 3.8125 -8.859375 3.8125 -8.546875 3.8125 -8.234375 L 3.8125 -2.984375 C 3.8125 -2.722656 3.8125 -2.457031 3.8125 -2.1875 C 3.820312 -1.925781 3.832031 -1.691406 3.84375 -1.484375 C 3.851562 -1.285156 3.859375 -1.140625 3.859375 -1.046875 C 4.046875 -1.035156 4.238281 -1.023438 4.4375 -1.015625 C 4.632812 -1.003906 4.851562 -1 5.09375 -1 L 6.984375 -1 C 7.273438 -1 7.507812 -1 7.6875 -1 C 7.875 -1.007812 8.019531 -1.019531 8.125 -1.03125 C 8.226562 -1.039062 8.3125 -1.054688 8.375 -1.078125 L 9.390625 -2.921875 L 10.265625 -2.75 Z M 7.296875 -3.984375 L 7.0625 -5.3125 C 7 -5.34375 6.890625 -5.363281 6.734375 -5.375 C 6.578125 -5.382812 6.390625 -5.390625 6.171875 -5.390625 L 4.6875 -5.390625 C 4.519531 -5.390625 4.332031 -5.382812 4.125 -5.375 C 3.925781 -5.363281 3.726562 -5.347656 3.53125 -5.328125 L 3.53125 -6.40625 C 3.726562 -6.394531 3.925781 -6.382812 4.125 -6.375 C 4.332031 -6.363281 4.519531 -6.359375 4.6875 -6.359375 L 6.171875 -6.359375 C 6.390625 -6.359375 6.578125 -6.363281 6.734375 -6.375 C 6.890625 -6.382812 7 -6.398438 7.0625 -6.421875 L 7.296875 -7.765625 L 8.140625 -7.765625 L 8.140625 -3.984375 Z M 7.296875 -3.984375 "/></g></g></g><g fill="#000000" fill-opacity="1"><g transform="translate(252.543207, 135.602847)"><g><path d="M 9.828125 -2.78125 L 9.828125 -7.140625 C 9.828125 -7.910156 9.820312 -8.523438 9.8125 -8.984375 C 9.8125 -9.441406 9.800781 -9.785156 9.78125 -10.015625 C 9.757812 -10.242188 9.742188 -10.378906 9.734375 -10.421875 L 8.40625 -10.6875 L 8.46875 -11.421875 L 12.171875 -11.421875 L 12.234375 -10.6875 L 11.015625 -10.421875 C 11.015625 -10.378906 11.003906 -10.242188 10.984375 -10.015625 C 10.972656 -9.785156 10.957031 -9.4375 10.9375 -8.96875 C 10.925781 -8.507812 10.921875 -7.898438 10.921875 -7.140625 L 10.921875 -2.515625 C 10.921875 -2.097656 10.921875 -1.675781 10.921875 -1.25 C 10.921875 -0.820312 10.925781 -0.378906 10.9375 0.078125 L 10.0625 0.078125 L 2.90625 -9.5625 L 3.328125 -9.5625 L 3.328125 -4.34375 C 3.328125 -3.5625 3.332031 -2.9375 3.34375 -2.46875 C 3.363281 -2 3.378906 -1.648438 3.390625 -1.421875 C 3.410156 -1.203125 3.429688 -1.066406 3.453125 -1.015625 L 4.765625 -0.734375 L 4.71875 0 L 0.96875 0 L 0.921875 -0.734375 L 2.109375 -1.015625 C 2.128906 -1.066406 2.144531 -1.203125 2.15625 -1.421875 C 2.175781 -1.640625 2.191406 -1.984375 2.203125 -2.453125 C 2.210938 -2.929688 2.21875 -3.5625 2.21875 -4.34375 L 2.21875 -7.671875 C 2.21875 -8.253906 2.210938 -8.734375 2.203125 -9.109375 C 2.191406 -9.484375 2.175781 -9.773438 2.15625 -9.984375 C 2.144531 -10.191406 2.128906 -10.335938 2.109375 -10.421875 L 0.921875 -10.6875 L 0.96875 -11.421875 L 3.640625 -11.421875 L 10.1875 -2.78125 Z M 9.828125 -2.78125 "/></g></g></g><g fill="#000000" fill-opacity="1"><g transform="translate(265.662008, 135.602847)"><g><path d="M 10.078125 -11.5 L 10.515625 -8.359375 L 9.65625 -8.25 L 8.84375 -10.453125 C 8.738281 -10.484375 8.617188 -10.5 8.484375 -10.5 C 8.347656 -10.507812 8.226562 -10.515625 8.125 -10.515625 L 7.421875 -10.515625 C 7.285156 -10.515625 7.109375 -10.515625 6.890625 -10.515625 C 6.671875 -10.515625 6.46875 -10.507812 6.28125 -10.5 C 6.28125 -10.394531 6.273438 -10.148438 6.265625 -9.765625 C 6.265625 -9.378906 6.265625 -8.929688 6.265625 -8.421875 C 6.265625 -7.921875 6.265625 -7.4375 6.265625 -6.96875 L 6.265625 -4.34375 C 6.265625 -3.519531 6.269531 -2.804688 6.28125 -2.203125 C 6.300781 -1.597656 6.3125 -1.203125 6.3125 -1.015625 L 7.96875 -0.78125 L 7.90625 0 L 2.9375 0 L 2.90625 -0.78125 L 4.53125 -1.015625 C 4.53125 -1.203125 4.535156 -1.597656 4.546875 -2.203125 C 4.566406 -2.804688 4.578125 -3.519531 4.578125 -4.34375 L 4.578125 -6.96875 C 4.578125 -7.4375 4.578125 -7.921875 4.578125 -8.421875 C 4.578125 -8.929688 4.578125 -9.378906 4.578125 -9.765625 C 4.578125 -10.148438 4.570312 -10.394531 4.5625 -10.5 C 4.382812 -10.507812 4.1875 -10.515625 3.96875 -10.515625 C 3.75 -10.515625 3.578125 -10.515625 3.453125 -10.515625 L 2.6875 -10.515625 C 2.582031 -10.515625 2.46875 -10.507812 2.34375 -10.5 C 2.21875 -10.5 2.097656 -10.484375 1.984375 -10.453125 L 1.1875 -8.234375 L 0.3125 -8.359375 L 0.734375 -11.5 C 0.878906 -11.488281 1.03125 -11.476562 1.1875 -11.46875 C 1.351562 -11.46875 1.515625 -11.457031 1.671875 -11.4375 C 1.835938 -11.425781 2 -11.421875 2.15625 -11.421875 C 2.3125 -11.421875 2.46875 -11.421875 2.625 -11.421875 L 8.203125 -11.421875 C 8.335938 -11.421875 8.484375 -11.421875 8.640625 -11.421875 C 8.804688 -11.421875 8.96875 -11.425781 9.125 -11.4375 C 9.28125 -11.457031 9.441406 -11.46875 9.609375 -11.46875 C 9.773438 -11.476562 9.929688 -11.488281 10.078125 -11.5 Z M 10.078125 -11.5 "/></g></g></g><g fill="#000000" fill-opacity="1"><g transform="translate(276.50351, 135.602847)"><g><path d="M 0.953125 0 L 0.921875 -0.734375 L 2.109375 -1.015625 C 2.128906 -1.078125 2.140625 -1.222656 2.140625 -1.453125 C 2.148438 -1.691406 2.160156 -2.007812 2.171875 -2.40625 C 2.179688 -2.8125 2.1875 -3.300781 2.1875 -3.875 L 2.1875 -7.53125 C 2.1875 -8.113281 2.179688 -8.609375 2.171875 -9.015625 C 2.160156 -9.429688 2.148438 -9.757812 2.140625 -10 C 2.140625 -10.238281 2.128906 -10.378906 2.109375 -10.421875 L 0.921875 -10.6875 L 0.953125 -11.421875 L 5.09375 -11.421875 L 5.140625 -10.6875 L 3.953125 -10.421875 C 3.921875 -10.378906 3.894531 -10.25 3.875 -10.03125 C 3.863281 -9.820312 3.851562 -9.515625 3.84375 -9.109375 C 3.832031 -8.710938 3.828125 -8.1875 3.828125 -7.53125 L 3.828125 -3.875 C 3.828125 -3.25 3.832031 -2.734375 3.84375 -2.328125 C 3.851562 -1.929688 3.863281 -1.625 3.875 -1.40625 C 3.894531 -1.195312 3.921875 -1.066406 3.953125 -1.015625 L 5.140625 -0.734375 L 5.09375 0 Z M 0.953125 0 "/></g></g></g><g fill="#000000" fill-opacity="1"><g transform="translate(282.53738, 135.602847)"><g><path d="M 0.0625 0 L 0.015625 -0.734375 L 0.96875 -1.015625 L 4.984375 -11.09375 L 6.109375 -11.78125 L 10.359375 -1.015625 L 11.328125 -0.734375 L 11.265625 0 L 7.34375 0 L 7.296875 -0.734375 L 8.484375 -1.015625 L 7.34375 -3.890625 L 7.125 -4.5 L 5 -9.796875 L 5.453125 -10.046875 L 3.421875 -4.5 L 3.21875 -3.90625 L 2.1875 -1.015625 L 3.375 -0.734375 L 3.328125 0 Z M 2.78125 -3.609375 L 2.78125 -4.640625 C 3.03125 -4.617188 3.367188 -4.601562 3.796875 -4.59375 C 4.222656 -4.582031 4.75 -4.578125 5.375 -4.578125 C 5.976562 -4.578125 6.5 -4.582031 6.9375 -4.59375 C 7.375 -4.601562 7.707031 -4.617188 7.9375 -4.640625 L 7.9375 -3.609375 C 7.5 -3.617188 7.0625 -3.625 6.625 -3.625 C 6.195312 -3.632812 5.78125 -3.640625 5.375 -3.640625 C 4.988281 -3.640625 4.582031 -3.632812 4.15625 -3.625 C 3.738281 -3.625 3.28125 -3.617188 2.78125 -3.609375 Z M 2.78125 -3.609375 "/></g></g></g><g fill="#000000" fill-opacity="1"><g transform="translate(293.865484, 135.602847)"><g><path d="M 9.09375 0.09375 C 8.90625 0.0703125 8.695312 0.0507812 8.46875 0.03125 C 8.25 0.0195312 8.03125 0.0078125 7.8125 0 C 7.59375 0 7.390625 0 7.203125 0 L 0.96875 0 L 0.9375 -0.734375 L 2.125 -1.015625 C 2.132812 -1.078125 2.144531 -1.222656 2.15625 -1.453125 C 2.175781 -1.679688 2.1875 -2 2.1875 -2.40625 C 2.195312 -2.820312 2.203125 -3.3125 2.203125 -3.875 L 2.203125 -7.53125 C 2.203125 -8.113281 2.203125 -8.609375 2.203125 -9.015625 C 2.203125 -9.421875 2.191406 -9.738281 2.171875 -9.96875 C 2.160156 -10.195312 2.144531 -10.335938 2.125 -10.390625 L 0.9375 -10.6875 L 0.96875 -11.421875 L 5.546875 -11.421875 L 5.609375 -10.65625 L 3.984375 -10.390625 C 3.960938 -10.359375 3.941406 -10.234375 3.921875 -10.015625 C 3.910156 -9.804688 3.898438 -9.492188 3.890625 -9.078125 C 3.878906 -8.671875 3.875 -8.15625 3.875 -7.53125 L 3.875 -3.875 C 3.875 -3.195312 3.878906 -2.609375 3.890625 -2.109375 C 3.898438 -1.609375 3.914062 -1.289062 3.9375 -1.15625 C 4.113281 -1.125 4.296875 -1.101562 4.484375 -1.09375 C 4.671875 -1.09375 4.894531 -1.09375 5.15625 -1.09375 L 6.625 -1.09375 C 6.914062 -1.09375 7.164062 -1.097656 7.375 -1.109375 C 7.582031 -1.117188 7.789062 -1.140625 8 -1.171875 L 9.015625 -3.078125 L 9.890625 -2.875 Z M 9.09375 0.09375 "/></g></g></g><g fill="#000000" fill-opacity="1"><g transform="translate(133.604543, 154.445078)"><g><path d="M 3.5 0.140625 C 3.039062 0.140625 2.570312 0.0820312 2.09375 -0.03125 C 1.625 -0.144531 1.234375 -0.289062 0.921875 -0.46875 L 0.84375 -2.484375 L 1.515625 -2.546875 L 1.953125 -1.15625 C 2.203125 -0.988281 2.476562 -0.859375 2.78125 -0.765625 C 3.082031 -0.679688 3.398438 -0.640625 3.734375 -0.640625 C 4.242188 -0.640625 4.65625 -0.765625 4.96875 -1.015625 C 5.28125 -1.265625 5.4375 -1.601562 5.4375 -2.03125 C 5.4375 -2.394531 5.328125 -2.695312 5.109375 -2.9375 C 4.890625 -3.175781 4.601562 -3.382812 4.25 -3.5625 C 3.90625 -3.75 3.539062 -3.925781 3.15625 -4.09375 C 2.769531 -4.269531 2.40625 -4.46875 2.0625 -4.6875 C 1.71875 -4.914062 1.429688 -5.191406 1.203125 -5.515625 C 0.984375 -5.847656 0.875 -6.257812 0.875 -6.75 C 0.875 -7.25 1.015625 -7.691406 1.296875 -8.078125 C 1.585938 -8.460938 1.976562 -8.757812 2.46875 -8.96875 C 2.96875 -9.1875 3.539062 -9.296875 4.1875 -9.296875 C 4.457031 -9.296875 4.71875 -9.28125 4.96875 -9.25 C 5.226562 -9.226562 5.46875 -9.1875 5.6875 -9.125 C 5.90625 -9.070312 6.101562 -9.007812 6.28125 -8.9375 L 6.40625 -7 L 5.734375 -6.9375 L 5.296875 -8.234375 C 4.960938 -8.441406 4.535156 -8.546875 4.015625 -8.546875 C 3.484375 -8.546875 3.0625 -8.414062 2.75 -8.15625 C 2.4375 -7.90625 2.28125 -7.570312 2.28125 -7.15625 C 2.28125 -6.78125 2.390625 -6.460938 2.609375 -6.203125 C 2.828125 -5.953125 3.109375 -5.734375 3.453125 -5.546875 C 3.804688 -5.359375 4.175781 -5.175781 4.5625 -5 C 4.957031 -4.832031 5.328125 -4.640625 5.671875 -4.421875 C 6.023438 -4.203125 6.3125 -3.929688 6.53125 -3.609375 C 6.757812 -3.296875 6.875 -2.910156 6.875 -2.453125 C 6.875 -1.953125 6.726562 -1.503906 6.4375 -1.109375 C 6.144531 -0.722656 5.742188 -0.414062 5.234375 -0.1875 C 4.734375 0.03125 4.15625 0.140625 3.5 0.140625 Z M 3.5 0.140625 "/></g></g></g><g fill="#000000" fill-opacity="1"><g transform="translate(141.064278, 154.445078)"><g><path d="M 0.421875 0 L 0.390625 -0.578125 L 1.4375 -0.796875 C 1.445312 -0.835938 1.453125 -0.910156 1.453125 -1.015625 C 1.460938 -1.117188 1.472656 -1.285156 1.484375 -1.515625 C 1.492188 -1.742188 1.5 -2.0625 1.5 -2.46875 L 1.5 -3.484375 C 1.5 -3.921875 1.488281 -4.316406 1.46875 -4.671875 C 1.445312 -5.023438 1.421875 -5.296875 1.390625 -5.484375 L 0.34375 -5.703125 L 0.34375 -6.21875 L 2.5625 -6.796875 L 2.78125 -6.578125 C 2.75 -6.253906 2.722656 -5.9375 2.703125 -5.625 C 2.691406 -5.3125 2.6875 -4.945312 2.6875 -4.53125 L 2.6875 -2.578125 C 2.6875 -2.097656 2.691406 -1.703125 2.703125 -1.390625 C 2.722656 -1.078125 2.742188 -0.878906 2.765625 -0.796875 L 3.8125 -0.578125 L 3.78125 0 Z M 2.09375 -8.546875 C 1.820312 -8.546875 1.59375 -8.632812 1.40625 -8.8125 C 1.21875 -8.988281 1.125 -9.207031 1.125 -9.46875 C 1.125 -9.71875 1.21875 -9.929688 1.40625 -10.109375 C 1.59375 -10.296875 1.820312 -10.390625 2.09375 -10.390625 C 2.363281 -10.390625 2.585938 -10.296875 2.765625 -10.109375 C 2.941406 -9.929688 3.03125 -9.71875 3.03125 -9.46875 C 3.03125 -9.207031 2.941406 -8.988281 2.765625 -8.8125 C 2.585938 -8.632812 2.363281 -8.546875 2.09375 -8.546875 Z M 2.09375 -8.546875 "/></g></g></g><g fill="#000000" fill-opacity="1"><g transform="translate(145.237992, 154.445078)"><g><path d="M 0.484375 0 L 0.453125 -0.5625 L 1.421875 -0.796875 C 1.429688 -0.867188 1.4375 -0.96875 1.4375 -1.09375 C 1.445312 -1.21875 1.457031 -1.390625 1.46875 -1.609375 C 1.476562 -1.828125 1.484375 -2.113281 1.484375 -2.46875 L 1.5 -3.65625 C 1.5 -4 1.484375 -4.34375 1.453125 -4.6875 C 1.429688 -5.03125 1.40625 -5.296875 1.375 -5.484375 L 0.375 -5.703125 L 0.375 -6.21875 L 2.46875 -6.796875 L 2.71875 -6.546875 L 2.65625 -5.71875 L 2.6875 -5.703125 C 3.050781 -6.097656 3.410156 -6.382812 3.765625 -6.5625 C 4.117188 -6.738281 4.503906 -6.828125 4.921875 -6.828125 C 5.304688 -6.828125 5.664062 -6.726562 6 -6.53125 C 6.34375 -6.34375 6.617188 -6.046875 6.828125 -5.640625 C 7.046875 -5.242188 7.15625 -4.742188 7.15625 -4.140625 L 7.15625 -2.421875 C 7.15625 -2.046875 7.160156 -1.707031 7.171875 -1.40625 C 7.191406 -1.101562 7.21875 -0.898438 7.25 -0.796875 L 8.203125 -0.5625 L 8.15625 0 L 5.03125 0 L 5 -0.5625 L 5.90625 -0.796875 C 5.914062 -0.878906 5.925781 -0.984375 5.9375 -1.109375 C 5.945312 -1.234375 5.953125 -1.394531 5.953125 -1.59375 C 5.960938 -1.789062 5.96875 -2.03125 5.96875 -2.3125 L 5.96875 -3.984375 C 5.96875 -4.453125 5.882812 -4.820312 5.71875 -5.09375 C 5.5625 -5.375 5.363281 -5.570312 5.125 -5.6875 C 4.882812 -5.8125 4.640625 -5.875 4.390625 -5.875 C 4.046875 -5.875 3.726562 -5.789062 3.4375 -5.625 C 3.144531 -5.457031 2.890625 -5.21875 2.671875 -4.90625 L 2.671875 -2.578125 C 2.671875 -2.085938 2.675781 -1.695312 2.6875 -1.40625 C 2.707031 -1.113281 2.726562 -0.910156 2.75 -0.796875 L 3.71875 -0.5625 L 3.671875 0 Z M 0.484375 0 "/></g></g></g><g fill="#000000" fill-opacity="1"><g transform="translate(153.803449, 154.445078)"><g><path d="M 3.84375 0.125 C 3.257812 0.125 2.722656 -0.00390625 2.234375 -0.265625 C 1.753906 -0.535156 1.367188 -0.921875 1.078125 -1.421875 C 0.785156 -1.929688 0.640625 -2.53125 0.640625 -3.21875 C 0.640625 -3.894531 0.789062 -4.503906 1.09375 -5.046875 C 1.40625 -5.585938 1.820312 -6.019531 2.34375 -6.34375 C 2.875 -6.664062 3.476562 -6.828125 4.15625 -6.828125 C 4.613281 -6.828125 5 -6.769531 5.3125 -6.65625 C 5.625 -6.539062 5.859375 -6.390625 6.015625 -6.203125 C 6.179688 -6.015625 6.265625 -5.816406 6.265625 -5.609375 C 6.265625 -5.441406 6.210938 -5.300781 6.109375 -5.1875 C 6.003906 -5.082031 5.859375 -5.03125 5.671875 -5.03125 C 5.492188 -5.03125 5.347656 -5.0625 5.234375 -5.125 C 5.117188 -5.1875 4.96875 -5.3125 4.78125 -5.5 L 3.984375 -6.296875 L 4.546875 -6.140625 C 4.128906 -6.234375 3.726562 -6.191406 3.34375 -6.015625 C 2.957031 -5.847656 2.640625 -5.550781 2.390625 -5.125 C 2.148438 -4.707031 2.03125 -4.164062 2.03125 -3.5 C 2.03125 -2.675781 2.238281 -2.039062 2.65625 -1.59375 C 3.070312 -1.144531 3.597656 -0.921875 4.234375 -0.921875 C 4.628906 -0.921875 4.96875 -0.992188 5.25 -1.140625 C 5.539062 -1.285156 5.816406 -1.519531 6.078125 -1.84375 L 6.5 -1.484375 C 6.207031 -0.941406 5.835938 -0.535156 5.390625 -0.265625 C 4.941406 -0.00390625 4.425781 0.125 3.84375 0.125 Z M 3.84375 0.125 "/></g></g></g><g fill="#000000" fill-opacity="1"><g transform="translate(160.422212, 154.445078)"><g><path d="M 3.859375 0.125 C 3.253906 0.125 2.707031 -0.0078125 2.21875 -0.28125 C 1.738281 -0.550781 1.359375 -0.9375 1.078125 -1.4375 C 0.796875 -1.945312 0.65625 -2.539062 0.65625 -3.21875 C 0.65625 -3.957031 0.804688 -4.597656 1.109375 -5.140625 C 1.410156 -5.679688 1.800781 -6.097656 2.28125 -6.390625 C 2.769531 -6.691406 3.296875 -6.835938 3.859375 -6.828125 C 4.671875 -6.816406 5.304688 -6.546875 5.765625 -6.015625 C 6.222656 -5.492188 6.453125 -4.742188 6.453125 -3.765625 L 6.453125 -3.484375 L 1.671875 -3.484375 L 1.671875 -4.171875 L 5.421875 -4.171875 L 5.25 -3.96875 L 5.25 -4.296875 C 5.25 -4.890625 5.113281 -5.347656 4.84375 -5.671875 C 4.582031 -6.003906 4.210938 -6.171875 3.734375 -6.171875 C 3.441406 -6.171875 3.160156 -6.082031 2.890625 -5.90625 C 2.628906 -5.738281 2.414062 -5.476562 2.25 -5.125 C 2.082031 -4.78125 2 -4.34375 2 -3.8125 L 2 -3.625 C 2 -2.78125 2.207031 -2.117188 2.625 -1.640625 C 3.039062 -1.160156 3.582031 -0.921875 4.25 -0.921875 C 4.625 -0.921875 4.953125 -0.988281 5.234375 -1.125 C 5.523438 -1.269531 5.804688 -1.507812 6.078125 -1.84375 L 6.46875 -1.484375 C 6.175781 -0.941406 5.804688 -0.535156 5.359375 -0.265625 C 4.910156 -0.00390625 4.410156 0.125 3.859375 0.125 Z M 3.859375 0.125 "/></g></g></g><g fill="#000000" fill-opacity="1"><g transform="translate(167.430313, 154.445078)"><g/></g></g><g fill="#000000" fill-opacity="1"><g transform="translate(170.420437, 154.445078)"><g><path d="M 3.40625 -3.0625 C 3.40625 -2.570312 3.410156 -2.164062 3.421875 -1.84375 C 3.429688 -1.519531 3.441406 -1.273438 3.453125 -1.109375 C 3.460938 -0.941406 3.476562 -0.835938 3.5 -0.796875 L 4.75 -0.578125 L 4.703125 0 L 0.90625 0 L 0.875 -0.578125 L 2.09375 -0.796875 C 2.101562 -0.859375 2.113281 -0.988281 2.125 -1.1875 C 2.132812 -1.394531 2.144531 -1.660156 2.15625 -1.984375 C 2.164062 -2.304688 2.171875 -2.664062 2.171875 -3.0625 L 2.171875 -6.0625 C 2.171875 -6.351562 2.160156 -6.644531 2.140625 -6.9375 C 2.128906 -7.238281 2.113281 -7.507812 2.09375 -7.75 L 0.765625 -7.453125 L 0.71875 -8.109375 L 3.46875 -9.296875 C 3.457031 -8.992188 3.441406 -8.609375 3.421875 -8.140625 C 3.410156 -7.671875 3.40625 -7.066406 3.40625 -6.328125 Z M 3.40625 -3.0625 "/></g></g></g><g fill="#000000" fill-opacity="1"><g transform="translate(175.715447, 154.445078)"><g><path d="M 5.9375 -5.34375 C 5.664062 -4.851562 5.316406 -4.460938 4.890625 -4.171875 C 4.460938 -3.890625 4.003906 -3.75 3.515625 -3.75 C 3.015625 -3.75 2.566406 -3.859375 2.171875 -4.078125 C 1.773438 -4.304688 1.457031 -4.613281 1.21875 -5 C 0.988281 -5.394531 0.875 -5.835938 0.875 -6.328125 C 0.875 -6.847656 1.003906 -7.332031 1.265625 -7.78125 C 1.535156 -8.226562 1.898438 -8.585938 2.359375 -8.859375 C 2.828125 -9.140625 3.351562 -9.28125 3.9375 -9.28125 C 4.570312 -9.28125 5.128906 -9.132812 5.609375 -8.84375 C 6.085938 -8.5625 6.457031 -8.160156 6.71875 -7.640625 C 6.988281 -7.128906 7.125 -6.519531 7.125 -5.8125 C 7.125 -5.050781 6.992188 -4.332031 6.734375 -3.65625 C 6.472656 -2.988281 6.101562 -2.382812 5.625 -1.84375 C 5.15625 -1.3125 4.582031 -0.863281 3.90625 -0.5 C 3.238281 -0.144531 2.5 0.101562 1.6875 0.25 L 1.4375 -0.453125 C 2.363281 -0.691406 3.140625 -1.050781 3.765625 -1.53125 C 4.398438 -2.007812 4.875 -2.601562 5.1875 -3.3125 C 5.507812 -4.03125 5.671875 -4.859375 5.671875 -5.796875 C 5.671875 -6.359375 5.59375 -6.84375 5.4375 -7.25 C 5.289062 -7.664062 5.078125 -7.984375 4.796875 -8.203125 C 4.523438 -8.429688 4.195312 -8.546875 3.8125 -8.546875 C 3.363281 -8.546875 2.992188 -8.375 2.703125 -8.03125 C 2.421875 -7.695312 2.28125 -7.253906 2.28125 -6.703125 C 2.28125 -6.128906 2.441406 -5.664062 2.765625 -5.3125 C 3.085938 -4.957031 3.507812 -4.78125 4.03125 -4.78125 C 4.28125 -4.78125 4.519531 -4.820312 4.75 -4.90625 C 4.976562 -5 5.1875 -5.128906 5.375 -5.296875 C 5.570312 -5.472656 5.75 -5.675781 5.90625 -5.90625 Z M 5.9375 -5.34375 "/></g></g></g><g fill="#000000" fill-opacity="1"><g transform="translate(183.813698, 154.445078)"><g><path d="M 5.9375 -5.34375 C 5.664062 -4.851562 5.316406 -4.460938 4.890625 -4.171875 C 4.460938 -3.890625 4.003906 -3.75 3.515625 -3.75 C 3.015625 -3.75 2.566406 -3.859375 2.171875 -4.078125 C 1.773438 -4.304688 1.457031 -4.613281 1.21875 -5 C 0.988281 -5.394531 0.875 -5.835938 0.875 -6.328125 C 0.875 -6.847656 1.003906 -7.332031 1.265625 -7.78125 C 1.535156 -8.226562 1.898438 -8.585938 2.359375 -8.859375 C 2.828125 -9.140625 3.351562 -9.28125 3.9375 -9.28125 C 4.570312 -9.28125 5.128906 -9.132812 5.609375 -8.84375 C 6.085938 -8.5625 6.457031 -8.160156 6.71875 -7.640625 C 6.988281 -7.128906 7.125 -6.519531 7.125 -5.8125 C 7.125 -5.050781 6.992188 -4.332031 6.734375 -3.65625 C 6.472656 -2.988281 6.101562 -2.382812 5.625 -1.84375 C 5.15625 -1.3125 4.582031 -0.863281 3.90625 -0.5 C 3.238281 -0.144531 2.5 0.101562 1.6875 0.25 L 1.4375 -0.453125 C 2.363281 -0.691406 3.140625 -1.050781 3.765625 -1.53125 C 4.398438 -2.007812 4.875 -2.601562 5.1875 -3.3125 C 5.507812 -4.03125 5.671875 -4.859375 5.671875 -5.796875 C 5.671875 -6.359375 5.59375 -6.84375 5.4375 -7.25 C 5.289062 -7.664062 5.078125 -7.984375 4.796875 -8.203125 C 4.523438 -8.429688 4.195312 -8.546875 3.8125 -8.546875 C 3.363281 -8.546875 2.992188 -8.375 2.703125 -8.03125 C 2.421875 -7.695312 2.28125 -7.253906 2.28125 -6.703125 C 2.28125 -6.128906 2.441406 -5.664062 2.765625 -5.3125 C 3.085938 -4.957031 3.507812 -4.78125 4.03125 -4.78125 C 4.28125 -4.78125 4.519531 -4.820312 4.75 -4.90625 C 4.976562 -5 5.1875 -5.128906 5.375 -5.296875 C 5.570312 -5.472656 5.75 -5.675781 5.90625 -5.90625 Z M 5.9375 -5.34375 "/></g></g></g><g fill="#000000" fill-opacity="1"><g transform="translate(191.911948, 154.445078)"><g><path d="M 3.890625 -4.859375 L 3.921875 -5.0625 C 4.785156 -5.03125 5.460938 -4.8125 5.953125 -4.40625 C 6.453125 -4 6.703125 -3.445312 6.703125 -2.75 C 6.703125 -2.238281 6.539062 -1.757812 6.21875 -1.3125 C 5.894531 -0.875 5.457031 -0.519531 4.90625 -0.25 C 4.363281 0.0078125 3.757812 0.140625 3.09375 0.140625 C 2.664062 0.140625 2.285156 0.09375 1.953125 0 C 1.628906 -0.101562 1.375 -0.242188 1.1875 -0.421875 C 1 -0.597656 0.90625 -0.800781 0.90625 -1.03125 C 0.90625 -1.195312 0.960938 -1.335938 1.078125 -1.453125 C 1.191406 -1.566406 1.332031 -1.625 1.5 -1.625 C 1.675781 -1.625 1.820312 -1.597656 1.9375 -1.546875 C 2.0625 -1.492188 2.222656 -1.382812 2.421875 -1.21875 L 3.375 -0.390625 L 2.65625 -0.609375 C 3.164062 -0.535156 3.625 -0.566406 4.03125 -0.703125 C 4.4375 -0.835938 4.757812 -1.066406 5 -1.390625 C 5.238281 -1.710938 5.359375 -2.09375 5.359375 -2.53125 C 5.359375 -3.082031 5.175781 -3.519531 4.8125 -3.84375 C 4.457031 -4.175781 3.96875 -4.34375 3.34375 -4.34375 C 3.195312 -4.34375 3.050781 -4.335938 2.90625 -4.328125 C 2.757812 -4.316406 2.613281 -4.300781 2.46875 -4.28125 L 2.390625 -4.984375 C 3.160156 -5.078125 3.742188 -5.28125 4.140625 -5.59375 C 4.535156 -5.914062 4.734375 -6.335938 4.734375 -6.859375 C 4.734375 -7.296875 4.59375 -7.628906 4.3125 -7.859375 C 4.03125 -8.085938 3.640625 -8.203125 3.140625 -8.203125 C 2.796875 -8.203125 2.457031 -8.125 2.125 -7.96875 C 1.800781 -7.820312 1.519531 -7.585938 1.28125 -7.265625 L 0.84375 -7.578125 C 1.09375 -8.097656 1.460938 -8.507812 1.953125 -8.8125 C 2.453125 -9.125 3.007812 -9.28125 3.625 -9.28125 C 4.363281 -9.28125 4.957031 -9.085938 5.40625 -8.703125 C 5.851562 -8.328125 6.078125 -7.847656 6.078125 -7.265625 C 6.078125 -6.710938 5.875 -6.226562 5.46875 -5.8125 C 5.070312 -5.40625 4.546875 -5.085938 3.890625 -4.859375 Z M 3.890625 -4.859375 "/></g></g></g></svg>